# This file uses centimeters as units for non-parametric coordinates.

mtllib Crystal.mtl
g default
v -0.113805 -1.294900 0.113805
v -0.113805 -1.219043 0.189662
v -0.189662 -1.219043 0.113805
v 0.189662 -1.219043 0.113805
v 0.113805 -1.219043 0.189662
v 0.113805 -1.294900 0.113805
v -0.368357 1.174260 0.209061
v -0.250263 1.520743 0.302637
v 0.011038 1.900874 0.004341
v 0.229341 0.963393 0.500000
v 0.358975 1.457016 0.300020
v -0.500000 0.656236 -0.300020
v -0.300020 1.282856 -0.382643
v 0.124409 1.553501 -0.425812
v 0.352454 1.386667 -0.339359
v -0.189662 -1.219043 -0.113805
v -0.113805 -1.219043 -0.189662
v -0.113805 -1.294900 -0.113805
v 0.113805 -1.294900 -0.113805
v 0.113805 -1.219043 -0.189662
v 0.189662 -1.219043 -0.113805
v -0.014585 -1.294900 0.113805
v -0.014585 -1.219043 0.189662
v -0.003858 1.252894 0.500000
v -0.038450 0.774617 -0.500000
v -0.014585 -1.219043 -0.189662
v -0.014585 -1.294900 -0.113805
v -0.189662 -1.219043 0.002635
v -0.113805 -1.294900 0.002635
v -0.014585 -1.294900 0.002635
v 0.113805 -1.294900 0.002635
v 0.189662 -1.219043 0.002635
v 0.500000 0.903383 -0.024075
v -0.440260 0.796556 0.006945
v -0.248975 0.242224 0.169633
v -0.513380 0.537705 0.188796
v -0.262757 -0.277838 0.005555
v -0.399896 0.323747 -0.239954
v -0.239954 0.195235 -0.333891
v -0.030752 -0.150987 -0.281614
v 0.235534 -0.324490 -0.358171
v 0.226987 0.253621 -0.082541
v 0.525925 0.184729 -0.011892
v 0.320580 0.293188 0.239954
v 0.104883 0.015560 0.306110
v -0.011297 -0.206431 0.485934
vt 0.457723 0.079252
vt 0.600161 0.323772
vt 0.571455 0.329079
vt 0.452491 0.107412
vt 0.462772 0.052077
vt 0.432590 0.074582
vt 0.411477 0.306268
vt 0.290544 0.667291
vt 0.715629 0.756319
vt 0.372893 0.063491
vt 0.400067 0.068540
vt 0.394835 0.096700
vt 0.130968 0.291163
vt 0.444363 0.304670
vt 0.514978 0.684137
vt 0.458270 0.615845
vt 0.356447 0.238814
vt 0.263883 0.435830
vt 0.686139 0.833657
vt 0.838380 0.987264
vt 0.388558 0.928107
vt 0.516972 0.976523
vt 0.125158 0.813128
vt 0.590213 0.732462
vt 0.957345 0.647368
vt 0.514082 0.337187
vt 0.474186 0.141956
vt 0.832121 0.360749
vt 0.903488 0.798611
vt 0.240764 0.504300
vt 0.181993 0.649807
vt 0.160005 0.288797
vt 0.384307 0.153370
vt 0.447011 0.136907
vt 0.900483 0.289093
vt 0.421878 0.132238
vt 0.400242 0.570220
vt 0.904780 0.559133
vt 0.427358 0.102743
vt 0.107661 0.642935
vt 0.618724 0.566709
vt 0.655627 0.303990
vt 0.600125 0.823352
vt 0.277550 0.966479
vt 0.782647 0.115757
vt 0.389356 0.126195
vt 0.318818 0.133416
vt 0.781586 0.908083
vt 0.778797 0.269161
vt 0.211151 0.934751
vt 0.729101 0.251254
vt 0.534834 0.979999
vt 0.687280 0.213594
vt 0.452253 0.857268
vt 0.801612 0.042027
vt 0.247909 0.080779
vt 0.558495 0.201472
vt 0.364067 0.335860
vt 0.946955 0.037440
vt 0.699031 0.454950
vt 0.695190 0.107219
vt 0.195546 0.243353
vt 0.797417 0.562027
vt 0.571772 0.037946
vt 0.933678 0.200966
vt 0.367661 0.091651
vt 0.471693 0.301596
vt 0.479666 0.112461
vt 0.541404 0.334670
vt 0.416829 0.159412
vt 0.185853 0.283421
vt 0.437638 0.047408
vt 0.625262 0.312734
vt 0.441962 0.164082
vt 0.363297 0.135410
vt 0.405116 0.041365
vt 0.483781 0.070037
vt 0.362181 0.121147
vt 0.379058 0.050580
vt 0.468021 0.154867
vt 0.484898 0.084300
vt 0.026808 0.663544
vt 0.055065 0.960970
vt 0.749508 0.664953
vt 0.308395 0.993621
vt 0.103788 0.288017
vt 0.385368 0.304717
vt 0.832924 0.518886
vt 0.853238 0.994046
vt 0.867989 0.289091
vt 0.541461 0.700550
vt 0.925583 0.289103
vt 0.984858 0.921323
vn -0.701113 -0.701115 0.129919
vn -0.701113 -0.701115 0.129919
vn -0.707106 -0.707108 0.000000
vn -0.707106 -0.707108 0.000000
vn 0.000000 -0.707107 0.707106
vn 0.000000 -0.926679 0.375855
vn 0.000000 -0.926679 0.375855
vn 0.000000 -0.707107 0.707106
vn -0.202581 -0.045595 0.978203
vn -0.550276 -0.088744 0.830254
vn -0.584502 -0.048827 0.809922
vn -0.187309 -0.060054 0.980464
vn 0.701113 -0.701115 0.129919
vn 0.274315 -0.910666 0.308931
vn 0.348162 -0.937434 0.000000
vn 0.707106 -0.707108 0.000000
vn 0.509759 -0.098126 0.854703
vn 0.725263 -0.135242 0.675058
vn 0.800400 -0.097104 0.591550
vn 0.576566 -0.107498 0.809948
vn -0.868459 0.356351 -0.344663
vn -0.928752 0.365617 -0.061180
vn -0.924638 0.377755 -0.048435
vn 0.079775 0.534951 0.841109
vn 0.023658 0.607049 0.794312
vn 0.494917 0.520729 0.695628
vn 0.867570 0.482673 -0.119790
vn 0.835947 0.419844 -0.353446
vn 0.896878 0.440705 -0.037282
vn -0.429299 -0.121206 -0.894993
vn -0.436624 -0.133871 -0.889628
vn -0.324237 -0.126360 -0.937499
vn -0.628073 -0.141412 -0.765197
vn 0.335887 0.372619 -0.865064
vn -0.460533 0.379554 -0.802402
vn -0.180647 0.408573 -0.894670
vn 0.625908 -0.118883 -0.770783
vn 0.756739 -0.085598 -0.648089
vn 0.994753 -0.071102 -0.073553
vn 0.606508 -0.142610 -0.782183
vn 0.000000 -0.930237 -0.366960
vn 0.000000 -0.707107 -0.707106
vn 0.000000 -0.707107 -0.707106
vn 0.000000 -0.930237 -0.366960
vn -0.293614 -0.166711 0.941275
vn -0.351865 -0.130155 0.926958
vn -0.028400 -0.101889 -0.994390
vn 0.066581 -0.090723 -0.993648
vn 0.000000 -1.000000 0.000000
vn 0.000000 -1.000000 0.000000
vn 0.839470 -0.154437 0.520999
vn 0.844479 -0.098331 0.526485
vn -0.919583 -0.021726 -0.392295
vn -0.896523 -0.111800 -0.428657
vn -0.894258 -0.119068 -0.431424
vn -0.894257 -0.119068 -0.431424
vn -0.577349 -0.577351 0.577351
vn 0.115567 -0.702370 0.702368
vn -0.879606 0.377853 -0.289001
vn 0.268088 0.498346 0.824488
vn -0.220148 0.415382 0.882606
vn -0.928555 0.365712 0.063567
vn -0.919656 0.322962 0.223446
vn 0.635723 0.673819 -0.376595
vn 0.866563 0.476768 0.147517
vn -0.701545 -0.701547 -0.125166
vn -0.577349 -0.577351 -0.577351
vn -0.701545 -0.701547 -0.125166
vn 0.276899 -0.912786 -0.300247
vn 0.115567 -0.702370 -0.702368
vn 0.701545 -0.701547 -0.125166
vn 0.494070 -0.109335 0.862520
vn 0.662932 -0.133631 0.736657
vn -0.882571 0.223918 -0.413437
vn -0.237731 -0.115210 -0.964474
vn 0.041357 -0.101295 -0.993997
vn 0.526591 -0.102717 -0.843891
vn 0.519095 -0.062459 -0.852432
vn 0.519095 -0.062459 -0.852432
vn -0.974347 -0.101163 0.201031
vn -0.974347 -0.101163 0.201031
vn -0.973545 -0.110487 0.200005
vn -0.965749 -0.173973 0.192513
vn -0.696952 -0.038476 0.716085
vn -0.182223 -0.064845 0.981117
vn -0.921411 -0.012576 -0.388387
vn -0.921411 -0.012576 -0.388387
vn -0.964419 -0.182314 0.191463
vn -0.964419 -0.182314 0.191463
vn -0.313758 -0.107675 -0.943378
vn -0.352218 -0.125624 -0.927449
vn -0.370985 -0.134412 -0.918860
vn 0.128902 -0.095240 -0.987073
vn 0.764562 -0.069729 -0.640768
vn 0.841733 -0.070588 -0.535260
vn 0.534190 -0.149587 -0.832024
vn 0.846944 -0.019126 0.531337
vn 0.819907 -0.066710 0.568597
vn 0.775150 -0.134031 0.617396
vn -0.657107 -0.046065 0.752388
vn 0.439759 -0.101191 0.892397
s 1
g pCube1
usemtl initialShadingGroup
f 1/1/1 3/81/2 28/68/3 29/4/4
s 2
f 2/5/5 1/1/6 22/6/7 23/72/8
s 3
f 3/2/9 2/73/10 35/84/11 36/9/12
s 2
f 4/10/13 6/11/14 31/12/15 32/66/16
s 5
f 5/14/17 4/67/18 44/15/19 45/16/20
s 6
f 7/17/21 9/18/22 34/47/23
s 7
f 9/64/24 8/61/25 24/53/26
s 8
f 9/59/27 11/65/28 33/49/29
s 9
f 38/24/30 39/91/31 17/26/32 16/69/33
s 10
f 13/28/34 9/63/35 25/51/36
s 11
f 41/30/37 42/31/38 21/32/39 20/71/40
s 2
f 18/34/41 17/74/42 26/70/43 27/36/44
s 3
f 2/87/10 23/7/45 46/37/46 35/8/11
s 9
f 39/25/31 40/38/47 26/35/48 17/92/32
s 2
f 29/4/49 30/39/50 22/6/7 1/1/6
s 5
f 4/86/18 32/13/51 43/40/52 44/82/19
s 13
f 36/9/53 37/41/54 28/3/55 3/2/56
s 1
f 1/1/1 2/5/57 3/77/2
s 2
f 4/79/13 5/76/58 6/11/14
s 6
f 7/17/21 8/58/59 9/18/22
s 7
f 9/64/24 10/42/60 11/57/61
s 6
f 12/56/62 9/18/22 13/62/63
s 8
f 14/55/64 9/59/27 15/45/65
s 1
f 16/80/66 17/74/67 18/34/68
s 2
f 19/46/69 20/33/70 21/75/71
f 23/72/8 22/6/7 6/11/14 5/76/58
s 3
f 45/16/72 46/37/46 23/7/45 5/14/73
s 7
f 9/64/24 24/53/26 10/42/60
s 10
f 25/51/36 9/63/35 14/60/74
s 11
f 26/35/75 40/38/76 41/88/37 20/90/40
s 2
f 27/36/44 26/70/43 20/33/70 19/46/69
f 22/6/7 30/39/50 31/12/15 6/11/14
s 1
f 29/4/4 28/68/3 16/27/66 18/34/68
s 2
f 18/34/41 27/36/44 30/39/50 29/4/49
f 31/12/15 30/39/50 27/36/44 19/46/69
f 32/66/16 31/12/15 19/46/69 21/78/71
s 11
f 42/31/38 43/40/77 32/13/78 21/32/79
s 8
f 9/59/27 33/49/29 15/45/65
s 6
f 34/47/23 9/18/22 12/56/62
s 15
f 16/69/80 28/3/81 37/41/82 38/24/83
s 3
f 36/9/12 35/84/11 8/20/84 7/48/85
s 13
f 34/19/86 37/41/54 36/9/53 7/48/87
s 15
f 38/24/83 37/41/82 34/19/88 12/43/89
s 9
f 12/43/90 13/52/91 39/91/31 38/24/30
f 13/93/91 25/29/92 40/38/47 39/25/31
s 11
f 41/88/37 40/38/76 25/29/93 14/89/94
f 14/44/94 15/50/95 42/31/38 41/30/37
f 33/23/96 43/40/77 42/31/38 15/50/95
s 5
f 44/82/19 43/40/52 33/23/97 11/83/98
f 45/16/20 44/15/19 11/22/98 10/54/99
s 3
f 24/21/100 46/37/46 45/16/72 10/54/101
f 35/8/11 46/37/46 24/21/100 8/85/84
