# This file uses meters as units for non-parametric coordinates.

mtllib ice Platform.mtl
g default
v 28.120258 -66.415329 2.608459
v 53.756783 -58.478523 8.261536
v 41.605072 50.451241 -47.489166
v 30.752270 50.859406 -68.281403
v 62.425415 50.973583 -54.917206
v 45.296116 51.227913 -82.634552
v 63.277931 51.950310 -101.063965
v 85.585365 27.697893 -111.197205
v 62.571285 51.759590 83.773956
v 42.191139 50.845905 64.138092
v 24.603930 50.394779 48.957031
v 92.850952 3.249116 55.174896
v 107.921585 27.434116 65.618011
v 83.572334 51.802498 53.039093
v 58.274460 50.814011 38.842560
v 35.653416 50.259911 27.907379
v 79.170113 -30.077156 15.970428
v 84.262543 -7.284727 17.619995
v 105.976181 5.187551 20.023224
v 122.120026 28.606577 23.394440
v 97.386124 51.968575 17.150421
v 67.758400 51.058807 9.148499
v 42.976257 50.344566 3.377502
v 45.223404 50.336834 -22.541290
v 4.625576 50.248116 40.364197
v -15.451364 50.080902 32.562958
v -33.333687 49.985603 23.736877
v 13.685280 49.992054 20.159515
v -7.263725 49.996002 13.362213
v 19.968403 49.992313 -1.460968
v 11.811702 51.160534 -80.959503
v -10.895818 51.193722 -86.023071
v 19.126230 51.642971 -101.846100
v -11.912136 51.709557 -109.404938
v 26.300838 48.507294 -123.819611
v -9.495878 43.837154 -132.487030
v 37.862633 19.806358 -137.971954
v 26.276363 2.264910 -99.274994
v 21.017982 -20.170853 -83.432587
v 22.819618 50.298084 -43.609192
v 3.083551 -66.549385 -29.867462
v -16.153584 -47.625584 -53.725647
v 10.786577 -55.006069 -50.751068
v -34.312862 -26.784447 -67.359100
v -11.434338 -34.417526 -71.835571
v 15.942545 -37.958260 -67.288910
v -101.750832 51.862728 41.797455
v -77.719551 51.230576 30.928558
v -59.049145 50.720482 21.958069
v -61.796410 50.957245 54.432007
v -45.387714 50.349186 38.642609
v -38.132004 50.963425 72.100220
v -26.159222 50.471310 51.377411
v -4.995614 50.694763 59.828217
v -33.318306 51.039711 -82.314209
v -44.589935 51.487644 -102.911469
v -56.900158 43.707256 -124.871796
v -9.588663 16.701933 -148.411163
v -58.404057 14.871124 -129.641418
v -9.643867 -2.955028 -107.705566
v -43.455132 -2.055407 -101.328705
v -9.344871 -21.043289 -89.648682
v -39.540623 -18.942604 -85.431519
v -64.007973 50.967033 0.687439
v -84.726425 51.567135 3.130554
v -109.822784 50.113674 6.159149
v -63.868782 50.995155 -22.679962
v -86.570480 51.729050 -25.720825
v -60.141945 50.910583 -46.464050
v -26.736721 50.021458 6.490997
v -22.290791 50.021889 -12.467804
v -18.314693 50.095459 -31.701111
v -14.239445 50.371384 -50.028351
v -1.640676 49.998238 -6.643311
v 2.053883 50.035141 -26.666290
v 4.346082 50.317299 -45.785492
v 22.997252 50.018150 -23.377960
v -135.903412 24.790716 15.629974
v -110.823303 47.710503 -27.478912
v -138.765564 24.152481 -26.533234
v -96.321373 -0.840257 -22.443970
v -85.725235 51.745903 -56.137756
v -107.349579 43.504204 -63.732300
v -122.254219 22.761124 -68.007782
v -84.067322 4.701311 -53.507111
v -67.964417 -11.552695 -48.708008
v -50.104546 50.798630 -67.640259
v -70.540771 51.464546 -83.522980
v -80.847992 41.459229 -94.967834
v -94.831528 17.790754 -107.042206
v -66.287682 5.260523 -80.087860
v -57.185875 -12.523005 -70.147736
v -72.218048 -14.306329 -21.668396
v 67.690933 -33.013161 37.265106
v 47.134468 -38.488327 53.662689
v 73.533173 -11.334558 43.165283
v 54.780178 -20.022270 65.780487
v 22.038269 -18.346746 75.612213
v -12.495287 -22.252789 81.716339
v -47.181190 -22.071058 73.651459
v 68.556534 -3.517931 84.879669
v 29.121983 -3.180541 101.677216
v -14.164268 -2.937335 104.598907
v -56.091450 -3.498859 95.958954
v -89.467949 2.556239 73.901611
v 84.205879 27.050369 101.270844
v 34.208916 20.893616 129.442047
v -15.584289 19.616104 128.751740
v -61.945076 21.785583 111.195312
v 27.442947 51.921658 106.467438
v -13.062173 52.008392 109.876312
v 18.953423 51.240147 80.779938
v 35.143684 -61.919422 18.783997
v 15.505039 -64.259010 23.029724
v 61.219387 -49.606342 26.603333
v 40.970844 -52.985073 37.076599
v 17.081917 -55.904633 43.035492
v -9.715904 -61.386154 45.622040
v 19.047588 -39.463448 60.765656
v -10.938919 -43.481419 65.497772
v -41.798363 -41.331203 56.924316
v -75.828735 -16.304260 53.079559
v -129.069534 28.060566 45.037506
v -84.099831 51.792938 73.680725
v 59.447975 -30.064610 -29.270111
v 76.303764 -30.559980 -7.525787
v 49.056763 -14.579336 -64.329712
v 71.900742 -13.368633 -40.991791
v 83.855118 -10.485949 -12.932556
v 60.431896 7.196084 -80.856689
v 93.168625 4.213143 -57.230011
v 106.389877 7.465798 -18.991821
v 113.712547 35.898132 -71.735352
v 122.692581 31.220978 -23.109467
v 87.717064 51.864532 -64.114929
v 98.963913 51.650307 -23.500916
v 69.402245 51.099899 -23.062317
v 42.016247 -35.110016 -51.339935
v 64.124100 -45.256111 -0.963928
v 52.849815 -47.882580 -19.971893
v 34.544746 -51.366005 -37.240326
v 42.780846 -61.447487 -8.185577
v 27.242144 -65.894508 -22.833008
v -53.330357 -24.382568 -47.092224
v -58.777557 -32.035427 -26.059479
v -56.753838 -37.657700 -0.988068
v -74.158333 -24.034014 8.063141
v -61.549736 -31.426817 35.486389
v -52.159569 -46.329811 20.337585
v -31.767891 -66.434387 15.702423
v -42.390282 -51.042099 -6.798706
v -26.735819 -66.101425 -7.948151
v -42.101822 -46.374489 -30.172363
v -36.893482 -57.900982 37.512482
v -6.771632 -70.115448 21.734314
v 6.476508 50.742214 -63.618530
v -10.758484 50.782543 -67.423035
v -45.041214 50.369526 1.034668
v -42.688389 50.275028 -18.178040
v -38.703388 50.257355 -38.108765
v -32.571644 50.445942 -56.020386
v -23.990059 -61.841957 -34.003815
v -36.622673 -35.573074 -49.923645
v -100.088882 26.335808 81.244720
v -53.695580 51.821476 97.092499
v -9.858367 51.282112 82.206635
v 14.991098 -67.959969 8.216034
v -44.317196 -55.629223 9.613312
v 20.200195 -73.138084 -8.487854
v 71.211670 -43.384949 14.274902
v -45.993519 50.380241 15.773163
v -112.903610 5.641951 52.937592
v 13.034109 50.782345 63.569916
v -25.609203 50.758770 -68.833252
v -102.782806 -8.358377 20.829468
v -48.748604 -20.848457 -61.961090
v -0.860889 -72.034225 -4.109406
v 20.344147 50.612839 -58.709686
vt 0.840932 0.288683
vt 0.839033 0.323133
vt 0.800358 0.312334
vt 0.813148 0.286331
vt 0.877087 0.282847
vt 0.881448 0.320253
vt 0.835901 0.261875
vt 0.862855 0.244530
vt 0.798791 0.249892
vt 0.918380 0.315229
vt 0.916839 0.348855
vt 0.335355 0.186176
vt 0.914974 0.271224
vt 0.357438 0.215319
vt 0.625033 0.824809
vt 0.610765 0.865487
vt 0.557516 0.831804
vt 0.585133 0.803914
vt 0.673032 0.831195
vt 0.672618 0.878267
vt 0.632249 0.788186
vt 0.670886 0.787945
vt 0.603397 0.783701
vt 0.520837 0.781560
vt 0.560830 0.767536
vt 0.593875 0.756963
vt 0.672748 0.935656
vt 0.592355 0.914746
vt 0.521719 0.865718
vt 0.478275 0.794890
vt 0.040284 0.149027
vt 0.005539 0.263506
vt 0.574068 0.972957
vt 0.155858 0.124891
vt 0.111101 0.194688
vt 0.088930 0.273286
vt 0.879214 0.857730
vt 0.487326 0.056449
vt 0.399829 0.021010
vt 0.821498 0.901262
vt 0.919022 0.787870
vt 0.991528 0.807312
vt 0.839457 0.820383
vt 0.869334 0.774308
vt 0.791984 0.853323
vt 0.769502 0.810192
vt 0.809088 0.787536
vt 0.836190 0.764237
vt 0.753575 0.767942
vt 0.791601 0.749341
vt 0.828163 0.729736
vt 0.381750 0.074409
vt 0.449905 0.117641
vt 0.304329 0.064042
vt 0.302263 0.009248
vt 0.365980 0.120732
vt 0.309245 0.108953
vt 0.416743 0.158169
vt 0.752243 0.929998
vt 0.735003 0.873402
vt 0.722768 0.825665
vt 0.712612 0.781175
vt 0.310415 0.148419
vt 0.957773 0.315785
vt 0.248423 0.128972
vt 0.353451 0.158058
vt 0.225395 0.079442
vt 0.202987 0.028875
vt 0.739760 0.727493
vt 0.775891 0.710782
vt 0.811200 0.689347
vt 0.758490 0.676359
vt 0.786448 0.652520
vt 0.726010 0.689819
vt 0.742980 0.651952
vt 0.754402 0.626359
vt 0.715015 0.654311
vt 0.701982 0.739290
vt 0.690224 0.699220
vt 0.664075 0.747255
vt 0.506016 0.722652
vt 0.550943 0.724110
vt 0.586396 0.723797
vt 0.519510 0.660884
vt 0.557959 0.681081
vt 0.583496 0.695188
vt 0.458274 0.726863
vt 0.477180 0.639834
vt 0.008856 0.368543
vt 0.069037 0.464582
vt 0.092769 0.352971
vt 0.137361 0.283501
vt 0.139434 0.343830
vt 0.159233 0.219059
vt 0.200623 0.239536
vt 0.897840 0.147508
vt 0.852935 0.109274
vt 0.627791 0.752351
vt 0.830221 0.210877
vt 0.865434 0.180266
vt 0.897518 0.223895
vt 0.791666 0.177609
vt 0.824699 0.142560
vt 0.760829 0.216507
vt 0.784244 0.116497
vt 0.807423 0.085498
vt 0.754715 0.152389
vt 0.160426 0.399556
vt 0.775882 0.073911
vt 0.194112 0.433980
vt 0.750760 0.094482
vt 0.792320 0.543463
vt 0.466829 0.549602
vt 0.538174 0.475602
vt 0.853343 0.577771
vt 0.723050 0.527830
vt 0.404383 0.573962
vt 0.771276 0.589944
vt 0.717734 0.576854
vt 0.816208 0.620493
vt 0.713699 0.617317
vt 0.850202 0.665699
vt 0.897492 0.635612
vt 0.922998 0.711461
vt 0.870503 0.719201
vt 0.552081 0.608944
vt 0.584465 0.647518
vt 0.607387 0.681019
vt 0.523959 0.585210
vt 0.130112 0.534406
vt 0.122949 0.420792
vt 0.172076 0.468345
vt 0.669097 0.618442
vt 0.662074 0.574307
vt 0.678617 0.659617
vt 0.657196 0.526564
vt 0.654074 0.455830
vt 0.623974 0.626920
vt 0.603468 0.578034
vt 0.641002 0.668257
vt 0.586115 0.534932
vt 0.653923 0.707741
vt 0.619342 0.716403
vt 0.392511 0.485146
vt 0.463310 0.494980
vt 0.303744 0.502615
vt 0.567245 0.488725
vt 0.233710 0.494560
vt 0.294572 0.451979
vt 0.353770 0.434088
vt 0.239509 0.450973
vt 0.718034 0.129875
vt 0.691576 0.177029
vt 0.389749 0.189979
vt 0.415727 0.235469
vt 0.373313 0.253448
vt 0.457389 0.214185
vt 0.506384 0.186251
vt 0.533685 0.273305
vt 0.478545 0.280950
vt 0.433322 0.287249
vt 0.527350 0.363122
vt 0.473934 0.352801
vt 0.429068 0.344913
vt 0.445476 0.418976
vt 0.401871 0.395895
vt 0.499075 0.441704
vt 0.994693 0.702012
vt 0.956682 0.603133
vt 0.391163 0.295464
vt 0.764025 0.285617
vt 0.387365 0.339545
vt 0.729961 0.249241
vt 0.679821 0.225252
vt 0.954053 0.258630
vt 0.198444 0.166335
vt 0.728075 0.191917
vt 0.710476 0.221235
vt 0.105635 0.067753
vt 0.674369 0.996544
vt 0.583867 0.375429
vt 0.884939 0.527320
vt 0.595737 0.263062
vt 0.569193 0.154397
vt 0.482836 0.543403
vt 0.222172 0.578978
vt 0.316057 0.595222
vt 0.741515 0.458216
vt 0.426348 0.615889
vt 0.802598 0.474012
vt 0.398665 0.723940
vt 0.418729 0.825005
vt 0.771081 0.994180
vt 0.857183 0.961605
vt 0.928624 0.909383
vt 0.485461 0.921126
vt 0.327081 0.397441
vt 0.364621 0.375553
vt 0.231777 0.196219
vt 0.935230 0.201171
vt 0.269014 0.161819
vt 0.693489 0.278224
vt 0.733269 0.323545
vt 0.784160 0.350782
vt 0.834641 0.363094
vt 0.282630 0.412804
vt 0.239439 0.413296
vt 0.208764 0.412026
vt 0.193338 0.383164
vt 0.177808 0.339215
vt 0.178340 0.289497
vt 0.944501 0.361617
vt 0.310590 0.173225
vt 0.882927 0.361808
vn 0.279325 -0.952674 0.119955
vn 0.255832 -0.930113 0.263515
vn 0.202840 -0.931622 0.301555
vn 0.166499 -0.961290 0.219543
vn 0.515128 -0.831300 -0.208765
vn 0.492205 -0.870210 0.021643
vn 0.162649 -0.983594 -0.078034
vn 0.333853 -0.867346 -0.369125
vn -0.072054 -0.994400 -0.077307
vn 0.695382 -0.666203 -0.269478
vn 0.769771 -0.635354 0.061463
vn 0.556332 -0.750599 0.356504
vn 0.636283 -0.651860 -0.412580
vn 0.312838 -0.810836 0.494649
vn -0.016467 0.999782 0.012803
vn -0.023255 0.999639 0.013429
vn -0.012682 0.999906 -0.005133
vn -0.005483 0.999734 0.022406
vn -0.022687 0.999740 0.002370
vn -0.026076 0.999659 0.001446
vn -0.004986 0.999870 0.015303
vn -0.007451 0.999959 0.005105
vn -0.001505 0.999738 0.022842
vn -0.005457 0.996438 -0.084152
vn -0.002034 0.999733 0.023028
vn -0.001778 0.999728 0.023256
vn 0.395795 0.918151 -0.018581
vn 0.347949 0.920757 -0.176462
vn 0.299002 0.837286 -0.457767
vn 0.186946 0.746500 -0.638584
vn 0.652073 -0.235411 -0.720682
vn 0.389378 -0.408837 -0.825371
vn 0.893868 0.038535 -0.446672
vn 0.588861 -0.738412 -0.328620
vn 0.411263 -0.804564 -0.428415
vn 0.293297 -0.836792 -0.462338
vn 0.318253 0.860077 0.398726
vn 0.658428 0.073849 0.749012
vn 0.882026 0.151652 0.446130
vn 0.385876 0.900029 0.202600
vn 0.150389 0.801086 0.579348
vn 0.268706 -0.058473 0.961446
vn -0.016353 0.999624 -0.022034
vn -0.003920 0.999618 -0.027380
vn -0.027115 0.999584 -0.009838
vn -0.016652 0.999838 -0.006918
vn -0.007389 0.999819 -0.017535
vn -0.000056 0.999669 -0.025746
vn -0.005302 0.999970 -0.005701
vn -0.001491 0.999867 -0.016237
vn -0.000324 0.999698 -0.024583
vn 0.667246 -0.685592 0.291112
vn 0.454112 -0.727903 0.513750
vn 0.717734 -0.689715 0.095664
vn 0.968386 0.178279 0.174484
vn 0.663408 -0.689692 0.290197
vn 0.718746 -0.686853 0.107876
vn 0.396731 -0.757415 0.518581
vn 0.421660 0.902330 0.089468
vn -0.027934 0.999602 -0.003837
vn -0.022340 0.999749 -0.001688
vn -0.007774 0.999970 -0.000585
vn 0.910489 -0.384638 0.151867
vn 0.822115 -0.505250 -0.262394
vn 0.691272 -0.710148 -0.133537
vn 0.732652 -0.486083 0.476387
vn 0.727874 -0.677081 -0.108450
vn 0.985831 0.128184 -0.108196
vn -0.000148 0.999996 -0.002780
vn 0.000557 0.999907 -0.013649
vn 0.003901 0.999745 -0.022238
vn 0.010454 0.999927 -0.006011
vn 0.017488 0.999764 -0.012925
vn 0.007646 0.999971 0.000711
vn 0.026761 0.999637 0.003132
vn 0.029030 0.999578 0.000417
vn 0.025010 0.999686 0.001830
vn 0.000656 0.999999 0.001206
vn 0.006572 0.999977 0.001779
vn 0.000016 0.999970 0.007799
vn -0.026127 0.983395 -0.179589
vn -0.003072 0.999744 0.022399
vn -0.003152 0.999736 0.022766
vn -0.105615 0.976486 -0.187938
vn 0.002936 0.999752 0.022066
vn -0.001205 0.999745 0.022530
vn -0.050312 0.658303 -0.751069
vn -0.358312 0.614132 -0.703175
vn -0.004880 -0.421702 -0.906722
vn -0.423210 -0.450877 -0.785877
vn 0.040095 -0.853226 -0.519997
vn 0.341754 -0.662414 -0.666643
vn 0.012282 -0.731999 -0.681195
vn 0.486714 -0.673145 -0.556762
vn 0.547902 -0.640291 -0.538360
vn 0.261774 -0.715846 -0.647332
vn -0.129050 -0.782452 -0.609192
vn -0.001120 0.999837 0.018023
vn -0.014517 -0.914401 -0.404550
vn 0.143571 -0.791941 -0.593478
vn 0.484694 -0.716391 -0.501853
vn -0.370411 -0.837090 -0.402587
vn -0.266227 -0.752554 -0.602316
vn -0.379141 -0.914004 -0.144394
vn -0.528241 -0.679926 -0.508588
vn -0.389018 -0.803389 -0.450811
vn -0.638723 -0.690068 -0.340351
vn -0.365244 -0.746328 -0.556409
vn -0.528273 -0.787703 -0.316940
vn -0.618800 -0.680198 -0.392960
vn -0.626091 -0.690720 -0.361825
vn -0.441259 0.874665 0.200629
vn -0.925816 0.157372 0.343657
vn -0.698368 0.152675 0.699266
vn -0.400066 0.814759 0.419661
vn -0.477587 0.878345 0.020513
vn -0.986643 -0.161870 0.018269
vn 0.011411 0.999895 -0.008891
vn -0.028611 0.999501 -0.013357
vn 0.020596 0.999663 -0.015811
vn 0.030710 0.999524 0.002793
vn 0.008063 0.999645 -0.025410
vn -0.281518 0.777175 0.562802
vn -0.096556 0.769614 0.631167
vn 0.000682 0.999627 -0.027291
vn -0.188485 0.968863 -0.160555
vn 0.018183 0.999735 0.014115
vn 0.007965 0.999845 0.015705
vn -0.523857 0.685697 -0.505365
vn -0.685362 -0.450763 -0.571920
vn -0.260682 -0.861328 -0.436071
vn -0.417154 -0.871117 -0.259110
vn 0.031612 0.999498 0.002002
vn -0.086966 0.995774 -0.029523
vn 0.022815 0.999738 0.001885
vn -0.522387 0.847941 -0.090044
vn -0.930494 -0.307884 -0.198465
vn 0.028740 0.999574 0.005146
vn -0.165131 0.980896 -0.102835
vn 0.017307 0.999824 0.007213
vn -0.561510 0.760293 -0.326591
vn 0.003162 0.999961 0.008241
vn -0.000897 0.999840 0.017886
vn -0.595055 -0.803415 0.020815
vn -0.670911 -0.648247 0.360076
vn -0.519755 -0.833894 -0.185677
vn -0.807499 -0.396158 -0.437041
vn -0.434313 -0.872267 -0.224771
vn -0.602951 -0.758063 -0.248578
vn -0.594024 -0.800847 -0.076023
vn -0.624456 -0.716387 -0.311198
vn -0.697794 -0.670213 -0.252780
vn -0.726973 -0.678069 -0.108321
vn 0.396658 -0.636253 0.661699
vn 0.209044 -0.654531 0.726561
vn 0.212059 -0.817482 0.535494
vn 0.164434 -0.747042 0.644120
vn 0.187124 -0.758544 0.624176
vn -0.063261 -0.745011 0.664045
vn -0.010743 -0.738441 0.674233
vn -0.016573 -0.686141 0.727280
vn -0.349952 -0.681775 0.642430
vn -0.337107 -0.756244 0.560762
vn -0.432007 -0.715331 0.549247
vn -0.504878 -0.804403 0.313103
vn -0.612548 -0.759759 0.218061
vn -0.556091 -0.646560 0.522228
vn -0.136408 -0.083026 0.987167
vn -0.457896 -0.016034 0.888861
vn -0.027874 -0.848314 0.528759
vn -0.030555 -0.976312 0.214202
vn -0.449491 -0.799727 0.397988
vn -0.380858 -0.919799 0.094426
vn -0.724564 -0.680587 0.108669
vn 0.666878 -0.601878 -0.439337
vn 0.565446 -0.736055 -0.372148
vn -0.686537 -0.708460 -0.163557
vn -0.703865 -0.706338 -0.075242
s 1
g pCube4
usemtl initialShadingGroup
f 1/1/1 113/2/2 114/3/3 167/4/4
f 1/1/1 142/5/5 2/6/6 113/2/2
f 1/1/1 169/7/7 143/8/8 142/5/5
f 1/1/1 167/4/4 177/9/9 169/7/7
f 2/6/6 139/10/10 170/11/11 115/214/12
f 2/6/6 142/5/5 140/13/13 139/10/10
f 2/6/6 115/214/12 116/205/14 113/2/2
f 3/15/15 5/16/16 6/17/17 4/18/18
f 3/15/15 24/19/19 137/20/20 5/16/16
f 3/15/15 40/21/21 77/22/22 24/19/19
f 3/15/15 4/18/18 178/23/23 40/21/21
f 4/18/18 6/17/17 33/24/24 31/25/25
f 4/18/18 31/25/25 156/26/26 178/23/23
f 5/16/16 137/20/20 136/27/27 135/28/28
f 5/16/16 135/28/28 7/29/29 6/17/17
f 6/17/17 7/29/29 35/30/30 33/24/24
f 7/29/29 8/196/31 37/192/32 35/30/30
f 7/29/29 135/28/28 133/33/33 8/196/31
f 8/31/31 133/179/33 131/34/34 130/35/35
f 8/31/31 130/35/35 38/36/36 37/32/32
f 9/37/37 106/195/38 13/194/39 14/40/40
f 9/37/37 110/41/41 107/42/42 106/195/38
f 9/37/37 10/43/43 112/44/44 110/41/41
f 9/37/37 14/40/40 15/45/45 10/43/43
f 10/43/43 15/45/45 16/46/46 11/47/47
f 10/43/43 11/47/47 173/48/48 112/44/44
f 11/47/47 16/46/46 28/49/49 25/50/50
f 11/47/47 25/50/50 54/51/51 173/48/48
f 12/52/52 13/39/39 106/38/38 101/53/53
f 12/52/52 19/54/54 20/55/55 13/39/39
f 12/52/52 96/56/56 18/57/57 19/54/54
f 12/52/52 101/53/53 97/58/58 96/56/56
f 13/194/39 20/193/55 21/59/59 14/40/40
f 14/40/40 21/59/59 22/60/60 15/45/45
f 15/45/45 22/60/60 23/61/61 16/46/46
f 16/46/46 23/61/61 30/62/62 28/49/49
f 17/63/63 126/201/64 129/65/65 18/57/57
f 17/212/63 170/11/11 139/10/10 126/64/64
f 17/63/63 94/66/66 115/12/12 170/213/11
f 17/63/63 18/57/57 96/56/56 94/66/66
f 18/57/57 129/65/65 132/67/67 19/54/54
f 19/54/54 132/67/67 134/68/68 20/55/55
f 20/193/55 134/180/68 136/27/27 21/59/59
f 21/59/59 136/27/27 137/20/20 22/60/60
f 22/60/60 137/20/20 24/19/19 23/61/61
f 23/61/61 24/19/19 77/22/22 30/62/62
f 25/50/50 28/49/49 29/69/69 26/70/70
f 25/50/50 26/70/70 53/71/71 54/51/51
f 26/70/70 27/72/72 51/73/73 53/71/71
f 26/70/70 29/69/69 70/74/74 27/72/72
f 27/72/72 171/75/75 49/76/76 51/73/73
f 27/72/72 70/74/74 158/77/77 171/75/75
f 28/49/49 30/62/62 74/78/78 29/69/69
f 29/69/69 74/78/78 71/79/79 70/74/74
f 30/62/62 77/22/22 75/80/80 74/78/78
f 31/25/25 33/24/24 34/81/81 32/82/82
f 31/25/25 32/82/82 157/83/83 156/26/26
f 32/82/82 34/81/81 56/84/84 55/85/85
f 32/82/82 55/85/85 174/86/86 157/83/83
f 33/24/24 35/30/30 36/87/87 34/81/81
f 34/81/81 36/87/87 57/88/88 56/84/84
f 35/30/30 37/192/32 58/191/89 36/87/87
f 36/87/87 58/191/89 59/189/90 57/88/88
f 37/32/32 38/36/36 60/91/91 58/89/89
f 38/36/36 39/92/92 62/93/93 60/91/91
f 38/36/36 130/35/35 127/94/94 39/92/92
f 39/92/92 127/94/94 138/95/95 46/211/96
f 39/92/92 46/211/96 45/210/97 62/93/93
f 40/21/21 76/98/98 75/80/80 77/22/22
f 40/21/21 178/23/23 156/26/26 76/98/98
f 41/99/99 43/100/100 141/101/101 143/8/8
f 41/99/99 162/102/102 42/103/103 43/100/100
f 41/99/99 177/9/9 152/104/104 162/102/102
f 41/99/99 143/8/8 169/7/7 177/9/9
f 42/103/103 45/97/97 46/96/96 43/100/100
f 42/103/103 163/105/105 44/106/106 45/97/97
f 42/103/103 162/102/102 153/107/107 163/105/105
f 43/100/100 46/96/96 138/200/95 141/101/101
f 44/209/106 63/108/108 62/93/93 45/210/97
f 44/209/106 176/208/109 92/110/110 63/108/108
f 44/106/106 163/105/105 144/111/111 176/109/109
f 47/112/112 123/190/113 164/182/114 124/115/115
f 47/112/112 66/116/116 78/188/117 123/190/113
f 47/112/112 48/118/118 65/119/119 66/116/116
f 47/112/112 124/115/115 50/120/120 48/118/118
f 48/118/118 49/76/76 64/121/121 65/119/119
f 48/118/118 50/120/120 51/73/73 49/76/76
f 49/76/76 171/75/75 158/77/77 64/121/121
f 50/120/120 52/122/122 53/71/71 51/73/73
f 50/120/120 124/115/115 165/123/123 52/122/122
f 52/122/122 165/123/123 111/124/124 166/125/125
f 52/122/122 166/125/125 54/51/51 53/71/71
f 54/51/51 166/125/125 112/44/44 173/48/48
f 55/85/85 56/84/84 88/126/126 87/127/127
f 55/85/85 87/127/127 161/128/128 174/86/86
f 56/84/84 57/88/88 89/129/129 88/126/126
f 57/88/88 59/189/90 90/185/130 89/129/129
f 58/89/89 60/91/91 61/131/131 59/90/90
f 59/90/90 61/131/131 91/132/132 90/130/130
f 60/91/91 62/93/93 63/108/108 61/131/131
f 61/131/131 63/108/108 92/110/110 91/132/132
f 64/121/121 67/133/133 68/134/134 65/119/119
f 64/121/121 158/77/77 159/135/135 67/133/133
f 65/119/119 68/134/134 79/136/136 66/116/116
f 66/116/116 79/136/136 80/137/137 78/188/117
f 67/133/133 69/138/138 82/139/139 68/134/134
f 67/133/133 159/135/135 160/140/140 69/138/138
f 68/134/134 82/139/139 83/141/141 79/136/136
f 69/138/138 87/127/127 88/126/126 82/139/139
f 69/138/138 160/140/140 161/128/128 87/127/127
f 70/74/74 71/79/79 159/135/135 158/77/77
f 71/79/79 74/78/78 75/80/80 72/142/142
f 71/79/79 72/142/142 160/140/140 159/135/135
f 72/142/142 75/80/80 76/98/98 73/143/143
f 72/142/142 73/143/143 161/128/128 160/140/140
f 73/143/143 157/83/83 174/86/86 161/128/128
f 73/143/143 76/98/98 156/26/26 157/83/83
f 78/117/117 175/144/144 172/145/145 123/113/113
f 78/117/117 80/187/137 81/146/146 175/144/144
f 79/136/136 83/141/141 84/147/147 80/137/137
f 80/187/137 84/186/147 85/148/148 81/146/146
f 81/146/146 93/149/149 147/150/150 175/144/144
f 81/146/146 85/148/148 86/151/151 93/149/149
f 82/139/139 88/126/126 89/129/129 83/141/141
f 83/141/141 89/129/129 90/185/130 84/147/147
f 84/186/147 90/130/130 91/132/132 85/148/148
f 85/148/148 91/132/132 92/110/110 86/151/151
f 86/151/151 144/207/111 145/206/152 93/149/149
f 86/151/151 92/110/110 176/208/109 144/207/111
f 93/149/149 145/206/152 146/197/153 147/150/150
f 94/66/66 96/56/56 97/58/58 95/154/154
f 94/66/66 95/154/154 116/14/14 115/12/12
f 95/154/154 119/155/155 117/156/156 116/14/14
f 95/154/154 97/58/58 98/157/157 119/155/155
f 97/58/58 101/53/53 102/158/158 98/157/157
f 98/157/157 102/158/158 103/159/159 99/160/160
f 98/157/157 99/160/160 120/161/161 119/155/155
f 99/160/160 103/159/159 104/162/162 100/163/163
f 99/160/160 100/163/163 121/164/164 120/161/161
f 100/163/163 122/165/165 148/166/166 121/164/164
f 100/163/163 104/162/162 105/167/167 122/165/165
f 101/53/53 106/38/38 107/184/42 102/158/158
f 102/158/158 107/184/42 108/183/168 103/159/159
f 103/159/159 108/183/168 109/181/169 104/162/162
f 104/162/162 109/181/169 164/114/114 105/167/167
f 105/167/167 164/114/114 123/113/113 172/145/145
f 105/167/167 172/145/145 175/144/144 122/165/165
f 107/42/42 110/41/41 111/124/124 108/168/168
f 108/168/168 111/124/124 165/123/123 109/169/169
f 109/169/169 165/123/123 124/115/115 164/182/114
f 110/41/41 112/44/44 166/125/125 111/124/124
f 113/2/2 116/205/14 117/204/156 114/3/3
f 114/3/3 117/204/156 118/203/170 155/171/171
f 114/3/3 155/171/171 177/9/9 167/4/4
f 117/156/156 119/155/155 120/161/161 118/170/170
f 118/170/170 120/161/161 121/164/164 154/172/172
f 118/203/170 154/202/172 150/173/173 155/171/171
f 121/164/164 148/166/166 149/198/174 154/172/172
f 122/165/165 175/144/144 147/150/150 148/166/166
f 125/175/175 126/64/64 139/10/10 140/13/13
f 125/199/175 128/176/176 129/65/65 126/201/64
f 125/199/175 138/95/95 127/94/94 128/176/176
f 125/175/175 140/13/13 141/101/101 138/200/95
f 127/94/94 130/35/35 131/34/34 128/176/176
f 128/176/176 131/34/34 132/67/67 129/65/65
f 131/34/34 133/179/33 134/68/68 132/67/67
f 133/33/33 135/28/28 136/27/27 134/180/68
f 140/13/13 142/5/5 143/8/8 141/101/101
f 144/111/111 163/105/105 153/107/107 145/152/152
f 145/152/152 153/107/107 151/177/177 146/153/153
f 146/197/153 149/198/174 148/166/166 147/150/150
f 146/153/153 151/177/177 168/178/178 149/174/174
f 149/174/174 168/178/178 150/173/173 154/202/172
f 150/173/173 152/104/104 177/9/9 155/171/171
f 150/173/173 168/178/178 151/177/177 152/104/104
f 151/177/177 153/107/107 162/102/102 152/104/104
