# This file uses meters as units for non-parametric coordinates.

mtllib Running_Wall_Wider.mtl
g default
v -0.113805 -1.294900 0.113805
v -0.113805 -1.219043 0.189662
v -0.189662 -1.219043 0.113805
v 0.189662 -1.219043 0.113805
v 0.113805 -1.219043 0.189662
v 0.113805 -1.294900 0.113805
v -0.368357 1.174260 0.209061
v -0.250263 1.520743 0.302637
v 0.011038 1.900874 0.004341
v 0.229341 0.963393 0.500000
v 0.358975 1.457016 0.300020
v -0.500000 0.656236 -0.300020
v -0.300020 1.282856 -0.382643
v 0.124409 1.553501 -0.425812
v 0.352454 1.386667 -0.339359
v -0.189662 -1.219043 -0.113805
v -0.113805 -1.219043 -0.189662
v -0.113805 -1.294900 -0.113805
v 0.113805 -1.294900 -0.113805
v 0.113805 -1.219043 -0.189662
v 0.189662 -1.219043 -0.113805
v -0.014585 -1.294900 0.113805
v -0.014585 -1.219043 0.189662
v -0.003858 1.252894 0.500000
v -0.038450 0.774617 -0.500000
v -0.014585 -1.219043 -0.189662
v -0.014585 -1.294900 -0.113805
v -0.189662 -1.219043 0.002635
v -0.113805 -1.294900 0.002635
v -0.014585 -1.294900 0.002635
v 0.113805 -1.294900 0.002635
v 0.189662 -1.219043 0.002635
v 0.500000 0.903383 -0.024075
v -0.440260 0.796556 0.006945
v -0.248975 0.242224 0.169633
v -0.513380 0.537705 0.188796
v -0.262757 -0.277838 0.005555
v -0.399896 0.323747 -0.239954
v -0.239954 0.195235 -0.333891
v -0.030752 -0.150987 -0.281614
v 0.235534 -0.324490 -0.358171
v 0.226987 0.253621 -0.082541
v 0.525925 0.184729 -0.011892
v 0.320580 0.293188 0.239954
v 0.104883 0.015560 0.306110
v -0.011297 -0.206431 0.485934
vt 0.457723 0.079252
vt 0.484898 0.084300
vt 0.479666 0.112461
vt 0.452491 0.107412
vt 0.462772 0.052077
vt 0.432590 0.074582
vt 0.437638 0.047408
vt 0.600161 0.323772
vt 0.625262 0.312734
vt 0.749508 0.664953
vt 0.715629 0.756319
vt 0.372893 0.063491
vt 0.400067 0.068540
vt 0.394835 0.096700
vt 0.367661 0.091651
vt 0.444363 0.304670
vt 0.471693 0.301596
vt 0.514978 0.684137
vt 0.458270 0.615845
vt 0.356447 0.238814
vt 0.263883 0.435830
vt 0.318818 0.133416
vt 0.571772 0.037946
vt 0.695190 0.107219
vt 0.687280 0.213594
vt 0.946955 0.037440
vt 0.933678 0.200966
vt 0.778797 0.269161
vt 0.590213 0.732462
vt 0.541461 0.700550
vt 0.514082 0.337187
vt 0.541404 0.334670
vt 0.832121 0.360749
vt 0.797417 0.562027
vt 0.729101 0.251254
vt 0.240764 0.504300
vt 0.181993 0.649807
vt 0.160005 0.288797
vt 0.185853 0.283421
vt 0.447011 0.136907
vt 0.441962 0.164082
vt 0.416829 0.159412
vt 0.421878 0.132238
vt 0.385368 0.304717
vt 0.411477 0.306268
vt 0.400242 0.570220
vt 0.290544 0.667291
vt 0.957345 0.647368
vt 0.904780 0.559133
vt 0.900483 0.289093
vt 0.925583 0.289103
vt 0.427358 0.102743
vt 0.103788 0.288017
vt 0.130968 0.291163
vt 0.107661 0.642935
vt 0.026808 0.663544
vt 0.618724 0.566709
vt 0.571455 0.329079
vt 0.483781 0.070037
vt 0.379058 0.050580
vt 0.405116 0.041365
vt 0.364067 0.335860
vt 0.655627 0.303990
vt 0.558495 0.201472
vt 0.247909 0.080779
vt 0.195546 0.243353
vt 0.801612 0.042027
vt 0.782647 0.115757
vt 0.468021 0.154867
vt 0.389356 0.126195
vt 0.384307 0.153370
vt 0.363297 0.135410
vt 0.699031 0.454950
vt 0.832924 0.518886
vt 0.867989 0.289091
vt 0.474186 0.141956
vt 0.362181 0.121147
vt 0.838380 0.987264
vt 0.781586 0.908083
vt 0.686139 0.833657
vt 0.600125 0.823352
vt 0.534834 0.979999
vt 0.984858 0.921323
vt 0.903488 0.798611
vt 0.853238 0.994046
vt 0.277550 0.966479
vt 0.211151 0.934751
vt 0.125158 0.813128
vt 0.055065 0.960970
vt 0.516972 0.976523
vt 0.452253 0.857268
vt 0.388558 0.928107
vt 0.308395 0.993621
vn -0.707106 -0.707107 0.000000
vn -0.707106 -0.707107 0.000000
vn -0.707106 -0.707107 0.000000
vn -0.707106 -0.707107 0.000000
vn 0.000000 -0.707107 0.707106
vn 0.000000 -0.926679 0.375855
vn 0.000000 -0.926679 0.375855
vn 0.000000 -0.707107 0.707106
vn -0.202581 -0.045595 0.978203
vn -0.550276 -0.088744 0.830254
vn -0.584502 -0.048827 0.809922
vn -0.187309 -0.060054 0.980464
vn 0.701113 -0.701115 0.129919
vn 0.274315 -0.910666 0.308931
vn 0.348162 -0.937434 0.000000
vn 0.707106 -0.707108 0.000000
vn 0.509759 -0.098126 0.854703
vn 0.725263 -0.135242 0.675058
vn 0.800400 -0.097104 0.591550
vn 0.576566 -0.107498 0.809948
vn -0.868459 0.356351 -0.344663
vn -0.928752 0.365617 -0.061180
vn -0.924638 0.377755 -0.048435
vn 0.079775 0.534951 0.841109
vn 0.023658 0.607049 0.794312
vn 0.494917 0.520729 0.695628
vn 0.867570 0.482673 -0.119790
vn 0.835947 0.419844 -0.353446
vn 0.896878 0.440705 -0.037282
vn -0.429299 -0.121206 -0.894993
vn -0.436624 -0.133871 -0.889628
vn -0.324237 -0.126360 -0.937499
vn -0.628073 -0.141412 -0.765197
vn 0.335887 0.372619 -0.865064
vn -0.460533 0.379554 -0.802402
vn -0.180647 0.408573 -0.894670
vn 0.625908 -0.118883 -0.770783
vn 0.756739 -0.085598 -0.648089
vn 0.994753 -0.071102 -0.073553
vn 0.606508 -0.142610 -0.782183
vn 0.000000 -0.930237 -0.366960
vn 0.000000 -0.707107 -0.707106
vn 0.000000 -0.707107 -0.707106
vn 0.000000 -0.930237 -0.366960
vn -0.550276 -0.088744 0.830254
vn -0.293614 -0.166711 0.941275
vn -0.351865 -0.130155 0.926958
vn -0.584502 -0.048827 0.809922
vn -0.436624 -0.133871 -0.889628
vn -0.028400 -0.101889 -0.994390
vn 0.066581 -0.090723 -0.993648
vn -0.324237 -0.126360 -0.937499
vn 0.000000 -1.000000 0.000000
vn 0.000000 -1.000000 0.000000
vn 0.000000 -0.926679 0.375855
vn 0.000000 -0.926679 0.375855
vn 0.725263 -0.135242 0.675058
vn 0.839470 -0.154437 0.520999
vn 0.844479 -0.098331 0.526485
vn 0.800400 -0.097104 0.591550
vn -0.919583 -0.021726 -0.392295
vn -0.896523 -0.111800 -0.428657
vn -0.894257 -0.119068 -0.431424
vn -0.894257 -0.119068 -0.431424
vn -0.701113 -0.701115 0.129919
vn -0.577349 -0.577351 0.577351
vn -0.701113 -0.701115 0.129919
vn 0.701113 -0.701115 0.129919
vn 0.115567 -0.702370 0.702368
vn 0.274315 -0.910666 0.308931
vn -0.868459 0.356351 -0.344663
vn -0.879605 0.377853 -0.289001
vn -0.928752 0.365617 -0.061180
vn 0.079775 0.534951 0.841109
vn 0.268088 0.498346 0.824488
vn -0.220148 0.415382 0.882606
vn -0.928555 0.365712 0.063567
vn -0.928752 0.365617 -0.061180
vn -0.919656 0.322962 0.223446
vn 0.635723 0.673819 -0.376595
vn 0.867570 0.482673 -0.119790
vn 0.866563 0.476768 0.147517
vn -0.701545 -0.701547 -0.125166
vn -0.577349 -0.577351 -0.577351
vn -0.701545 -0.701547 -0.125166
vn 0.276899 -0.912786 -0.300247
vn 0.115567 -0.702370 -0.702368
vn 0.701545 -0.701547 -0.125166
vn 0.000000 -0.707107 0.707106
vn 0.000000 -0.926679 0.375855
vn 0.274315 -0.910666 0.308931
vn 0.115567 -0.702370 0.702368
vn 0.494070 -0.109335 0.862520
vn -0.351865 -0.130155 0.926958
vn -0.293614 -0.166711 0.941275
vn 0.662932 -0.133631 0.736657
vn 0.079775 0.534951 0.841109
vn 0.494917 0.520729 0.695628
vn 0.268088 0.498346 0.824488
vn -0.180647 0.408573 -0.894670
vn -0.460533 0.379554 -0.802402
vn -0.882571 0.223918 -0.413437
vn -0.237731 -0.115210 -0.964474
vn 0.041357 -0.101295 -0.993997
vn 0.625908 -0.118883 -0.770783
vn 0.606508 -0.142610 -0.782183
vn 0.000000 -0.930237 -0.366960
vn 0.000000 -0.707107 -0.707106
vn 0.115567 -0.702370 -0.702368
vn 0.276899 -0.912786 -0.300247
vn 0.000000 -0.926679 0.375855
vn 0.000000 -1.000000 0.000000
vn 0.348162 -0.937434 0.000000
vn 0.274315 -0.910666 0.308931
vn -0.707106 -0.707108 0.000000
vn -0.707106 -0.707108 0.000000
vn -0.701545 -0.701547 -0.125166
vn -0.701545 -0.701547 -0.125166
vn 0.000000 -0.930237 -0.366960
vn 0.000000 -0.930237 -0.366960
vn 0.000000 -1.000000 0.000000
vn 0.000000 -1.000000 0.000000
vn 0.348162 -0.937434 0.000000
vn 0.000000 -1.000000 0.000000
vn 0.000000 -0.930237 -0.366960
vn 0.276899 -0.912786 -0.300247
vn 0.707106 -0.707108 0.000000
vn 0.348162 -0.937434 0.000000
vn 0.276899 -0.912786 -0.300247
vn 0.701545 -0.701547 -0.125166
vn 0.756739 -0.085598 -0.648089
vn 0.526591 -0.102717 -0.843891
vn 0.519095 -0.062459 -0.852432
vn 0.519095 -0.062459 -0.852432
vn 0.867570 0.482673 -0.119790
vn 0.896878 0.440705 -0.037282
vn 0.866563 0.476768 0.147517
vn -0.924638 0.377755 -0.048435
vn -0.928752 0.365617 -0.061180
vn -0.928555 0.365712 0.063567
vn -0.974347 -0.101163 0.201031
vn -0.974347 -0.101163 0.201031
vn -0.973545 -0.110487 0.200005
vn -0.965750 -0.173973 0.192513
vn -0.187309 -0.060054 0.980464
vn -0.584502 -0.048827 0.809922
vn -0.696952 -0.038476 0.716085
vn -0.182223 -0.064845 0.981117
vn -0.921411 -0.012576 -0.388387
vn -0.896523 -0.111800 -0.428657
vn -0.919583 -0.021726 -0.392295
vn -0.921411 -0.012576 -0.388387
vn -0.965750 -0.173973 0.192513
vn -0.973545 -0.110487 0.200005
vn -0.964419 -0.182314 0.191463
vn -0.964419 -0.182314 0.191463
vn -0.313758 -0.107675 -0.943378
vn -0.352218 -0.125624 -0.927449
vn -0.436624 -0.133871 -0.889628
vn -0.429299 -0.121206 -0.894993
vn -0.352218 -0.125624 -0.927449
vn -0.370985 -0.134412 -0.918860
vn -0.028400 -0.101889 -0.994390
vn -0.436624 -0.133871 -0.889628
vn 0.625908 -0.118883 -0.770783
vn 0.041357 -0.101295 -0.993997
vn 0.128902 -0.095240 -0.987073
vn 0.764562 -0.069729 -0.640768
vn 0.764562 -0.069729 -0.640768
vn 0.841733 -0.070588 -0.535260
vn 0.756739 -0.085598 -0.648089
vn 0.625908 -0.118883 -0.770783
vn 0.534190 -0.149587 -0.832024
vn 0.526591 -0.102717 -0.843891
vn 0.756739 -0.085598 -0.648089
vn 0.841733 -0.070588 -0.535260
vn 0.800400 -0.097104 0.591550
vn 0.844479 -0.098331 0.526485
vn 0.846944 -0.019126 0.531337
vn 0.819907 -0.066710 0.568597
vn 0.576566 -0.107498 0.809948
vn 0.800400 -0.097104 0.591550
vn 0.819907 -0.066710 0.568597
vn 0.775150 -0.134031 0.617396
vn -0.657107 -0.046065 0.752388
vn -0.351865 -0.130155 0.926958
vn 0.494070 -0.109335 0.862520
vn 0.439759 -0.101191 0.892397
vn -0.584502 -0.048827 0.809922
vn -0.351865 -0.130155 0.926958
vn -0.657107 -0.046065 0.752388
vn -0.696952 -0.038476 0.716085
s off
g Running_Wall_Wider:pCube1
usemtl initialShadingGroup
f 1/1/1 3/2/2 28/3/3 29/4/4
f 2/5/5 1/1/6 22/6/7 23/7/8
f 3/8/9 2/9/10 35/10/11 36/11/12
f 4/12/13 6/13/14 31/14/15 32/15/16
f 5/16/17 4/17/18 44/18/19 45/19/20
f 7/20/21 9/21/22 34/22/23
f 9/23/24 8/24/25 24/25/26
f 9/26/27 11/27/28 33/28/29
f 38/29/30 39/30/31 17/31/32 16/32/33
f 13/33/34 9/34/35 25/35/36
f 41/36/37 42/37/38 21/38/39 20/39/40
f 18/40/41 17/41/42 26/42/43 27/43/44
f 2/44/45 23/45/46 46/46/47 35/47/48
f 39/48/49 40/49/50 26/50/51 17/51/52
f 29/4/53 30/52/54 22/6/55 1/1/56
f 4/53/57 32/54/58 43/55/59 44/56/60
f 36/11/61 37/57/62 28/58/63 3/8/64
f 1/1/65 2/5/66 3/59/67
f 4/60/68 5/61/69 6/13/70
f 7/20/71 8/62/72 9/21/73
f 9/23/74 10/63/75 11/64/76
f 12/65/77 9/21/78 13/66/79
f 14/67/80 9/26/81 15/68/82
f 16/69/83 17/41/84 18/40/85
f 19/70/86 20/71/87 21/72/88
f 23/7/89 22/6/90 6/13/91 5/61/92
f 45/19/93 46/46/94 23/45/95 5/16/96
f 9/23/97 24/25/98 10/63/99
f 25/35/100 9/34/101 14/73/102
f 26/50/103 40/49/104 41/74/105 20/75/106
f 27/43/107 26/42/108 20/71/109 19/70/110
f 22/6/111 30/52/112 31/14/113 6/13/114
f 29/4/115 28/3/116 16/76/117 18/40/118
f 18/40/119 27/43/120 30/52/121 29/4/122
f 31/14/123 30/52/124 27/43/125 19/70/126
f 32/15/127 31/14/128 19/70/129 21/77/130
f 42/37/131 43/55/132 32/54/133 21/38/134
f 9/26/135 33/28/136 15/68/137
f 34/22/138 9/21/139 12/65/140
f 16/32/141 28/58/142 37/57/143 38/29/144
f 36/11/145 35/10/146 8/78/147 7/79/148
f 34/80/149 37/57/150 36/11/151 7/79/152
f 38/29/153 37/57/154 34/80/155 12/81/156
f 12/81/157 13/82/158 39/30/159 38/29/160
f 13/83/161 25/84/162 40/49/163 39/48/164
f 41/74/165 40/49/166 25/84/167 14/85/168
f 14/86/169 15/87/170 42/37/171 41/36/172
f 33/88/173 43/55/174 42/37/175 15/87/176
f 44/56/177 43/55/178 33/88/179 11/89/180
f 45/19/181 44/18/182 11/90/183 10/91/184
f 24/92/185 46/46/186 45/19/187 10/91/188
f 35/47/189 46/46/190 24/92/191 8/93/192
g default
v -0.050765 -0.737916 1.534617
v -0.013265 -0.753449 1.534617
v -0.013265 -0.737916 1.572118
v -0.013265 -0.661244 1.710927
v -0.050765 -0.661244 1.694188
v -0.066298 -0.661244 1.653776
v 0.050765 -0.737916 1.534617
v 0.066298 -0.661244 1.653776
v 0.050765 -0.661244 1.694188
v 0.013265 -0.661244 1.710927
v 0.013265 -0.737916 1.572118
v 0.013265 -0.753449 1.534617
v -0.050765 0.737916 1.534617
v -0.066298 0.620599 1.653776
v -0.050765 0.620599 1.694188
v -0.013265 0.620599 1.710927
v -0.013265 0.737916 1.572118
v -0.013265 0.753449 1.534617
v 0.050765 0.737916 1.534617
v 0.013265 0.753449 1.534617
v 0.013265 0.737916 1.572118
v 0.013265 0.620599 1.710927
v 0.050765 0.620599 1.694188
v 0.066298 0.620599 1.653776
v -0.050765 0.620599 -1.694188
v -0.066298 0.620599 -1.653776
v -0.050765 0.737916 -1.534617
v -0.013265 0.753449 -1.534617
v -0.013265 0.737916 -1.572118
v -0.013265 0.620599 -1.710927
v 0.050765 0.620599 -1.694188
v 0.013265 0.620599 -1.710927
v 0.013265 0.737916 -1.572118
v 0.013265 0.753449 -1.534617
v 0.050765 0.737916 -1.534617
v 0.066298 0.620599 -1.653776
v -0.050765 -0.737916 -1.534617
v -0.066298 -0.661244 -1.653776
v -0.050765 -0.661244 -1.694188
v -0.013265 -0.661244 -1.710927
v -0.013265 -0.737916 -1.572118
v -0.013265 -0.753449 -1.534617
v 0.050765 -0.737916 -1.534617
v 0.013265 -0.753449 -1.534617
v 0.013265 -0.737916 -1.572118
v 0.013265 -0.661244 -1.710927
v 0.050765 -0.661244 -1.694188
v 0.066298 -0.661244 -1.653776
v -0.043873 -0.731024 1.565226
v 0.043873 -0.731024 1.565226
v -0.043873 0.731024 1.565226
v 0.043873 0.731024 1.565226
v -0.043873 0.731024 -1.565226
v 0.043873 0.731024 -1.565226
v -0.043873 -0.731024 -1.565226
v 0.043873 -0.731024 -1.565226
vt 0.474990 0.995825
vt 0.375000 0.987634
vt 0.375000 0.762366
vt 0.474990 0.754175
vt 0.362634 -0.000000
vt 0.370825 0.008798
vt 0.129175 0.008798
vt 0.137366 -0.000000
vt 0.474990 0.008798
vt 0.462213 -0.000000
vt 0.537787 -0.000000
vt 0.525010 0.008798
vt 0.462213 1.000000
vt 0.525010 0.995825
vt 0.537787 1.000000
vt 0.375791 0.006877
vt 0.375791 0.243123
vt 0.370825 0.241202
vt 0.474990 0.241202
vt 0.629175 0.008798
vt 0.637366 -0.000000
vt 0.862634 -0.000000
vt 0.870825 0.008798
vt 0.625000 0.987634
vt 0.525010 0.754175
vt 0.625000 0.762366
vt 0.624209 0.006877
vt 0.624209 0.243123
vt 0.525010 0.241202
vt 0.629175 0.241202
vt 0.362634 0.250000
vt 0.137366 0.250000
vt 0.129175 0.241202
vt 0.375000 0.262366
vt 0.474990 0.254175
vt 0.474990 0.495825
vt 0.375000 0.487634
vt 0.474849 0.249226
vt 0.525151 0.249226
vt 0.525010 0.254175
vt 0.625000 0.262366
vt 0.625000 0.487634
vt 0.525010 0.495825
vt 0.637366 0.250000
vt 0.870825 0.241202
vt 0.862634 0.250000
vt 0.125000 0.236592
vt 0.125000 0.013408
vt 0.375000 0.513408
vt 0.474990 0.508798
vt 0.474990 0.741202
vt 0.375000 0.736592
vt 0.474849 0.500774
vt 0.525151 0.500774
vt 0.525010 0.508798
vt 0.625000 0.513408
vt 0.625000 0.736592
vt 0.525010 0.741202
vt 0.875000 0.236592
vt 0.875000 0.013408
vt 0.474849 0.749226
vt 0.525151 0.749226
vt 0.375000 0.000000
vt 0.375000 1.000000
vt 0.625000 1.000000
vt 0.625000 0.000000
vt 0.375000 0.250000
vt 0.625000 0.250000
vt 0.375000 0.500000
vt 0.125000 0.250000
vt 0.875000 0.250000
vt 0.625000 0.500000
vt 0.375000 0.750000
vt 0.125000 0.000000
vt 0.875000 0.000000
vt 0.625000 0.750000
vn -0.382684 -0.923879 0.000000
vn -0.382684 -0.923879 0.000000
vn -0.382684 -0.923879 0.000000
vn -0.382684 -0.923879 0.000000
vn -0.979893 -0.199524 0.000640
vn -0.999977 -0.004802 0.004841
vn -0.999977 -0.004802 -0.004841
vn -0.979893 -0.199524 -0.000640
vn -0.251972 -0.080881 0.964349
vn -0.142417 -0.869094 0.473702
vn 0.142417 -0.869094 0.473702
vn 0.251972 -0.080881 0.964349
vn -0.173629 -0.917666 0.357411
vn -0.235230 -0.971932 0.003883
vn 0.235230 -0.971932 0.003883
vn 0.173629 -0.917666 0.357410
vn -0.999977 -0.004802 0.004841
vn -0.933287 -0.012876 0.358900
vn -0.933527 0.015933 0.358153
vn -0.999970 0.006071 0.004862
vn -0.409522 -0.098397 0.906978
vn -0.251972 -0.080881 0.964349
vn -0.250281 0.080394 0.964830
vn -0.407195 0.093383 0.908555
vn 0.999977 -0.004802 0.004841
vn 0.979893 -0.199524 0.000640
vn 0.979893 -0.199524 -0.000640
vn 0.999977 -0.004802 -0.004841
vn 0.382335 -0.924019 0.003097
vn 0.235230 -0.971932 0.003883
vn 0.235230 -0.971932 -0.003883
vn 0.382335 -0.924019 -0.003097
vn 0.251972 -0.080881 0.964349
vn 0.409522 -0.098397 0.906978
vn 0.407195 0.093383 0.908555
vn 0.250281 0.080395 0.964830
vn 0.933287 -0.012876 0.358900
vn 0.999977 -0.004802 0.004841
vn 0.999970 0.006071 0.004862
vn 0.933527 0.015933 0.358153
vn -0.999970 0.006071 0.004862
vn -0.991226 0.132171 0.000933
vn -0.991226 0.132171 -0.000933
vn -0.999970 0.006071 -0.004862
vn -0.382336 0.924018 0.003097
vn -0.235230 0.971932 0.003883
vn -0.235230 0.971932 -0.003883
vn -0.382336 0.924018 -0.003097
vn -0.235230 0.971932 0.003883
vn -0.173629 0.917666 0.357410
vn 0.173629 0.917666 0.357411
vn 0.235230 0.971932 0.003883
vn -0.165695 0.754190 0.635407
vn -0.250281 0.080394 0.964830
vn 0.250281 0.080395 0.964830
vn 0.165695 0.754190 0.635407
vn 0.235230 0.971932 0.003883
vn 0.382336 0.924018 0.003097
vn 0.382336 0.924018 -0.003097
vn 0.235230 0.971932 -0.003883
vn 0.991226 0.132171 0.000933
vn 0.999970 0.006071 0.004862
vn 0.999970 0.006071 -0.004862
vn 0.991226 0.132171 -0.000933
vn -0.999970 0.006071 -0.004862
vn -0.933527 0.015933 -0.358153
vn -0.933287 -0.012876 -0.358900
vn -0.999977 -0.004802 -0.004841
vn -0.407195 0.093383 -0.908555
vn -0.250281 0.080395 -0.964830
vn -0.251972 -0.080881 -0.964349
vn -0.409522 -0.098397 -0.906978
vn -0.250281 0.080395 -0.964830
vn -0.165695 0.754190 -0.635407
vn 0.165695 0.754190 -0.635407
vn 0.250281 0.080394 -0.964830
vn -0.173629 0.917666 -0.357411
vn -0.235230 0.971932 -0.003883
vn 0.235230 0.971932 -0.003883
vn 0.173629 0.917666 -0.357410
vn 0.250281 0.080394 -0.964830
vn 0.407195 0.093383 -0.908555
vn 0.409522 -0.098397 -0.906978
vn 0.251972 -0.080881 -0.964349
vn 0.933527 0.015933 -0.358153
vn 0.999970 0.006071 -0.004862
vn 0.999977 -0.004802 -0.004841
vn 0.933287 -0.012876 -0.358900
vn -0.235230 -0.971932 -0.003883
vn -0.173629 -0.917666 -0.357410
vn 0.173629 -0.917666 -0.357411
vn 0.235230 -0.971932 -0.003883
vn -0.142417 -0.869094 -0.473702
vn -0.251972 -0.080881 -0.964349
vn 0.251972 -0.080881 -0.964349
vn 0.142417 -0.869094 -0.473702
vn -0.251972 -0.080881 0.964349
vn 0.251972 -0.080881 0.964349
vn 0.250281 0.080395 0.964830
vn -0.250281 0.080394 0.964830
vn -0.235230 0.971932 0.003883
vn 0.235230 0.971932 0.003883
vn 0.235230 0.971932 -0.003883
vn -0.235230 0.971932 -0.003883
vn -0.250281 0.080395 -0.964830
vn 0.250281 0.080394 -0.964830
vn 0.251972 -0.080881 -0.964349
vn -0.251972 -0.080881 -0.964349
vn -0.235230 -0.971932 -0.003883
vn 0.235230 -0.971932 -0.003883
vn 0.235230 -0.971932 0.003883
vn -0.235230 -0.971932 0.003883
vn 0.999977 -0.004802 0.004841
vn 0.999977 -0.004802 -0.004841
vn 0.999970 0.006071 -0.004862
vn 0.999970 0.006071 0.004862
vn -0.999977 -0.004802 -0.004841
vn -0.999977 -0.004802 0.004841
vn -0.999970 0.006071 0.004862
vn -0.999970 0.006071 -0.004862
vn -0.933287 -0.012876 0.358900
vn -0.999977 -0.004802 0.004841
vn -0.979893 -0.199524 0.000640
vn -0.738280 -0.607957 0.292116
vn -0.382336 -0.924018 0.003097
vn -0.235230 -0.971932 0.003883
vn -0.173629 -0.917666 0.357411
vn -0.325269 -0.887920 0.325267
vn -0.142417 -0.869094 0.473702
vn -0.251972 -0.080881 0.964349
vn -0.409522 -0.098397 0.906978
vn -0.246001 -0.853042 0.460220
vn 0.173629 -0.917666 0.357410
vn 0.235230 -0.971932 0.003883
vn 0.382335 -0.924019 0.003097
vn 0.325270 -0.887920 0.325267
vn 0.979893 -0.199524 0.000640
vn 0.999977 -0.004802 0.004841
vn 0.933287 -0.012876 0.358900
vn 0.738280 -0.607957 0.292116
vn 0.409522 -0.098397 0.906978
vn 0.251972 -0.080881 0.964349
vn 0.142417 -0.869094 0.473702
vn 0.246001 -0.853042 0.460220
vn -0.173629 0.917666 0.357410
vn -0.235230 0.971932 0.003883
vn -0.382336 0.924018 0.003097
vn -0.325270 0.887920 0.325267
vn -0.991226 0.132171 0.000933
vn -0.999970 0.006071 0.004862
vn -0.933527 0.015933 0.358153
vn -0.852136 0.421632 0.309986
vn -0.407195 0.093383 0.908555
vn -0.250281 0.080394 0.964830
vn -0.165695 0.754190 0.635407
vn -0.287960 0.733127 0.616120
vn 0.933527 0.015933 0.358153
vn 0.999970 0.006071 0.004862
vn 0.991226 0.132171 0.000933
vn 0.852136 0.421632 0.309986
vn 0.382336 0.924018 0.003097
vn 0.235230 0.971932 0.003883
vn 0.173629 0.917666 0.357411
vn 0.325269 0.887920 0.325267
vn 0.165695 0.754190 0.635407
vn 0.250281 0.080395 0.964830
vn 0.407195 0.093383 0.908555
vn 0.287959 0.733127 0.616120
vn -0.165695 0.754190 -0.635407
vn -0.250281 0.080395 -0.964830
vn -0.407195 0.093383 -0.908555
vn -0.287959 0.733127 -0.616120
vn -0.933527 0.015933 -0.358153
vn -0.999970 0.006071 -0.004862
vn -0.991226 0.132171 -0.000933
vn -0.852136 0.421632 -0.309986
vn -0.382336 0.924018 -0.003097
vn -0.235230 0.971932 -0.003883
vn -0.173629 0.917666 -0.357411
vn -0.325269 0.887920 -0.325267
vn 0.991226 0.132171 -0.000933
vn 0.999970 0.006071 -0.004862
vn 0.933527 0.015933 -0.358153
vn 0.852136 0.421632 -0.309986
vn 0.407195 0.093383 -0.908555
vn 0.250281 0.080394 -0.964830
vn 0.165695 0.754190 -0.635407
vn 0.287960 0.733127 -0.616120
vn 0.173629 0.917666 -0.357410
vn 0.235230 0.971932 -0.003883
vn 0.382336 0.924018 -0.003097
vn 0.325270 0.887920 -0.325267
vn -0.173629 -0.917666 -0.357410
vn -0.235230 -0.971932 -0.003883
vn -0.382336 -0.924018 -0.003097
vn -0.325270 -0.887920 -0.325267
vn -0.979893 -0.199524 -0.000640
vn -0.999977 -0.004802 -0.004841
vn -0.933287 -0.012876 -0.358900
vn -0.738280 -0.607957 -0.292116
vn -0.409522 -0.098397 -0.906978
vn -0.251972 -0.080881 -0.964349
vn -0.142417 -0.869094 -0.473702
vn -0.246001 -0.853042 -0.460220
vn 0.933287 -0.012876 -0.358900
vn 0.999977 -0.004802 -0.004841
vn 0.979893 -0.199524 -0.000640
vn 0.738280 -0.607957 -0.292116
vn 0.382335 -0.924019 -0.003097
vn 0.235230 -0.971932 -0.003883
vn 0.173629 -0.917666 -0.357411
vn 0.325269 -0.887920 -0.325267
vn 0.142417 -0.869094 -0.473702
vn 0.251972 -0.080881 -0.964349
vn 0.409522 -0.098397 -0.906978
vn 0.246001 -0.853042 -0.460220
s off
g Running_Wall_Wider:pCube3
usemtl initialShadingGroup
f 48/94/193 47/95/194 83/96/195 88/97/196
f 47/98/197 52/99/198 84/100/199 83/101/200
f 50/102/201 49/103/202 57/104/203 56/105/204
f 49/106/205 48/94/206 58/107/207 57/108/208
f 52/99/209 51/109/210 61/110/211 60/111/212
f 51/109/213 50/102/214 62/112/215 61/110/216
f 54/113/217 53/114/218 89/115/219 94/116/220
f 53/117/221 58/107/222 90/118/223 89/119/224
f 56/105/225 55/120/226 69/121/227 68/122/228
f 55/120/229 54/113/230 70/123/231 69/121/232
f 60/111/233 59/124/234 73/125/235 72/126/236
f 59/127/237 64/128/238 74/129/239 73/130/240
f 64/128/241 63/131/242 67/132/243 66/133/244
f 63/131/245 62/112/246 68/122/247 67/132/248
f 66/133/249 65/134/250 81/135/251 80/136/252
f 65/137/253 70/123/254 82/138/255 81/139/256
f 72/126/257 71/140/258 85/141/259 84/100/260
f 71/142/261 76/143/262 86/144/263 85/145/264
f 76/143/265 75/146/266 79/147/267 78/148/268
f 75/146/269 74/129/270 80/136/271 79/147/272
f 78/148/273 77/149/274 93/150/275 92/151/276
f 77/152/277 82/138/278 94/116/279 93/153/280
f 88/97/281 87/154/282 91/155/283 90/118/284
f 87/154/285 86/144/286 92/151/287 91/155/288
f 50/102/289 56/105/290 68/122/291 62/112/292
f 64/128/293 66/133/294 80/136/295 74/129/296
f 76/143/297 78/148/298 92/151/299 86/144/300
f 88/97/301 90/118/302 58/107/303 48/94/304
f 54/113/305 94/116/306 82/138/307 70/123/308
f 84/100/309 52/99/310 60/111/311 72/126/312
f 51/109/313 52/99/314 47/98/315 95/156/316
f 47/95/317 48/94/318 49/106/319 95/157/320
f 49/103/321 50/102/322 51/109/323 95/156/324
f 57/108/325 58/107/326 53/117/327 96/158/328
f 53/114/329 54/113/330 55/120/331 96/159/332
f 55/120/333 56/105/334 57/104/335 96/159/336
f 63/131/337 64/128/338 59/127/339 97/160/340
f 59/124/341 60/111/342 61/110/343 97/160/344
f 61/110/345 62/112/346 63/131/347 97/160/348
f 69/121/349 70/123/350 65/137/351 98/161/352
f 65/134/353 66/133/354 67/132/355 98/161/356
f 67/132/357 68/122/358 69/121/359 98/161/360
f 75/146/361 76/143/362 71/142/363 99/162/364
f 71/140/365 72/126/366 73/125/367 99/163/368
f 73/130/369 74/129/370 75/146/371 99/162/372
f 81/139/373 82/138/374 77/152/375 100/164/376
f 77/149/377 78/148/378 79/147/379 100/165/380
f 79/147/381 80/136/382 81/135/383 100/165/384
f 87/154/385 88/97/386 83/96/387 101/166/388
f 83/101/389 84/100/390 85/141/391 101/167/392
f 85/145/393 86/144/394 87/154/395 101/166/396
f 93/153/397 94/116/398 89/115/399 102/168/400
f 89/119/401 90/118/402 91/155/403 102/169/404
f 91/155/405 92/151/406 93/150/407 102/169/408
g default
v -0.080426 0.226437 0.279899
v 0.163699 0.158485 0.279899
v -0.179401 0.599367 0.181973
v 0.163699 0.454240 0.214457
v -0.091029 0.540002 -0.279899
v 0.117253 0.558579 -0.279899
v -0.120018 0.158485 -0.284850
v 0.121353 0.268076 -0.265709
v -0.049774 1.099994 0.039540
v 0.023125 1.061658 0.039540
v 0.023125 1.182483 -0.043833
v -0.023125 1.182483 -0.043833
v -0.021172 -0.414180 -0.036201
v 0.021172 -0.414180 -0.036201
v 0.021172 -0.442504 0.036201
v -0.021172 -0.442504 0.036201
v -0.118199 0.763746 0.111011
v -0.107556 0.888831 -0.167731
v 0.107556 0.772575 -0.185617
v 0.107556 0.724320 0.183902
v -0.086005 -0.049619 -0.132495
v -0.086005 -0.303725 0.118008
v 0.086005 -0.079548 0.130176
v 0.086005 -0.153687 -0.147054
v -0.163699 0.500000 -0.016580
v -0.200305 0.307231 -0.016580
v -0.086005 -0.153687 -0.008711
v -0.021172 -0.414180 -0.002144
v 0.021172 -0.414180 -0.002144
v 0.061766 -0.102387 -0.008711
v 0.163699 0.158485 -0.016580
v 0.200380 0.585101 -0.016580
v 0.107556 0.749877 -0.011802
v 0.023125 1.125649 -0.004616
v -0.035660 1.143682 -0.004616
v -0.112562 0.757079 -0.011802
v 0.030953 0.195435 0.279899
v -0.022866 0.554032 0.135438
v -0.015201 0.745758 0.144267
v -0.016515 1.082504 0.039540
v -0.008840 1.135454 -0.004616
v -0.002024 1.182483 -0.043833
v -0.009414 0.780056 -0.153069
v 0.007322 0.483520 -0.306508
v -0.014328 0.158485 -0.279899
v -0.007528 -0.089309 -0.126879
v -0.001853 -0.414180 -0.036201
v -0.001853 -0.414180 -0.002144
v -0.001853 -0.442504 0.036201
v -0.007528 -0.116935 0.186923
vt 0.060076 0.443956
vt 0.118494 0.421455
vt 0.108334 0.630345
vt 0.021388 0.655085
vt 0.115409 0.929168
vt 0.133105 0.919493
vt 0.142056 0.955644
vt 0.127961 0.960926
vt 0.956557 0.574901
vt 0.904534 0.540474
vt 0.927931 0.367327
vt 0.984594 0.371000
vt 0.039497 0.035795
vt 0.049783 0.034511
vt 0.052946 0.059888
vt 0.042637 0.061185
vt 0.199700 0.380101
vt 0.359617 0.390835
vt 0.344652 0.617627
vt 0.223277 0.542828
vt 0.690626 0.465287
vt 0.680431 0.569668
vt 0.510119 0.612159
vt 0.585684 0.406189
vt 0.126314 0.730441
vt 0.069383 0.746754
vt 0.336334 0.716705
vt 0.230788 0.696443
vt 0.904324 0.717517
vt 0.960791 0.772287
vt 0.699865 0.324516
vt 0.633999 0.316007
vt 0.929386 0.211535
vt 0.972126 0.231631
vt 0.366790 0.241069
vt 0.290240 0.249935
vt 0.073857 0.250656
vt 0.017743 0.150969
vt 0.664118 0.823150
vt 0.592860 0.901452
vt 0.714131 0.112645
vt 0.688168 0.135074
vt 0.893602 0.940403
vt 0.904974 0.940753
vt 0.323329 0.923801
vt 0.299798 0.889030
vt 0.658422 0.968065
vt 0.637311 0.982648
vt 0.378862 0.072331
vt 0.359457 0.055336
vt 0.917571 0.031320
vt 0.927958 0.030822
vt 0.823608 0.659043
vt 0.838733 0.453330
vt 0.734944 0.770633
vt 0.676546 0.968309
vt 0.037238 0.017665
vt 0.047522 0.016382
vt 0.445615 0.224398
vt 0.397259 0.074050
vt 0.493705 0.458005
vt 0.491495 0.617381
vt 0.430333 0.731393
vt 0.344218 0.954672
vt 0.150027 0.987737
vt 0.138816 0.989237
vt 0.790251 0.261876
vt 0.736965 0.092464
vt 0.188676 0.397183
vt 0.204471 0.558850
vt 0.193868 0.709616
vt 0.154181 0.907931
vt 0.158860 0.949340
vt 0.163416 0.986081
vt 0.840159 0.704736
vt 0.880052 0.939980
vt 0.842662 0.578011
vt 0.849943 0.420282
vt 0.873566 0.185174
vt 0.905188 0.031916
vt 0.059780 0.014852
vt 0.062043 0.032981
vt 0.065233 0.058346
vt 0.135657 0.250369
vn 0.256616 0.351871 0.900186
vn 0.256616 0.351871 0.900186
vn 0.256616 0.351871 0.900186
vn 0.256616 0.351871 0.900186
vn 0.264303 0.617451 0.740877
vn 0.252440 0.589736 0.767128
vn 0.194718 0.606742 0.770681
vn 0.204761 0.634738 0.745105
vn 0.133777 0.242937 -0.960773
vn 0.004082 0.104359 -0.994531
vn -0.100171 -0.247170 -0.963780
vn -0.100586 -0.240695 -0.965375
vn -0.000003 -0.931276 -0.364315
vn -0.000001 -0.931276 -0.364315
vn -0.000001 -0.804363 -0.594139
vn -0.000002 -0.804363 -0.594139
vn 0.990189 -0.136729 0.028842
vn 0.987909 -0.153243 0.023483
vn 0.981492 0.140495 0.130131
vn 0.996036 0.024471 0.085519
vn -0.991082 -0.003937 0.133192
vn -0.973190 -0.106711 0.203749
vn -0.972115 -0.118695 0.202246
vn -0.995923 0.045077 0.078140
vn 0.195959 0.281344 0.939386
vn 0.214917 0.303445 0.928295
vn -0.022770 0.205261 0.978442
vn -0.037739 0.211871 0.976569
vn 0.996036 0.024471 0.085519
vn 0.981492 0.140495 0.130131
vn 0.945892 0.288972 0.147591
vn 0.938981 0.301959 0.164730
vn 0.282487 0.352987 -0.891965
vn 0.004082 0.104359 -0.994531
vn 0.133777 0.242937 -0.960773
vn 0.318541 0.299018 -0.899511
vn -0.970031 0.215514 -0.112219
vn -0.991082 -0.003937 0.133192
vn -0.995923 0.045077 0.078140
vn -0.969054 0.217928 -0.115936
vn -0.100586 -0.240695 -0.965375
vn -0.100171 -0.247170 -0.963780
vn -0.062775 -0.402674 -0.913188
vn -0.069196 -0.496995 -0.864990
vn 0.964392 -0.252955 -0.077218
vn 0.987909 -0.153243 0.023483
vn 0.990189 -0.136729 0.028842
vn 0.955278 -0.290147 -0.057079
vn -0.099012 -0.290340 0.951787
vn 0.063681 0.015463 0.997851
vn 0.142197 0.150490 0.978332
vn 0.095219 -0.385776 0.917666
vn -0.972115 -0.118695 0.202246
vn -0.973190 -0.106711 0.203749
vn -0.973626 -0.144056 0.176919
vn -0.982029 -0.170302 0.081338
vn -0.978968 0.190272 -0.073613
vn -0.970031 0.215514 -0.112219
vn -0.969054 0.217928 -0.115936
vn -0.978968 0.190272 -0.073613
vn 0.345251 0.256793 -0.902695
vn 0.282487 0.352987 -0.891965
vn 0.318541 0.299018 -0.899511
vn 0.345251 0.256793 -0.902695
vn 0.938981 0.301959 0.164730
vn 0.945892 0.288972 0.147591
vn 0.964865 0.246153 0.091898
vn 0.964865 0.246153 0.091898
vn -0.037739 0.211871 0.976569
vn -0.022770 0.205261 0.978442
vn -0.162934 0.265066 0.950365
vn -0.162934 0.265066 0.950365
vn -0.982029 -0.170302 0.081338
vn -0.973626 -0.144056 0.176919
vn -0.929359 -0.250753 -0.270953
vn -0.929359 -0.250753 -0.270953
vn 0.173869 -0.419706 0.890851
vn -0.099012 -0.290340 0.951787
vn 0.095219 -0.385776 0.917666
vn 0.173869 -0.419706 0.890852
vn 0.981087 -0.135366 -0.138364
vn 0.964392 -0.252955 -0.077218
vn 0.955278 -0.290147 -0.057079
vn 0.981087 -0.135366 -0.138364
vn -0.069196 -0.496995 -0.864990
vn -0.062775 -0.402674 -0.913188
vn -0.052854 -0.266409 -0.962410
vn -0.052854 -0.266409 -0.962410
vn -0.969290 -0.087805 -0.229710
vn -0.965821 -0.003286 -0.259188
vn -0.966461 0.100605 -0.236286
vn -0.968574 0.099166 -0.228104
vn -0.958069 -0.238982 -0.158084
vn -0.965821 -0.003286 -0.259188
vn -0.969290 -0.087805 -0.229710
vn -0.954155 -0.249479 -0.165373
vn -0.963284 -0.224150 -0.147787
vn -0.958069 -0.238982 -0.158084
vn -0.954155 -0.249479 -0.165373
vn -0.963284 -0.224150 -0.147787
vn -0.000003 -1.000000 0.000000
vn -0.000001 -1.000000 0.000000
vn -0.000001 -0.931276 -0.364315
vn -0.000003 -0.931276 -0.364315
vn 0.981348 -0.192209 -0.003478
vn 0.980304 -0.196446 -0.020340
vn 0.973418 -0.142540 0.179274
vn 0.973418 -0.142540 0.179274
vn 0.974601 -0.087730 -0.206050
vn 0.978271 -0.135622 -0.156822
vn 0.980304 -0.196446 -0.020340
vn 0.981348 -0.192209 -0.003478
vn 0.971554 0.067468 -0.227005
vn 0.978271 -0.135622 -0.156822
vn 0.974601 -0.087730 -0.206050
vn 0.972001 0.035560 -0.232272
vn 0.965555 0.253223 -0.059842
vn 0.971554 0.067468 -0.227005
vn 0.972001 0.035560 -0.232272
vn 0.963580 0.257806 -0.071067
vn 0.977810 0.196262 0.073272
vn 0.965555 0.253223 -0.059842
vn 0.963580 0.257806 -0.071067
vn 0.977810 0.196262 0.073272
vn 0.204761 0.634738 0.745105
vn 0.194718 0.606742 0.770681
vn 0.106441 0.620000 0.777348
vn 0.112679 0.656328 0.746014
vn -0.988697 0.146606 -0.031371
vn -0.988715 0.109140 -0.102618
vn -0.972418 0.211797 0.097697
vn -0.972418 0.211797 0.097697
vn -0.968574 0.099166 -0.228104
vn -0.966461 0.100605 -0.236286
vn -0.988715 0.109140 -0.102618
vn -0.988697 0.146606 -0.031371
vn -0.264379 0.120869 0.956815
vn -0.000572 0.061291 0.998120
vn 0.039600 -0.027107 0.998848
vn -0.166009 0.233655 0.958043
vn -0.255953 0.167219 0.952117
vn -0.264379 0.120869 0.956815
vn -0.166009 0.233655 0.958043
vn -0.297071 0.103652 0.949213
vn -0.142846 0.327022 0.934158
vn -0.255953 0.167219 0.952117
vn -0.297071 0.103652 0.949213
vn -0.142846 0.327022 0.934158
vn 0.194718 0.606742 0.770681
vn 0.252440 0.589736 0.767128
vn 0.245644 0.573858 0.781246
vn 0.198326 0.582348 0.788376
vn 0.106441 0.620000 0.777348
vn 0.194718 0.606742 0.770681
vn 0.198326 0.582348 0.788376
vn 0.102184 0.595206 0.797050
vn -0.170701 0.366302 -0.914704
vn -0.178168 0.344030 -0.921900
vn -0.201230 0.271725 -0.941101
vn -0.201230 0.271725 -0.941101
vn -0.022980 0.263069 -0.964503
vn 0.116286 0.072603 -0.990559
vn -0.178168 0.344030 -0.921900
vn -0.170701 0.366302 -0.914704
vn 0.096458 -0.297249 -0.949915
vn 0.116286 0.072603 -0.990559
vn -0.022980 0.263069 -0.964503
vn 0.167998 -0.164347 -0.971991
vn -0.023256 -0.361989 -0.931892
vn 0.096458 -0.297249 -0.949915
vn 0.167998 -0.164347 -0.971991
vn -0.110145 -0.341144 -0.933536
vn -0.312227 -0.280894 -0.907531
vn -0.023256 -0.361989 -0.931892
vn -0.110145 -0.341144 -0.933536
vn -0.312227 -0.280894 -0.907531
vn -0.000001 -0.931276 -0.364315
vn -0.000001 -1.000000 0.000000
vn 0.000000 -1.000000 0.000000
vn 0.000000 -0.931276 -0.364315
vn -0.000001 -0.804363 -0.594139
vn -0.000001 -0.931276 -0.364315
vn 0.000000 -0.931276 -0.364315
vn 0.000000 -0.804362 -0.594139
vn 0.311627 -0.402961 0.860530
vn 0.352052 -0.388533 0.851529
vn 0.496510 -0.328246 0.803575
vn 0.496510 -0.328246 0.803575
vn 0.039600 -0.027107 0.998848
vn -0.000572 0.061291 0.998120
vn 0.352052 -0.388533 0.851529
vn 0.311627 -0.402961 0.860530
s off
g Running_Wall_Wider:pCube2
usemtl initialShadingGroup
f 103/170/409 139/171/410 140/172/411 105/173/412
f 111/174/413 142/175/414 143/176/415 137/177/416
f 107/178/417 146/179/418 147/180/419 109/181/420
f 130/182/421 150/183/422 151/184/423 118/185/424
f 104/186/425 133/187/426 134/188/427 106/189/428
f 127/190/429 128/191/430 103/192/431 105/193/432
f 105/173/433 140/172/434 141/194/435 119/195/436
f 106/189/437 134/188/438 135/196/439 122/197/440
f 145/198/441 146/179/442 107/178/443 120/199/444
f 138/200/445 127/190/446 105/193/447 119/201/448
f 109/181/449 147/180/450 148/202/451 123/203/452
f 132/204/453 133/187/454 104/186/455 125/205/456
f 152/206/457 139/171/458 103/170/459 124/207/460
f 103/192/461 128/191/462 129/208/463 124/209/464
f 137/210/465 138/200/466 119/201/467 111/211/468
f 144/212/469 145/198/470 120/199/471 114/213/472
f 122/197/473 135/196/474 136/214/475 112/215/476
f 119/195/477 141/194/478 142/175/479 111/174/480
f 124/209/481 129/208/482 130/216/483 118/217/484
f 151/184/485 152/206/486 124/207/487 118/185/488
f 131/218/489 132/204/490 125/205/491 117/219/492
f 123/203/493 148/202/494 149/220/495 115/221/496
f 109/222/497 128/191/498 127/190/499 107/223/500
f 129/208/501 128/191/502 109/222/503 123/224/504
f 130/216/505 129/208/506 123/224/507 115/225/508
f 115/226/509 149/227/510 150/183/511 130/182/512
f 126/228/513 132/204/514 131/218/515 116/229/516
f 110/230/517 133/187/518 132/204/519 126/228/520
f 134/188/521 133/187/522 110/230/523 108/231/524
f 135/196/525 134/188/526 108/231/527 121/232/528
f 136/214/529 135/196/530 121/232/531 113/233/532
f 137/177/533 143/176/534 144/234/535 114/235/536
f 120/236/537 138/200/538 137/210/539 114/237/540
f 107/223/541 127/190/542 138/200/543 120/236/544
f 140/172/545 139/171/546 104/238/547 106/239/548
f 141/194/549 140/172/550 106/239/551 122/240/552
f 142/175/553 141/194/554 122/240/555 112/241/556
f 143/176/557 142/175/558 112/241/559 136/242/560
f 144/234/561 143/176/562 136/242/563 113/243/564
f 121/244/565 145/198/566 144/212/567 113/245/568
f 108/246/569 146/179/570 145/198/571 121/244/572
f 147/180/573 146/179/574 108/246/575 110/247/576
f 148/202/577 147/180/578 110/247/579 126/248/580
f 149/220/581 148/202/582 126/248/583 116/249/584
f 150/183/585 149/227/586 116/250/587 131/251/588
f 151/184/589 150/183/590 131/251/591 117/252/592
f 125/253/593 152/206/594 151/184/595 117/252/596
f 104/238/597 139/171/598 152/206/599 125/253/600
g default
v 6.556827 4.355302 9.376827
v 10.468117 4.355302 9.376827
v 6.556827 -4.355302 9.376827
v 10.468117 -4.355302 9.376827
v 6.556827 -28.390770 50.760574
v 6.556827 -13.141403 77.262207
v 10.468117 -28.390770 50.760574
v 10.468117 -13.141403 77.262207
v 6.556827 28.390770 50.760574
v 6.556827 13.141403 77.262207
v 10.468117 28.390770 50.760574
v 10.468117 13.141403 77.262207
v 6.556827 -45.344833 86.957245
v 6.556827 -43.598190 89.992714
v 10.468117 -45.344833 86.957245
v 10.468117 -43.598190 89.992714
v 6.556827 43.598190 89.992714
v 6.556827 45.344833 86.957245
v 10.468117 43.598190 89.992714
v 10.468117 45.344833 86.957245
vt 0.375000 0.087491
vt 0.625000 0.087491
vt 0.625000 0.162509
vt 0.375000 0.162509
vt 0.375000 0.407303
vt 0.625000 0.407303
vt 0.625000 0.500000
vt 0.375000 0.500000
vt 0.625000 0.750000
vt 0.375000 0.750000
vt 0.625000 0.842697
vt 0.375000 0.842697
vt 0.782302 0.000000
vt 0.875000 0.000000
vt 0.875000 0.250000
vt 0.782303 0.250000
vt 0.375000 0.087491
vt 0.217697 0.000000
vt 0.782302 0.000000
vt 0.625000 0.087491
vt 0.375000 0.407303
vt 0.375000 0.162509
vt 0.625000 0.162509
vt 0.625000 0.407303
vt 0.217697 0.000000
vn 0.000000 0.000000 1.000000
vn 0.000000 0.000000 1.000000
vn 0.000000 0.000000 1.000000
vn 0.000000 0.000000 1.000000
vn 0.000000 0.864733 -0.502232
vn 0.000000 0.864733 -0.502232
vn 0.000000 0.864733 -0.502232
vn 0.000000 0.864733 -0.502232
vn 0.000000 0.000000 -1.000000
vn 0.000000 0.000000 -1.000000
vn 0.000000 0.000000 -1.000000
vn 0.000000 0.000000 -1.000000
vn 0.000000 -0.864733 -0.502232
vn 0.000000 -0.864733 -0.502232
vn 0.000000 -0.864733 -0.502232
vn 0.000000 -0.864733 -0.502232
vn 1.000000 0.000000 0.000000
vn 1.000000 0.000000 0.000000
vn 1.000000 0.000000 0.000000
vn 1.000000 0.000000 0.000000
vn 1.000000 0.000000 0.000000
vn 1.000000 0.000000 0.000000
vn 0.000000 -0.866753 0.498738
vn 0.000000 -0.866753 0.498738
vn 0.000000 -0.866753 0.498738
vn 0.000000 -0.866753 0.498738
vn 0.000000 0.866753 0.498738
vn 0.000000 0.866753 0.498738
vn 0.000000 0.866753 0.498738
vn 0.000000 0.866753 0.498738
vn 0.000000 -0.905585 -0.424165
vn 0.000000 -0.905585 -0.424165
vn 0.000000 -0.905585 -0.424165
vn 0.000000 -0.905585 -0.424165
vn 1.000000 0.000000 0.000000
vn 1.000000 0.000000 0.000000
vn 1.000000 0.000000 0.000000
vn 1.000000 0.000000 0.000000
vn 0.000000 0.385652 0.922644
vn 0.000000 0.385652 0.922644
vn 0.000000 0.385652 0.922644
vn 0.000000 0.385652 0.922644
vn 0.000000 -0.385652 0.922644
vn 0.000000 -0.385652 0.922644
vn 0.000000 -0.385652 0.922644
vn 0.000000 -0.385652 0.922644
vn 1.000000 -0.000000 0.000000
vn 1.000000 -0.000000 0.000000
vn 1.000000 -0.000000 0.000000
vn 1.000000 -0.000000 0.000000
vn 0.000000 0.905585 -0.424165
vn 0.000000 0.905585 -0.424165
vn 0.000000 0.905585 -0.424165
vn 0.000000 0.905585 -0.424165
s off
g Running_Wall_Wider:Arrow
usemtl initialShadingGroup
f 158/254/601 160/255/602 164/256/603 162/257/604
f 161/258/605 163/259/606 154/260/607 153/261/608
f 153/261/609 154/260/610 156/262/611 155/263/612
f 155/263/613 156/262/614 159/264/615 157/265/616
f 160/255/617 159/266/618 156/267/619 154/268/620 163/269/621 164/256/622
f 166/270/623 165/271/624 167/272/625 168/273/626
f 170/274/627 169/275/628 171/276/629 172/277/630
f 157/278/631 159/266/632 167/272/633 165/271/634
f 159/266/635 160/255/636 168/273/637 167/272/638
f 160/255/639 158/254/640 166/270/641 168/273/642
f 162/257/643 164/256/644 171/276/645 169/275/646
f 164/256/647 163/259/648 172/277/649 171/276/650
f 163/259/651 161/258/652 170/274/653 172/277/654
g default
v 6.556827 4.355302 -87.723541
v 10.468117 4.355302 -87.723541
v 6.556827 -4.355302 -87.723541
v 10.468117 -4.355302 -87.723541
v 6.556827 -28.390770 -46.339794
v 6.556827 -13.141403 -19.838163
v 10.468117 -28.390770 -46.339794
v 10.468117 -13.141403 -19.838163
v 6.556827 28.390770 -46.339794
v 6.556827 13.141403 -19.838163
v 10.468117 28.390770 -46.339794
v 10.468117 13.141403 -19.838163
v 6.556827 -45.344833 -10.143126
v 6.556827 -43.598190 -7.107655
v 10.468117 -45.344833 -10.143126
v 10.468117 -43.598190 -7.107655
v 6.556827 43.598190 -7.107655
v 6.556827 45.344833 -10.143126
v 10.468117 43.598190 -7.107655
v 10.468117 45.344833 -10.143126
vt 0.375000 0.087491
vt 0.625000 0.087491
vt 0.625000 0.162509
vt 0.375000 0.162509
vt 0.375000 0.407303
vt 0.625000 0.407303
vt 0.625000 0.500000
vt 0.375000 0.500000
vt 0.625000 0.750000
vt 0.375000 0.750000
vt 0.625000 0.842697
vt 0.375000 0.842697
vt 0.782302 0.000000
vt 0.875000 0.000000
vt 0.875000 0.250000
vt 0.782303 0.250000
vt 0.375000 0.087491
vt 0.217697 0.000000
vt 0.782302 0.000000
vt 0.625000 0.087491
vt 0.375000 0.407303
vt 0.375000 0.162509
vt 0.625000 0.162509
vt 0.625000 0.407303
vt 0.217697 0.000000
vn 0.000000 0.000000 1.000000
vn 0.000000 0.000000 1.000000
vn 0.000000 0.000000 1.000000
vn 0.000000 0.000000 1.000000
vn 0.000000 0.864733 -0.502232
vn 0.000000 0.864733 -0.502232
vn 0.000000 0.864733 -0.502232
vn 0.000000 0.864733 -0.502232
vn 0.000000 0.000000 -1.000000
vn 0.000000 0.000000 -1.000000
vn 0.000000 0.000000 -1.000000
vn 0.000000 0.000000 -1.000000
vn 0.000000 -0.864733 -0.502232
vn 0.000000 -0.864733 -0.502232
vn 0.000000 -0.864733 -0.502232
vn 0.000000 -0.864733 -0.502232
vn 1.000000 0.000000 0.000000
vn 1.000000 0.000000 0.000000
vn 1.000000 0.000000 0.000000
vn 1.000000 0.000000 0.000000
vn 1.000000 0.000000 0.000000
vn 1.000000 0.000000 0.000000
vn 0.000000 -0.866753 0.498738
vn 0.000000 -0.866753 0.498738
vn 0.000000 -0.866753 0.498738
vn 0.000000 -0.866753 0.498738
vn 0.000000 0.866753 0.498738
vn 0.000000 0.866753 0.498738
vn 0.000000 0.866753 0.498738
vn 0.000000 0.866753 0.498738
vn 0.000000 -0.905585 -0.424165
vn 0.000000 -0.905585 -0.424165
vn 0.000000 -0.905585 -0.424165
vn 0.000000 -0.905585 -0.424165
vn 1.000000 -0.000000 0.000000
vn 1.000000 -0.000000 0.000000
vn 1.000000 -0.000000 0.000000
vn 1.000000 -0.000000 0.000000
vn 0.000000 0.385652 0.922644
vn 0.000000 0.385652 0.922644
vn 0.000000 0.385652 0.922644
vn 0.000000 0.385652 0.922644
vn 0.000000 -0.385652 0.922644
vn 0.000000 -0.385652 0.922644
vn 0.000000 -0.385652 0.922644
vn 0.000000 -0.385652 0.922644
vn 1.000000 0.000000 0.000000
vn 1.000000 0.000000 0.000000
vn 1.000000 0.000000 0.000000
vn 1.000000 0.000000 0.000000
vn 0.000000 0.905585 -0.424165
vn 0.000000 0.905585 -0.424165
vn 0.000000 0.905585 -0.424165
vn 0.000000 0.905585 -0.424165
s off
g Running_Wall_Wider:Arrow1
usemtl initialShadingGroup
f 178/279/655 180/280/656 184/281/657 182/282/658
f 181/283/659 183/284/660 174/285/661 173/286/662
f 173/286/663 174/285/664 176/287/665 175/288/666
f 175/288/667 176/287/668 179/289/669 177/290/670
f 180/280/671 179/291/672 176/292/673 174/293/674 183/294/675 184/281/676
f 186/295/677 185/296/678 187/297/679 188/298/680
f 190/299/681 189/300/682 191/301/683 192/302/684
f 177/303/685 179/291/686 187/297/687 185/296/688
f 179/291/689 180/280/690 188/298/691 187/297/692
f 180/280/693 178/279/694 186/295/695 188/298/696
f 182/282/697 184/281/698 191/301/699 189/300/700
f 184/281/701 183/284/702 192/302/703 191/301/704
f 183/284/705 181/283/706 190/299/707 192/302/708
g default
v -9.821655 -60.876423 101.546722
v -7.652233 -69.231918 102.634995
v -7.652233 -63.149265 124.668030
v -7.652233 -48.464420 133.794403
v -9.821655 -46.720108 123.250023
v -10.767694 -46.720108 101.546722
v 9.821655 -63.399082 101.546722
v 9.821655 -46.720108 127.480324
v 7.652233 -48.464420 133.794403
v 7.652233 -63.149265 124.668030
v 7.652233 -69.231918 102.634995
v -9.821655 60.876423 101.546722
v -10.767694 46.720108 101.546722
v -9.821655 46.720108 123.250023
v -7.652233 48.464420 133.794403
v -7.652233 63.149265 124.668030
v -7.652233 69.231918 102.634995
v 9.821655 63.399082 101.546722
v 7.652233 69.231918 102.634995
v 7.652233 63.149265 124.668030
v 7.652233 48.464420 133.794403
v 9.821655 46.720108 127.480324
v -9.821655 46.720108 -123.250023
v -10.767694 46.720108 -101.546722
v -9.821655 60.876423 -101.546722
v -7.652233 69.231918 -102.634995
v -7.652233 63.149265 -124.668030
v -7.652233 48.464420 -133.794403
v 9.821655 46.720108 -127.776932
v 7.652233 48.464420 -133.794403
v 7.652233 63.149265 -124.668030
v 7.652233 69.231918 -102.634995
v 9.821655 63.038956 -101.546722
v -9.821655 -60.876423 -101.546722
v -10.767694 -46.720108 -101.546722
v -9.821655 -46.720108 -123.250023
v -7.652233 -48.464420 -133.794403
v -7.652233 -63.149265 -124.668030
v -7.652233 -69.231918 -102.634995
v 9.821655 -63.038956 -101.546722
v 7.652233 -69.231918 -102.634995
v 7.652233 -63.149265 -124.668030
v 7.652233 -48.464420 -133.794403
v 9.821655 -46.720108 -127.776932
v -9.401892 -58.274643 119.261192
v 9.401892 -58.280285 120.412514
v -9.401892 58.274643 119.261192
v 9.401892 58.280285 120.412514
v -9.401892 58.274643 -119.261192
v 9.401892 58.141098 -120.102684
v -9.401892 -58.274643 -119.261192
v 9.401892 -58.141098 -120.102684
v 9.454450 -46.720108 101.546722
v 8.508410 -63.399082 101.546722
v 8.508410 -63.038956 -101.546722
v 9.454450 -46.720108 -101.546722
v 8.508410 -46.720108 127.480324
v 9.454450 46.720108 101.546722
v 8.508410 46.720108 127.480324
v 8.508410 63.399082 101.546722
v 9.454450 46.720108 -101.546722
v 8.508410 63.038956 -101.546722
v 8.508410 46.720108 -127.776932
v 8.508410 -46.720108 -127.776932
v 8.088647 -58.280285 120.412514
v 8.088647 58.280285 120.412514
v 8.088647 58.141098 -120.102684
v 8.088647 -58.141098 -120.102684
v -9.821655 -21.537687 121.402885
v -9.821655 21.537687 121.402885
v -10.767694 21.537687 101.546722
v -10.767694 -21.537687 101.546722
v -10.767694 -21.537687 -101.546722
v -10.767694 21.537687 -101.546722
v -9.821655 21.537687 -121.402885
v -9.821655 -21.537687 -121.402885
v -7.652233 22.341806 -131.919220
v -7.652233 -22.341806 -131.919220
v 7.652233 -22.341806 -131.919220
v 7.652233 22.341806 -131.919220
v 9.821655 21.537687 -125.929787
v 9.821655 -21.537687 -125.929787
v 8.508410 21.537687 -125.929787
v 8.508410 -21.537687 -125.929787
v 9.454450 21.537687 -101.546722
v 9.454450 -21.537687 -101.546722
v 9.454450 -21.537687 101.546722
v 9.454450 21.537687 101.546722
v 8.508410 -21.537687 125.633179
v 8.508410 21.537687 125.633179
v 9.821655 -21.537687 125.633179
v 9.821655 21.537687 125.633179
v 7.652233 22.341806 131.919220
v 7.652233 -22.341806 131.919220
v -7.652233 -22.341806 131.919220
v -7.652233 22.341806 131.919220
v -9.821653 -60.876423 29.947002
v -9.821655 -60.876423 -29.947008
v -7.652233 -66.274345 -30.402002
v -7.652233 -66.274345 30.402002
v 7.652233 -66.274345 30.402002
v 7.652233 -66.274345 -30.402002
v 9.821653 -60.336727 29.947002
v 9.821655 -60.186165 -29.947008
v 8.508410 -60.336731 29.947002
v 8.508410 -60.186169 -29.947008
v 9.454450 -46.720108 -29.947002
v 9.454451 -46.720108 29.947008
v 9.454450 -21.537687 -29.947002
v 9.454451 -21.537687 29.947008
v 9.454450 21.537687 29.947002
v 9.454451 21.537687 -29.947008
v 9.454450 46.720108 29.947002
v 9.454451 46.720108 -29.947008
v 8.508410 60.336731 29.947002
v 8.508410 60.186169 -29.947008
v 9.821653 60.336727 29.947002
v 9.821655 60.186165 -29.947008
v 7.652233 66.274345 -30.402002
v 7.652233 66.274345 30.402002
v -7.652233 66.274345 30.402002
v -7.652233 66.274345 -30.402002
v -9.821653 60.876423 29.947002
v -9.821655 60.876423 -29.947008
v -10.767694 46.720108 -29.947002
v -10.767694 46.720108 29.947008
v -10.767694 21.537687 -29.947002
v -10.767694 21.537687 29.947008
v -10.767694 -21.537687 29.947002
v -10.767694 -21.537687 -29.947008
v -10.767694 -46.720108 29.947002
v -10.767694 -46.720108 -29.947008
vt 0.067343 0.135508
vt 0.067496 0.165195
vt 0.087577 0.165195
vt 0.087729 0.135508
vt 0.043490 0.165195
vt 0.043490 0.243051
vt 0.067496 0.243051
vt 0.032679 0.233458
vt 0.035738 0.152695
vt 0.035738 0.152695
vt 0.032679 0.233458
vt 0.043125 0.119242
vt 0.043125 0.119242
vt 0.043490 0.381548
vt 0.036214 0.243051
vt 0.036833 0.381548
vt 0.033307 0.377126
vt 0.043490 0.243051
vt 0.043490 0.151321
vt 0.067496 0.168164
vt 0.067496 0.243051
vt 0.043490 0.151321
vt 0.067343 0.135508
vt 0.067496 0.168164
vt 0.034796 0.243051
vt 0.035415 0.381548
vt 0.033307 0.377126
vt 0.034796 0.243051
vt 0.043490 0.381548
vt 0.035415 0.381548
vt 0.043490 0.756948
vt 0.043490 0.834804
vt 0.067496 0.834804
vt 0.067496 0.756948
vt 0.043125 0.880758
vt 0.067343 0.864492
vt 0.035738 0.847305
vt 0.035738 0.847305
vt 0.043125 0.880758
vt 0.032679 0.766542
vt 0.032679 0.766542
vt 0.043490 0.848678
vt 0.067496 0.831836
vt 0.067343 0.864492
vt 0.043490 0.848678
vt 0.043490 0.756948
vt 0.067496 0.756948
vt 0.067496 0.831836
vt 0.111582 0.381548
vt 0.118239 0.381548
vt 0.118858 0.243051
vt 0.111582 0.243051
vt 0.121765 0.377126
vt 0.122394 0.233458
vt 0.122394 0.766542
vt 0.119334 0.847305
vt 0.119334 0.847305
vt 0.122394 0.766542
vt 0.111947 0.880758
vt 0.111947 0.880758
vt 0.121765 0.377126
vt 0.119757 0.381548
vt 0.120376 0.243051
vt 0.122394 0.233458
vt 0.119757 0.381548
vt 0.111582 0.381548
vt 0.111582 0.243051
vt 0.120376 0.243051
vt 0.111947 0.119242
vt 0.119334 0.152695
vt 0.119334 0.152695
vt 0.111947 0.119242
vt 0.067496 0.381548
vt 0.067496 0.381548
vt 0.037551 0.179504
vt 0.037165 0.179473
vt 0.037165 0.179473
vt 0.037551 0.820495
vt 0.036214 0.756948
vt 0.034796 0.756948
vt 0.037165 0.820526
vt 0.037165 0.820526
vt 0.034796 0.756948
vt 0.118858 0.756948
vt 0.117521 0.820495
vt 0.111582 0.756948
vt 0.111582 0.834804
vt 0.111582 0.846698
vt 0.111582 0.756948
vt 0.120376 0.756948
vt 0.117803 0.819761
vt 0.120376 0.756948
vt 0.117803 0.819761
vt 0.111582 0.846698
vt 0.111582 0.165195
vt 0.117521 0.179504
vt 0.111582 0.153302
vt 0.117803 0.180239
vt 0.111582 0.153302
vt 0.117803 0.180239
vt 0.043490 0.618452
vt 0.036833 0.618452
vt 0.067496 0.618452
vt 0.118239 0.618452
vt 0.111582 0.618452
vt 0.121765 0.622874
vt 0.121765 0.622874
vt 0.119757 0.618452
vt 0.119757 0.618452
vt 0.111582 0.618452
vt 0.043490 0.618452
vt 0.067496 0.618452
vt 0.035415 0.618452
vt 0.035415 0.618452
vt 0.033307 0.622874
vt 0.033307 0.622874
vt 0.087729 0.135508
vt 0.087577 0.168992
vt 0.087577 0.168992
vt 0.087577 0.243051
vt 0.087577 0.381548
vt 0.087577 0.618452
vt 0.087577 0.756948
vt 0.087577 0.831008
vt 0.087577 0.831008
vt 0.087729 0.864492
vt 0.087729 0.864492
vt 0.087577 0.834804
vt 0.087577 0.756948
vt 0.087577 0.618452
vt 0.087577 0.381548
vt 0.087577 0.243051
vn -0.927868 -0.372909 0.000000
vn -0.927868 -0.372909 0.000000
vn -0.927868 -0.372909 0.000000
vn -0.927868 -0.372909 0.000000
vn -0.988900 -0.148374 0.007866
vn -0.999698 -0.022737 0.009321
vn -0.999711 -0.024042 0.000000
vn -0.988428 -0.151684 -0.001128
vn -0.419422 -0.153464 0.894726
vn -0.316525 -0.786848 0.529794
vn 0.260842 -0.802673 0.536356
vn 0.282242 -0.166913 0.944711
vn -0.316525 -0.786848 0.529794
vn -0.334618 -0.941829 0.031447
vn 0.285988 -0.957705 0.031817
vn 0.260842 -0.802673 0.536356
vn -0.999947 0.000139 0.010305
vn -0.999698 -0.022737 0.009321
vn -0.998932 -0.015582 0.043498
vn -0.998906 0.000651 0.046767
vn -0.979368 -0.024901 0.200547
vn -0.419422 -0.153464 0.894726
vn -0.509689 0.023055 0.860050
vn -0.979266 0.004937 0.202521
vn 0.999717 -0.022102 0.008823
vn 0.998094 -0.061398 0.006146
vn 0.997857 -0.065432 -0.000809
vn 0.999715 -0.023884 -0.000292
vn 0.941056 -0.338155 0.008062
vn 0.285988 -0.957705 0.031817
vn 0.323737 -0.945907 -0.021295
vn 0.939114 -0.343523 -0.007596
vn 0.282242 -0.166913 0.944711
vn 0.952302 -0.046553 0.301586
vn 0.944853 0.007677 0.327405
vn 0.331026 0.025396 0.943280
vn 0.999203 -0.013368 0.037608
vn 0.999717 -0.022102 0.008823
vn 0.999951 0.000133 0.009851
vn 0.999251 0.000539 0.038684
vn -0.999698 0.022737 0.009321
vn -0.988900 0.148374 0.007866
vn -0.988428 0.151684 -0.001128
vn -0.999711 0.024042 -0.000000
vn -0.988900 0.148374 0.007866
vn -0.334618 0.941829 0.031447
vn -0.339131 0.940533 -0.019679
vn -0.988428 0.151684 -0.001128
vn -0.334618 0.941829 0.031447
vn -0.316525 0.786848 0.529794
vn 0.260842 0.802673 0.536356
vn 0.285988 0.957705 0.031817
vn -0.316525 0.786848 0.529794
vn -0.419422 0.153464 0.894726
vn 0.282242 0.166913 0.944711
vn 0.260842 0.802673 0.536356
vn 0.285988 0.957705 0.031817
vn 0.941056 0.338155 0.008062
vn 0.939114 0.343523 -0.007596
vn 0.323737 0.945907 -0.021295
vn 0.998094 0.061398 0.006146
vn 0.999717 0.022102 0.008823
vn 0.999715 0.023884 -0.000292
vn 0.997857 0.065432 -0.000809
vn -0.999947 0.000139 -0.010305
vn -0.994897 0.002138 -0.100870
vn -0.994192 -0.019323 -0.105875
vn -0.999698 -0.022737 -0.009321
vn -0.994897 0.002138 -0.100870
vn -0.509689 0.023055 -0.860050
vn -0.419422 -0.153464 -0.894726
vn -0.994192 -0.019323 -0.105875
vn -0.419422 0.153464 -0.894726
vn -0.316525 0.786848 -0.529794
vn 0.266593 0.801401 -0.535430
vn 0.275796 0.168192 -0.946387
vn -0.316525 0.786848 -0.529794
vn -0.334618 0.941829 -0.031447
vn 0.297870 0.954082 -0.031649
vn 0.266593 0.801401 -0.535430
vn 0.316690 0.025541 -0.948185
vn 0.939732 0.007979 -0.341819
vn 0.950095 -0.050295 -0.307880
vn 0.275796 -0.168192 -0.946387
vn 0.999269 0.000532 -0.038221
vn 0.999952 0.000133 -0.009821
vn 0.999713 -0.022253 -0.008823
vn 0.999221 -0.013005 -0.037263
vn -0.334618 -0.941829 -0.031447
vn -0.316525 -0.786848 -0.529794
vn 0.266593 -0.801401 -0.535430
vn 0.297870 -0.954082 -0.031649
vn -0.316525 -0.786848 -0.529794
vn -0.419422 -0.153464 -0.894726
vn 0.275796 -0.168192 -0.946387
vn 0.266593 -0.801401 -0.535430
vn -0.419422 -0.153464 0.894726
vn 0.282242 -0.166913 0.944711
vn 0.331026 0.025396 0.943280
vn -0.509689 0.023055 0.860050
vn -0.334618 0.941829 0.031447
vn 0.285988 0.957705 0.031817
vn 0.323737 0.945907 -0.021295
vn -0.339131 0.940533 -0.019679
vn -0.509689 0.023055 -0.860050
vn 0.316690 0.025541 -0.948185
vn 0.275796 -0.168192 -0.946387
vn -0.419422 -0.153464 -0.894726
vn -0.339131 -0.940533 -0.019679
vn 0.323737 -0.945907 -0.021295
vn 0.285988 -0.957705 0.031817
vn -0.334618 -0.941829 0.031447
vn 0.999717 -0.022102 0.008823
vn 0.999715 -0.023884 -0.000292
vn 1.000000 0.000000 0.000000
vn 0.999951 0.000133 0.009851
vn -1.000000 0.000000 0.000000
vn -0.999711 -0.024042 0.000000
vn -0.999698 -0.022737 0.009321
vn -0.999947 0.000139 0.010305
vn -0.998932 -0.015582 0.043498
vn -0.999698 -0.022737 0.009321
vn -0.988900 -0.148374 0.007866
vn -0.987866 -0.131406 0.082781
vn -0.988900 -0.148374 0.007866
vn -0.334618 -0.941829 0.031447
vn -0.316525 -0.786848 0.529794
vn -0.987866 -0.131406 0.082781
vn -0.316525 -0.786848 0.529794
vn -0.419422 -0.153464 0.894726
vn -0.979368 -0.024901 0.200547
vn -0.987866 -0.131406 0.082781
vn 0.260842 -0.802673 0.536356
vn 0.285988 -0.957705 0.031817
vn 0.941056 -0.338155 0.008062
vn 0.955953 -0.247279 0.158137
vn 0.998094 -0.061398 0.006146
vn 0.999717 -0.022102 0.008823
vn 0.999203 -0.013368 0.037608
vn 0.997660 -0.057510 0.036987
vn 0.952302 -0.046553 0.301586
vn 0.282242 -0.166913 0.944711
vn 0.260842 -0.802673 0.536356
vn 0.955953 -0.247279 0.158137
vn -0.316525 0.786848 0.529794
vn -0.334618 0.941829 0.031447
vn -0.988900 0.148374 0.007866
vn -0.987866 0.131406 0.082781
vn -0.988900 0.148374 0.007866
vn -0.999698 0.022737 0.009321
vn -0.998932 0.015582 0.043498
vn -0.987866 0.131406 0.082781
vn -0.979368 0.024901 0.200547
vn -0.419422 0.153464 0.894726
vn -0.316525 0.786848 0.529794
vn -0.987866 0.131406 0.082781
vn 0.999203 0.013368 0.037608
vn 0.999717 0.022102 0.008823
vn 0.998094 0.061398 0.006146
vn 0.997660 0.057510 0.036987
vn 0.941056 0.338155 0.008062
vn 0.285988 0.957705 0.031817
vn 0.260842 0.802673 0.536356
vn 0.955953 0.247279 0.158137
vn 0.260842 0.802673 0.536356
vn 0.282242 0.166913 0.944711
vn 0.952302 0.046553 0.301586
vn 0.955953 0.247279 0.158137
vn -0.316525 0.786848 -0.529794
vn -0.419422 0.153464 -0.894726
vn -0.994192 0.019323 -0.105875
vn -0.987866 0.131406 -0.082781
vn -0.994192 0.019323 -0.105875
vn -0.999698 0.022737 -0.009321
vn -0.988900 0.148374 -0.007866
vn -0.987866 0.131406 -0.082781
vn -0.988900 0.148374 -0.007866
vn -0.334618 0.941829 -0.031447
vn -0.316525 0.786848 -0.529794
vn -0.987866 0.131406 -0.082781
vn 0.998019 0.062610 -0.006191
vn 0.999713 0.022253 -0.008823
vn 0.999221 0.013005 -0.037263
vn 0.997556 0.059327 -0.036910
vn 0.950095 0.050295 -0.307880
vn 0.275796 0.168192 -0.946387
vn 0.266593 0.801401 -0.535430
vn 0.958104 0.243348 -0.151060
vn 0.266593 0.801401 -0.535430
vn 0.297870 0.954082 -0.031649
vn 0.945585 0.325275 -0.008048
vn 0.958104 0.243348 -0.151060
vn -0.316525 -0.786848 -0.529794
vn -0.334618 -0.941829 -0.031447
vn -0.988900 -0.148374 -0.007866
vn -0.987866 -0.131406 -0.082781
vn -0.988900 -0.148374 -0.007866
vn -0.999698 -0.022737 -0.009321
vn -0.994192 -0.019323 -0.105875
vn -0.987866 -0.131406 -0.082781
vn -0.994192 -0.019323 -0.105875
vn -0.419422 -0.153464 -0.894726
vn -0.316525 -0.786848 -0.529794
vn -0.987866 -0.131406 -0.082781
vn 0.999221 -0.013005 -0.037263
vn 0.999713 -0.022253 -0.008823
vn 0.998019 -0.062609 -0.006191
vn 0.997556 -0.059327 -0.036910
vn 0.945585 -0.325275 -0.008049
vn 0.297870 -0.954082 -0.031649
vn 0.266593 -0.801401 -0.535430
vn 0.958104 -0.243348 -0.151060
vn 0.266593 -0.801401 -0.535430
vn 0.275796 -0.168192 -0.946387
vn 0.950095 -0.050295 -0.307880
vn 0.958104 -0.243348 -0.151060
vn -0.000001 0.999087 0.042731
vn -0.000002 0.999702 0.024427
vn -0.000002 0.999702 0.024427
vn -0.000001 0.999087 0.042731
vn 0.000000 -0.027051 -0.999634
vn 0.000000 -0.027051 -0.999634
vn 0.000000 -0.073154 -0.997321
vn 0.000000 -0.073154 -0.997321
vn -0.000002 -0.999702 0.024427
vn -0.000002 -0.999702 0.024427
vn -0.000001 -0.999087 0.042731
vn -0.000001 -0.999087 0.042731
vn 0.000000 -0.073154 0.997321
vn 0.000000 -0.027051 0.999634
vn 0.000000 -0.027051 0.999634
vn 0.000000 -0.073154 0.997321
vn 0.000000 0.521625 -0.853175
vn 0.000000 0.840453 -0.541884
vn 0.000000 0.841705 -0.539937
vn 0.000000 0.521625 -0.853175
vn 0.000000 0.840453 -0.541884
vn 0.000000 0.965106 -0.261859
vn 0.000000 0.965106 -0.261859
vn 0.000000 0.841705 -0.539937
vn 0.000000 -0.965106 -0.261859
vn 0.000000 -0.840453 -0.541884
vn 0.000000 -0.841705 -0.539937
vn 0.000000 -0.965106 -0.261859
vn 0.000000 -0.840453 -0.541884
vn 0.000000 -0.521625 -0.853175
vn 0.000000 -0.521625 -0.853175
vn 0.000000 -0.841705 -0.539937
vn 0.000000 -0.557728 0.830024
vn 0.000000 -0.848566 0.529090
vn 0.000000 -0.849626 0.527385
vn 0.000000 -0.557728 0.830024
vn 0.000000 -0.848566 0.529090
vn 0.000000 -0.966886 0.255210
vn 0.000000 -0.966886 0.255210
vn 0.000000 -0.849626 0.527385
vn 0.000000 0.966886 0.255210
vn 0.000000 0.848566 0.529090
vn 0.000000 0.849626 0.527385
vn 0.000000 0.966886 0.255210
vn 0.000000 0.848566 0.529090
vn 0.000000 0.557728 0.830024
vn 0.000000 0.557728 0.830024
vn 0.000000 0.849626 0.527385
vn -0.999947 -0.000139 0.010305
vn -0.998906 -0.000651 0.046767
vn -0.998932 0.015582 0.043498
vn -0.999698 0.022737 0.009321
vn -0.999711 0.024042 -0.000000
vn -1.000000 0.000000 0.000000
vn -0.999947 -0.000139 0.010305
vn -0.999698 0.022737 0.009321
vn -0.999698 0.022737 -0.009321
vn -0.994192 0.019323 -0.105875
vn -0.994897 -0.002138 -0.100870
vn -0.999947 -0.000139 -0.010305
vn -0.994192 0.019323 -0.105875
vn -0.419422 0.153464 -0.894726
vn -0.509689 -0.023055 -0.860050
vn -0.994897 -0.002138 -0.100870
vn -0.419422 0.153464 -0.894726
vn 0.275796 0.168192 -0.946387
vn 0.316690 -0.025541 -0.948185
vn -0.509689 -0.023055 -0.860050
vn 0.275796 0.168192 -0.946387
vn 0.950095 0.050295 -0.307880
vn 0.939732 -0.007979 -0.341819
vn 0.316690 -0.025541 -0.948185
vn 0.000000 0.027051 0.999634
vn 0.000000 0.027051 0.999634
vn 0.000000 0.073154 0.997321
vn 0.000000 0.073154 0.997321
vn 0.999221 0.013005 -0.037263
vn 0.999713 0.022253 -0.008823
vn 0.999952 -0.000133 -0.009821
vn 0.999269 -0.000532 -0.038221
vn 0.999952 -0.000133 0.009851
vn 1.000000 0.000000 0.000000
vn 0.999715 0.023884 -0.000292
vn 0.999717 0.022102 0.008823
vn 0.999251 -0.000539 0.038684
vn 0.999952 -0.000133 0.009851
vn 0.999717 0.022102 0.008823
vn 0.999203 0.013368 0.037608
vn 0.000000 0.073154 -0.997321
vn 0.000000 0.027051 -0.999634
vn 0.000000 0.027051 -0.999634
vn 0.000000 0.073154 -0.997321
vn 0.331026 -0.025396 0.943280
vn 0.944853 -0.007677 0.327405
vn 0.952302 0.046553 0.301586
vn 0.282242 0.166913 0.944711
vn -0.509689 -0.023055 0.860050
vn 0.331026 -0.025396 0.943280
vn 0.282242 0.166913 0.944711
vn -0.419422 0.153464 0.894726
vn -0.509689 0.023055 0.860050
vn 0.331026 0.025396 0.943280
vn 0.331026 -0.025396 0.943280
vn -0.509689 -0.023055 0.860050
vn 0.331026 0.025396 0.943280
vn 0.944853 0.007677 0.327405
vn 0.944853 -0.007677 0.327405
vn 0.331026 -0.025396 0.943280
vn 0.000000 0.027051 -0.999634
vn 0.000000 0.027051 -0.999634
vn 0.000000 -0.027051 -0.999634
vn 0.000000 -0.027051 -0.999634
vn 0.999251 0.000539 0.038684
vn 0.999951 0.000133 0.009851
vn 0.999952 -0.000133 0.009851
vn 0.999251 -0.000539 0.038684
vn 0.999951 0.000133 0.009851
vn 1.000000 0.000000 0.000000
vn 1.000000 0.000000 0.000000
vn 0.999952 -0.000133 0.009851
vn 0.999269 -0.000532 -0.038221
vn 0.999952 -0.000133 -0.009821
vn 0.999952 0.000133 -0.009821
vn 0.999269 0.000532 -0.038221
vn 0.000000 -0.027051 0.999634
vn 0.000000 -0.027051 0.999634
vn 0.000000 0.027051 0.999634
vn 0.000000 0.027051 0.999634
vn 0.316690 -0.025541 -0.948185
vn 0.939732 -0.007979 -0.341819
vn 0.939732 0.007979 -0.341819
vn 0.316690 0.025541 -0.948185
vn -0.509689 -0.023055 -0.860050
vn 0.316690 -0.025541 -0.948185
vn 0.316690 0.025541 -0.948185
vn -0.509689 0.023055 -0.860050
vn -0.994897 -0.002138 -0.100870
vn -0.509689 -0.023055 -0.860050
vn -0.509689 0.023055 -0.860050
vn -0.994897 0.002138 -0.100870
vn -0.999947 -0.000139 -0.010305
vn -0.994897 -0.002138 -0.100870
vn -0.994897 0.002138 -0.100870
vn -0.999947 0.000139 -0.010305
vn -1.000000 0.000000 0.000000
vn -1.000000 0.000000 0.000000
vn -0.999947 0.000139 0.010305
vn -0.999947 -0.000139 0.010305
vn -0.999947 0.000139 0.010305
vn -0.998906 0.000651 0.046767
vn -0.998906 -0.000651 0.046767
vn -0.999947 -0.000139 0.010305
vn -0.979266 -0.004937 0.202521
vn -0.509689 -0.023055 0.860050
vn -0.419422 0.153464 0.894726
vn -0.979368 0.024901 0.200547
vn -0.979266 0.004937 0.202521
vn -0.509689 0.023055 0.860050
vn -0.509689 -0.023055 0.860050
vn -0.979266 -0.004937 0.202521
vn -0.339131 -0.940533 0.019679
vn -0.988428 -0.151684 0.001128
vn -0.988900 -0.148374 -0.007866
vn -0.334618 -0.941829 -0.031447
vn -0.334618 -0.941829 -0.031447
vn 0.297870 -0.954082 -0.031649
vn 0.330876 -0.943440 0.021012
vn -0.339131 -0.940533 0.019679
vn 0.941514 -0.336906 0.006812
vn 0.330876 -0.943440 0.021012
vn 0.297870 -0.954082 -0.031649
vn 0.945585 -0.325275 -0.008049
vn -0.000002 0.999789 -0.020546
vn -0.000002 0.999789 -0.020546
vn -0.000002 0.999207 -0.039812
vn -0.000002 0.999207 -0.039812
vn 0.999713 -0.023968 0.000246
vn 0.997814 -0.066082 0.000687
vn 0.998019 -0.062609 -0.006191
vn 0.999713 -0.022253 -0.008823
vn 1.000000 0.000000 0.000000
vn 0.999713 -0.023968 0.000246
vn 0.999713 -0.022253 -0.008823
vn 0.999952 0.000133 -0.009821
vn 1.000000 0.000000 0.000000
vn 1.000000 0.000000 0.000000
vn 0.999952 0.000133 -0.009821
vn 0.999952 -0.000133 -0.009821
vn 0.999713 0.023968 0.000246
vn 1.000000 0.000000 0.000000
vn 0.999952 -0.000133 -0.009821
vn 0.999713 0.022253 -0.008823
vn 0.997814 0.066082 0.000687
vn 0.999713 0.023968 0.000246
vn 0.999713 0.022253 -0.008823
vn 0.998019 0.062610 -0.006191
vn -0.000002 -0.999207 -0.039812
vn -0.000002 -0.999789 -0.020546
vn -0.000002 -0.999789 -0.020546
vn -0.000002 -0.999207 -0.039812
vn 0.330876 0.943440 0.021012
vn 0.941514 0.336906 0.006812
vn 0.945585 0.325275 -0.008048
vn 0.297870 0.954082 -0.031649
vn -0.339131 0.940533 0.019679
vn 0.330876 0.943440 0.021012
vn 0.297870 0.954082 -0.031649
vn -0.334618 0.941829 -0.031447
vn -0.988429 0.151684 0.001128
vn -0.339131 0.940533 0.019679
vn -0.334618 0.941829 -0.031447
vn -0.988900 0.148374 -0.007866
vn -0.999711 0.024042 0.000000
vn -0.988429 0.151684 0.001128
vn -0.988900 0.148374 -0.007866
vn -0.999698 0.022737 -0.009321
vn -0.999947 -0.000139 -0.010305
vn -1.000000 0.000000 0.000000
vn -0.999711 0.024042 0.000000
vn -0.999698 0.022737 -0.009321
vn -0.999947 0.000139 -0.010305
vn -1.000000 0.000000 0.000000
vn -1.000000 0.000000 0.000000
vn -0.999947 -0.000139 -0.010305
vn -0.999698 -0.022737 -0.009321
vn -0.999711 -0.024042 0.000000
vn -1.000000 0.000000 0.000000
vn -0.999947 0.000139 -0.010305
vn -1.000000 0.000000 0.000000
vn -0.999711 -0.024042 0.000000
vn -0.999711 -0.024042 0.000000
vn -1.000000 0.000000 0.000000
vn -1.000000 0.000000 0.000000
vn -1.000000 0.000000 0.000000
vn -1.000000 0.000000 0.000000
vn -1.000000 0.000000 0.000000
vn -0.999711 0.024042 0.000000
vn -1.000000 0.000000 0.000000
vn -1.000000 0.000000 0.000000
vn -0.999711 0.024042 -0.000000
vn -0.999711 0.024042 -0.000000
vn -0.988428 0.151684 -0.001128
vn -0.988429 0.151684 0.001128
vn -0.999711 0.024042 0.000000
vn -0.988428 0.151684 -0.001128
vn -0.339131 0.940533 -0.019679
vn -0.339131 0.940533 0.019679
vn -0.988429 0.151684 0.001128
vn -0.339131 0.940533 -0.019679
vn 0.323737 0.945907 -0.021295
vn 0.330876 0.943440 0.021012
vn -0.339131 0.940533 0.019679
vn 0.323737 0.945907 -0.021295
vn 0.939114 0.343523 -0.007596
vn 0.941514 0.336906 0.006812
vn 0.330876 0.943440 0.021012
vn -0.000002 -0.999789 -0.020546
vn -0.000002 -0.999789 -0.020546
vn -0.000002 -0.999702 0.024427
vn -0.000002 -0.999702 0.024427
vn 0.997857 0.065432 -0.000809
vn 0.999715 0.023884 -0.000292
vn 0.999713 0.023968 0.000246
vn 0.997814 0.066082 0.000687
vn 0.999715 0.023884 -0.000292
vn 1.000000 0.000000 0.000000
vn 1.000000 0.000000 0.000000
vn 0.999713 0.023968 0.000246
vn 1.000000 0.000000 0.000000
vn 1.000000 0.000000 0.000000
vn 1.000000 0.000000 0.000000
vn 1.000000 0.000000 0.000000
vn 1.000000 0.000000 0.000000
vn 0.999715 -0.023884 -0.000292
vn 0.999713 -0.023968 0.000246
vn 1.000000 0.000000 0.000000
vn 0.999715 -0.023884 -0.000292
vn 0.997857 -0.065432 -0.000809
vn 0.997814 -0.066082 0.000687
vn 0.999713 -0.023968 0.000246
vn -0.000002 0.999702 0.024427
vn -0.000002 0.999702 0.024427
vn -0.000002 0.999789 -0.020546
vn -0.000002 0.999789 -0.020546
vn 0.939114 -0.343523 -0.007596
vn 0.323737 -0.945907 -0.021295
vn 0.330876 -0.943440 0.021012
vn 0.941514 -0.336906 0.006812
vn -0.339131 -0.940533 0.019679
vn 0.330876 -0.943440 0.021012
vn 0.323737 -0.945907 -0.021295
vn -0.339131 -0.940533 -0.019679
vn -0.339131 -0.940533 -0.019679
vn -0.334618 -0.941829 0.031447
vn -0.988900 -0.148374 0.007866
vn -0.988428 -0.151684 -0.001128
vn -0.988428 -0.151684 0.001128
vn -0.999711 -0.024042 0.000000
vn -0.999698 -0.022737 -0.009321
vn -0.988900 -0.148374 -0.007866
vn -0.988428 -0.151684 -0.001128
vn -0.999711 -0.024042 0.000000
vn -0.999711 -0.024042 0.000000
vn -0.988428 -0.151684 0.001128
s off
g Running_Wall_Wider:Running_Wall
usemtl lambert4SG
f 292/304/709 289/305/710 290/306/711 291/307/712
f 193/308/713 198/309/714 323/310/715 289/305/716
f 196/311/717 195/312/718 202/313/719 201/314/720
f 195/312/721 194/315/722 203/316/723 202/313/724
f 264/317/725 198/309/726 197/318/727 261/319/728
f 197/318/729 196/311/730 287/320/731 261/319/732
f 245/321/733 246/322/734 297/323/735 300/324/736
f 199/325/737 203/316/738 293/326/739 295/327/740
f 201/314/741 200/328/742 283/329/743 286/330/744
f 249/331/745 245/321/746 279/332/747 281/333/748
f 205/334/749 204/335/750 315/336/751 318/337/752
f 204/335/753 209/338/754 313/339/755 315/336/756
f 209/338/757 208/340/758 212/341/759 211/342/760
f 208/340/761 207/343/762 213/344/763 212/341/764
f 211/342/765 210/345/766 309/346/767 312/347/768
f 252/348/769 250/349/770 305/350/771 307/351/772
f 265/352/773 268/353/774 228/354/775 227/355/776
f 268/353/777 270/356/778 229/357/779 228/354/780
f 220/358/781 219/359/782 223/360/783 222/361/784
f 219/359/785 218/362/786 224/363/787 223/360/788
f 271/364/789 274/365/790 236/366/791 235/367/792
f 276/368/793 278/369/794 248/370/795 256/371/796
f 231/372/797 230/373/798 234/374/799 233/375/800
f 230/373/801 229/357/802 235/367/803 234/374/804
f 196/311/805 201/314/806 286/330/807 287/320/808
f 209/338/809 211/342/810 312/347/811 313/339/812
f 270/356/813 271/364/814 235/367/815 229/357/816
f 292/304/817 293/326/818 203/316/819 194/315/820
f 245/321/821 300/324/822 302/376/823 279/332/824
f 321/377/825 323/310/826 198/309/827 264/317/828
f 197/318/829 198/309/830 193/308/831 237/378/832
f 193/308/833 194/315/834 195/312/835 237/378/836
f 195/312/837 196/311/838 197/318/839 237/378/840
f 202/313/841 203/316/842 199/325/843 238/379/844
f 246/322/845 245/321/846 249/331/847 257/380/848
f 200/328/849 201/314/850 202/313/851 238/379/852
f 208/340/853 209/338/854 204/335/855 239/381/856
f 204/335/857 205/334/858 206/382/859 239/381/860
f 206/382/861 207/343/862 208/340/863 239/381/864
f 251/383/865 250/349/866 252/348/867 258/384/868
f 210/345/869 211/342/870 212/341/871 240/385/872
f 212/341/873 213/344/874 214/386/875 240/385/876
f 219/359/877 220/358/878 215/387/879 241/388/880
f 215/387/881 216/389/882 217/390/883 241/388/884
f 217/390/885 218/362/886 219/359/887 241/388/888
f 254/391/889 253/392/890 255/393/891 259/394/892
f 221/395/893 222/361/894 223/360/895 242/396/896
f 223/360/897 224/363/898 225/397/899 242/396/900
f 230/373/901 231/372/902 226/398/903 243/399/904
f 226/398/905 227/355/906 228/354/907 243/399/908
f 228/354/909 229/357/910 230/373/911 243/399/912
f 256/371/913 248/370/914 247/400/915 260/401/916
f 232/402/917 233/375/918 234/374/919 244/403/920
f 234/374/921 235/367/922 236/366/923 244/403/924
f 199/325/925 295/327/926 297/323/927 246/322/928
f 281/333/929 283/329/930 200/328/931 249/331/932
f 307/351/933 309/346/934 210/345/935 252/348/936
f 236/366/937 274/365/938 276/368/939 256/371/940
f 200/328/941 238/379/942 257/380/943 249/331/944
f 238/379/945 199/325/946 246/322/947 257/380/948
f 210/345/949 240/385/950 258/384/951 252/348/952
f 240/385/953 214/386/954 251/383/955 258/384/956
f 221/395/957 242/396/958 259/394/959 255/393/960
f 242/396/961 225/397/962 254/391/963 259/394/964
f 232/402/965 244/403/966 260/401/967 247/400/968
f 244/403/969 236/366/970 256/371/971 260/401/972
f 263/404/973 262/405/974 206/382/975 205/334/976
f 318/337/977 320/406/978 263/404/979 205/334/980
f 216/389/981 215/387/982 267/407/983 266/408/984
f 215/387/985 220/358/986 269/409/987 267/407/988
f 220/358/989 222/361/990 272/410/991 269/409/992
f 222/361/993 221/395/994 273/411/995 272/410/996
f 275/412/997 273/411/998 221/395/999 255/393/1000
f 255/393/1001 253/392/1002 277/413/1003 275/412/1004
f 280/414/1005 303/415/1006 305/350/1007 250/349/1008
f 282/416/1009 280/414/1010 250/349/1011 251/383/1012
f 214/386/1013 284/417/1014 282/416/1015 251/383/1016
f 285/418/1017 284/417/1018 214/386/1019 213/344/1020
f 288/419/1021 285/418/1022 213/344/1023 207/343/1024
f 287/320/1025 286/330/1026 285/418/1027 288/419/1028
f 286/330/1029 283/329/1030 284/417/1031 285/418/1032
f 282/416/1033 284/417/1034 283/329/1035 281/333/1036
f 281/333/1037 279/332/1038 280/414/1039 282/416/1040
f 279/332/1041 302/376/1042 303/415/1043 280/414/1044
f 275/412/1045 277/413/1046 278/369/1047 276/368/1048
f 276/368/1049 274/365/1050 273/411/1051 275/412/1052
f 272/410/1053 273/411/1054 274/365/1055 271/364/1056
f 269/409/1057 272/410/1058 271/364/1059 270/356/1060
f 267/407/1061 269/409/1062 270/356/1063 268/353/1064
f 266/408/1065 267/407/1066 268/353/1067 265/352/1068
f 320/406/1069 321/377/1070 264/317/1071 263/404/1072
f 264/317/1073 261/319/1074 262/405/1075 263/404/1076
f 262/405/1077 288/419/1078 207/343/1079 206/382/1080
f 261/319/1081 287/320/1082 288/419/1083 262/405/1084
f 291/307/1085 290/306/1086 226/398/1087 231/372/1088
f 231/372/1089 233/375/1090 294/420/1091 291/307/1092
f 296/421/1093 294/420/1094 233/375/1095 232/402/1096
f 298/422/1097 296/421/1098 232/402/1099 247/400/1100
f 299/423/1101 298/422/1102 247/400/1103 248/370/1104
f 301/424/1105 299/423/1106 248/370/1107 278/369/1108
f 304/425/1109 301/424/1110 278/369/1111 277/413/1112
f 306/426/1113 304/425/1114 277/413/1115 253/392/1116
f 308/427/1117 306/426/1118 253/392/1119 254/391/1120
f 225/397/1121 310/428/1122 308/427/1123 254/391/1124
f 311/429/1125 310/428/1126 225/397/1127 224/363/1128
f 314/430/1129 311/429/1130 224/363/1131 218/362/1132
f 316/431/1133 314/430/1134 218/362/1135 217/390/1136
f 317/432/1137 316/431/1138 217/390/1139 216/389/1140
f 266/408/1141 319/433/1142 317/432/1143 216/389/1144
f 265/352/1145 322/434/1146 319/433/1147 266/408/1148
f 227/355/1149 324/435/1150 322/434/1151 265/352/1152
f 322/434/1153 324/435/1154 323/310/1155 321/377/1156
f 319/433/1157 322/434/1158 321/377/1159 320/406/1160
f 317/432/1161 319/433/1162 320/406/1163 318/337/1164
f 318/337/1165 315/336/1166 316/431/1167 317/432/1168
f 315/336/1169 313/339/1170 314/430/1171 316/431/1172
f 313/339/1173 312/347/1174 311/429/1175 314/430/1176
f 312/347/1177 309/346/1178 310/428/1179 311/429/1180
f 308/427/1181 310/428/1182 309/346/1183 307/351/1184
f 307/351/1185 305/350/1186 306/426/1187 308/427/1188
f 305/350/1189 303/415/1190 304/425/1191 306/426/1192
f 303/415/1193 302/376/1194 301/424/1195 304/425/1196
f 302/376/1197 300/324/1198 299/423/1199 301/424/1200
f 300/324/1201 297/323/1202 298/422/1203 299/423/1204
f 297/323/1205 295/327/1206 296/421/1207 298/422/1208
f 295/327/1209 293/326/1210 294/420/1211 296/421/1212
f 291/307/1213 294/420/1214 293/326/1215 292/304/1216
f 292/304/1217 194/315/1218 193/308/1219 289/305/1220
f 290/306/1221 324/435/1222 227/355/1223 226/398/1224
f 289/305/1225 323/310/1226 324/435/1227 290/306/1228
