# This file uses meters as units for non-parametric coordinates.

mtllib Running_Wall.mtl
g default
v 6.556827 3.589050 -74.391136
v 10.468117 3.589050 -74.391136
v 6.556827 -3.589050 -74.391136
v 10.468117 -3.589050 -74.391136
v 6.556827 -23.395830 -40.288254
v 6.556827 -10.829367 -18.449196
v 10.468117 -23.395830 -40.288254
v 10.468117 -10.829367 -18.449196
v 6.556827 23.395830 -40.288254
v 6.556827 10.829367 -18.449196
v 10.468117 23.395830 -40.288254
v 10.468117 10.829367 -18.449196
v 6.556827 -37.367077 -10.459858
v 6.556827 -35.927731 -7.958433
v 10.468117 -37.367077 -10.459858
v 10.468117 -35.927731 -7.958433
v 6.556827 35.927731 -7.958433
v 6.556827 37.367077 -10.459858
v 10.468117 35.927731 -7.958433
v 10.468117 37.367077 -10.459858
vt 0.625000 0.500000
vt 0.375000 0.750000
vt 0.782302 0.000000
vt 0.875000 0.000000
vt 0.875000 0.250000
vt 0.782303 0.250000
vt 0.625000 0.750000
vt 0.625000 0.842697
vt 0.375000 0.842697
vt 0.375000 0.407303
vt 0.375000 0.500000
vt 0.375000 0.087491
vt 0.625000 0.162509
vt 0.217697 0.000000
vt 0.625000 0.087491
vt 0.375000 0.162509
vt 0.625000 0.407303
vt 0.375000 0.087491
vt 0.217697 0.000000
vt 0.782302 0.000000
vt 0.625000 0.087491
vt 0.375000 0.407303
vt 0.375000 0.162509
vt 0.625000 0.162509
vt 0.625000 0.407303
vn 0.000000 0.000000 1.000000
vn 0.000000 0.000000 1.000000
vn 0.000000 0.000000 1.000000
vn 0.000000 0.000000 1.000000
vn 0.000000 0.864733 -0.502232
vn 0.000000 0.864733 -0.502232
vn 0.000000 0.864733 -0.502232
vn 0.000000 0.864733 -0.502232
vn 0.000000 0.000000 -1.000000
vn 0.000000 0.000000 -1.000000
vn 0.000000 0.000000 -1.000000
vn 0.000000 0.000000 -1.000000
vn 0.000000 -0.864733 -0.502232
vn 0.000000 -0.864733 -0.502232
vn 0.000000 -0.864733 -0.502232
vn 0.000000 -0.864733 -0.502232
vn 1.000000 -0.000000 0.000000
vn 1.000000 -0.000000 0.000000
vn 1.000000 -0.000000 0.000000
vn 1.000000 -0.000000 0.000000
vn 1.000000 -0.000000 0.000000
vn 1.000000 -0.000000 0.000000
vn 0.000000 -0.866753 0.498738
vn 0.000000 -0.866753 0.498738
vn 0.000000 -0.866753 0.498738
vn 0.000000 -0.866753 0.498738
vn 0.000000 0.866753 0.498738
vn 0.000000 0.866753 0.498738
vn 0.000000 0.866753 0.498738
vn 0.000000 0.866753 0.498738
vn 0.000000 -0.905585 -0.424165
vn 0.000000 -0.905585 -0.424165
vn 0.000000 -0.905585 -0.424165
vn 0.000000 -0.905585 -0.424165
vn 1.000000 0.000000 0.000000
vn 1.000000 0.000000 0.000000
vn 1.000000 0.000000 0.000000
vn 1.000000 0.000000 0.000000
vn 0.000000 0.385652 0.922644
vn 0.000000 0.385652 0.922644
vn 0.000000 0.385652 0.922644
vn 0.000000 0.385652 0.922644
vn 0.000000 -0.385652 0.922644
vn 0.000000 -0.385652 0.922644
vn 0.000000 -0.385652 0.922644
vn 0.000000 -0.385652 0.922644
vn 1.000000 0.000000 0.000000
vn 1.000000 0.000000 0.000000
vn 1.000000 0.000000 0.000000
vn 1.000000 0.000000 0.000000
vn 0.000000 0.905585 -0.424165
vn 0.000000 0.905585 -0.424165
vn 0.000000 0.905585 -0.424165
vn 0.000000 0.905585 -0.424165
s off
g Arrow1
usemtl initialShadingGroup
f 6/12/1 8/15/2 12/13/3 10/16/4
f 9/10/5 11/17/6 2/1/7 1/11/8
f 1/11/9 2/1/10 4/7/11 3/2/12
f 3/2/13 4/7/14 7/8/15 5/9/16
f 8/15/17 7/3/18 4/4/19 2/5/20 11/6/21 12/13/22
f 14/18/23 13/19/24 15/20/25 16/21/26
f 18/22/27 17/23/28 19/24/29 20/25/30
f 5/14/31 7/3/32 15/20/33 13/19/34
f 7/3/35 8/15/36 16/21/37 15/20/38
f 8/15/39 6/12/40 14/18/41 16/21/42
f 10/16/43 12/13/44 19/24/45 17/23/46
f 12/13/47 11/17/48 20/25/49 19/24/50
f 11/17/51 9/10/52 18/22/53 20/25/54
g default
v 6.556827 3.589050 7.832700
v 10.468117 3.589050 7.832700
v 6.556827 -3.589050 7.832700
v 10.468117 -3.589050 7.832700
v 6.556827 -23.395830 41.935585
v 6.556827 -10.829367 63.774643
v 10.468117 -23.395830 41.935585
v 10.468117 -10.829367 63.774643
v 6.556827 23.395830 41.935585
v 6.556827 10.829367 63.774643
v 10.468117 23.395830 41.935585
v 10.468117 10.829367 63.774643
v 6.556827 -37.367077 71.763985
v 6.556827 -35.927731 74.265404
v 10.468117 -37.367077 71.763985
v 10.468117 -35.927731 74.265404
v 6.556827 35.927731 74.265404
v 6.556827 37.367077 71.763985
v 10.468117 35.927731 74.265404
v 10.468117 37.367077 71.763985
vt 0.625000 0.500000
vt 0.375000 0.750000
vt 0.782302 0.000000
vt 0.875000 0.000000
vt 0.875000 0.250000
vt 0.782303 0.250000
vt 0.625000 0.750000
vt 0.625000 0.842697
vt 0.375000 0.842697
vt 0.375000 0.407303
vt 0.375000 0.500000
vt 0.375000 0.087491
vt 0.625000 0.162509
vt 0.217697 0.000000
vt 0.625000 0.087491
vt 0.375000 0.162509
vt 0.625000 0.407303
vt 0.375000 0.087491
vt 0.217697 0.000000
vt 0.782302 0.000000
vt 0.625000 0.087491
vt 0.375000 0.407303
vt 0.375000 0.162509
vt 0.625000 0.162509
vt 0.625000 0.407303
vn 0.000000 0.000000 1.000000
vn 0.000000 0.000000 1.000000
vn 0.000000 0.000000 1.000000
vn 0.000000 0.000000 1.000000
vn 0.000000 0.864733 -0.502232
vn 0.000000 0.864733 -0.502232
vn 0.000000 0.864733 -0.502232
vn 0.000000 0.864733 -0.502232
vn 0.000000 0.000000 -1.000000
vn 0.000000 0.000000 -1.000000
vn 0.000000 0.000000 -1.000000
vn 0.000000 0.000000 -1.000000
vn 0.000000 -0.864733 -0.502232
vn 0.000000 -0.864733 -0.502232
vn 0.000000 -0.864733 -0.502232
vn 0.000000 -0.864733 -0.502232
vn 1.000000 0.000000 0.000000
vn 1.000000 0.000000 0.000000
vn 1.000000 0.000000 0.000000
vn 1.000000 0.000000 0.000000
vn 1.000000 0.000000 0.000000
vn 1.000000 0.000000 0.000000
vn 0.000000 -0.866752 0.498739
vn 0.000000 -0.866752 0.498739
vn 0.000000 -0.866752 0.498739
vn 0.000000 -0.866752 0.498739
vn 0.000000 0.866752 0.498739
vn 0.000000 0.866752 0.498739
vn 0.000000 0.866752 0.498739
vn 0.000000 0.866752 0.498739
vn 0.000000 -0.905585 -0.424165
vn 0.000000 -0.905585 -0.424165
vn 0.000000 -0.905585 -0.424165
vn 0.000000 -0.905585 -0.424165
vn 1.000000 0.000000 0.000000
vn 1.000000 0.000000 0.000000
vn 1.000000 0.000000 0.000000
vn 1.000000 0.000000 0.000000
vn 0.000000 0.385652 0.922644
vn 0.000000 0.385652 0.922644
vn 0.000000 0.385652 0.922644
vn 0.000000 0.385652 0.922644
vn 0.000000 -0.385652 0.922644
vn 0.000000 -0.385652 0.922644
vn 0.000000 -0.385652 0.922644
vn 0.000000 -0.385652 0.922644
vn 1.000000 0.000000 0.000000
vn 1.000000 0.000000 0.000000
vn 1.000000 0.000000 0.000000
vn 1.000000 0.000000 0.000000
vn 0.000000 0.905585 -0.424165
vn 0.000000 0.905585 -0.424165
vn 0.000000 0.905585 -0.424165
vn 0.000000 0.905585 -0.424165
s off
g Arrow
usemtl initialShadingGroup
f 26/37/55 28/40/56 32/38/57 30/41/58
f 29/35/59 31/42/60 22/26/61 21/36/62
f 21/36/63 22/26/64 24/32/65 23/27/66
f 23/27/67 24/32/68 27/33/69 25/34/70
f 28/40/71 27/28/72 24/29/73 22/30/74 31/31/75 32/38/76
f 34/43/77 33/44/78 35/45/79 36/46/80
f 38/47/81 37/48/82 39/49/83 40/50/84
f 25/39/85 27/28/86 35/45/87 33/44/88
f 27/28/89 28/40/90 36/46/91 35/45/92
f 28/40/93 26/37/94 34/43/95 36/46/96
f 30/41/97 32/38/98 39/49/99 37/48/100
f 32/38/101 31/42/102 40/50/103 39/49/104
f 31/42/105 29/35/106 38/47/107 40/50/108
g default
v -9.821655 -60.876423 71.627449
v -7.652233 -69.231918 72.715714
v -7.652233 -63.149265 94.748756
v -7.652233 -48.464420 103.875137
v -9.821655 -46.720108 93.330750
v -10.767694 -46.720108 71.627449
v 9.821655 -63.399082 71.627449
v 9.821655 -46.720108 97.561050
v 7.652233 -48.464420 103.875137
v 7.652233 -63.149265 94.748756
v 7.652233 -69.231918 72.715714
v -9.821655 60.876423 71.627449
v -10.767694 46.720108 71.627449
v -9.821655 46.720108 93.330750
v -7.652233 48.464420 103.875137
v -7.652233 63.149265 94.748756
v -7.652233 69.231918 72.715714
v 9.821655 63.399082 71.627449
v 7.652233 69.231918 72.715714
v 7.652233 63.149265 94.748756
v 7.652233 48.464420 103.875137
v 9.821655 46.720108 97.561050
v -9.821655 46.720108 -93.330750
v -10.767694 46.720108 -71.627449
v -9.821655 60.876423 -71.627449
v -7.652233 69.231918 -72.715714
v -7.652233 63.149265 -94.748756
v -7.652233 48.464420 -103.875137
v 9.821655 46.720108 -97.857658
v 7.652233 48.464420 -103.875137
v 7.652233 63.149265 -94.748756
v 7.652233 69.231918 -72.715714
v 9.821655 63.038956 -71.627449
v -9.821655 -60.876423 -71.627449
v -10.767694 -46.720108 -71.627449
v -9.821655 -46.720108 -93.330750
v -7.652233 -48.464420 -103.875137
v -7.652233 -63.149265 -94.748756
v -7.652233 -69.231918 -72.715714
v 9.821655 -63.038956 -71.627449
v 7.652233 -69.231918 -72.715714
v 7.652233 -63.149265 -94.748756
v 7.652233 -48.464420 -103.875137
v 9.821655 -46.720108 -97.857658
v -9.401892 -58.274643 89.341919
v 9.401892 -58.280285 90.493240
v -9.401892 58.274643 89.341919
v 9.401892 58.280285 90.493240
v -9.401892 58.274643 -89.341919
v 9.401892 58.141098 -90.183411
v -9.401892 -58.274643 -89.341919
v 9.401892 -58.141098 -90.183411
v 9.454450 -46.720108 71.627449
v 8.508410 -63.399082 71.627449
v 8.508410 -63.038956 -71.627449
v 9.454450 -46.720108 -71.627449
v 8.508410 -46.720108 97.561050
v 9.454450 46.720108 71.627449
v 8.508410 46.720108 97.561050
v 8.508410 63.399082 71.627449
v 9.454450 46.720108 -71.627449
v 8.508410 63.038956 -71.627449
v 8.508410 46.720108 -97.857658
v 8.508410 -46.720108 -97.857658
v 8.088647 -58.280285 90.493240
v 8.088647 58.280285 90.493240
v 8.088647 58.141098 -90.183411
v 8.088647 -58.141098 -90.183411
v -9.821655 -21.537687 91.483612
v -9.821655 21.537687 91.483612
v -10.767694 21.537687 71.627449
v -10.767694 -21.537687 71.627449
v -10.767694 -21.537687 -71.627449
v -10.767694 21.537687 -71.627449
v -9.821655 21.537687 -91.483612
v -9.821655 -21.537687 -91.483612
v -7.652233 22.341806 -101.999947
v -7.652233 -22.341806 -101.999947
v 7.652233 -22.341806 -101.999947
v 7.652233 22.341806 -101.999947
v 9.821655 21.537687 -96.010513
v 9.821655 -21.537687 -96.010513
v 8.508410 21.537687 -96.010513
v 8.508410 -21.537687 -96.010513
v 9.454450 21.537687 -71.627449
v 9.454450 -21.537687 -71.627449
v 9.454450 -21.537687 71.627449
v 9.454450 21.537687 71.627449
v 8.508410 -21.537687 95.713905
v 8.508410 21.537687 95.713905
v 9.821655 -21.537687 95.713905
v 9.821655 21.537687 95.713905
v 7.652233 22.341806 101.999947
v 7.652233 -22.341806 101.999947
v -7.652233 -22.341806 101.999947
v -7.652233 22.341806 101.999947
v -9.821653 -60.876423 29.947002
v -9.821655 -60.876423 -29.947008
v -7.652233 -66.274345 -30.402002
v -7.652233 -66.274345 30.402002
v 7.652233 -66.274345 30.402002
v 7.652233 -66.274345 -30.402002
v 9.821653 -60.336727 29.947002
v 9.821655 -60.186165 -29.947008
v 8.508410 -60.336731 29.947002
v 8.508410 -60.186169 -29.947008
v 9.454450 -46.720108 -29.947002
v 9.454451 -46.720108 29.947008
v 9.454450 -21.537687 -29.947002
v 9.454451 -21.537687 29.947008
v 9.454450 21.537687 29.947002
v 9.454451 21.537687 -29.947008
v 9.454450 46.720108 29.947002
v 9.454451 46.720108 -29.947008
v 8.508410 60.336731 29.947002
v 8.508410 60.186169 -29.947008
v 9.821653 60.336727 29.947002
v 9.821655 60.186165 -29.947008
v 7.652233 66.274345 -30.402002
v 7.652233 66.274345 30.402002
v -7.652233 66.274345 30.402002
v -7.652233 66.274345 -30.402002
v -9.821653 60.876423 29.947002
v -9.821655 60.876423 -29.947008
v -10.767694 46.720108 -29.947002
v -10.767694 46.720108 29.947008
v -10.767694 21.537687 -29.947002
v -10.767694 21.537687 29.947008
v -10.767694 -21.537687 29.947002
v -10.767694 -21.537687 -29.947008
v -10.767694 -46.720108 29.947002
v -10.767694 -46.720108 -29.947008
vt 0.412496 0.962504
vt 0.412496 0.037496
vt 0.587504 0.962504
vt 0.662496 0.037496
vt 0.412496 0.212504
vt 0.587504 0.212504
vt 0.662496 0.212504
vt 0.162496 0.037496
vt 0.412496 0.462504
vt 0.587504 0.462504
vt 0.837504 0.212504
vt 0.837504 0.037496
vt 0.587504 0.787496
vt 0.412496 0.712504
vt 0.587504 0.712504
vt 0.587504 0.037496
vt 0.412496 0.287496
vt 0.587504 0.287496
vt 0.412496 0.537496
vt 0.587504 0.537496
vt 0.412496 0.787496
vt 0.337504 0.037496
vt 0.337504 0.212504
vt 0.162496 0.212504
vt 0.375000 0.974242
vt 0.349242 -0.000000
vt 0.400758 -0.000000
vt 0.400758 1.000000
vt 0.375000 0.035726
vt 0.650758 -0.000000
vt 0.625000 0.974242
vt 0.625000 0.035726
vt 0.599242 1.000000
vt 0.599242 -0.000000
vt 0.349242 0.250000
vt 0.375000 0.275758
vt 0.375000 0.214274
vt 0.410726 0.250000
vt 0.625000 0.275758
vt 0.650758 0.250000
vt 0.589274 0.250000
vt 0.625000 0.214274
vt 0.125000 0.224242
vt 0.375000 0.525758
vt 0.375000 0.474242
vt 0.150758 0.250000
vt 0.410726 0.500000
vt 0.625000 0.525758
vt 0.875000 0.224242
vt 0.589274 0.500000
vt 0.849242 0.250000
vt 0.625000 0.474242
vt 0.150758 -0.000000
vt 0.375000 0.775758
vt 0.375000 0.724242
vt 0.125000 0.025758
vt 0.410726 0.750000
vt 0.625000 0.775758
vt 0.849242 -0.000000
vt 0.589274 0.750000
vt 0.875000 0.025758
vt 0.625000 0.724242
vt 0.375000 1.000000
vt 0.375000 0.000000
vt 0.625000 0.000000
vt 0.625000 1.000000
vt 0.375000 0.250000
vt 0.625000 0.250000
vt 0.125000 0.250000
vt 0.375000 0.500000
vt 0.625000 0.500000
vt 0.875000 0.250000
vt 0.125000 0.000000
vt 0.375000 0.750000
vt 0.625000 0.750000
vt 0.875000 0.000000
vt 0.650758 -0.000000
vt 0.849242 -0.000000
vt 0.625000 0.214274
vt 0.625000 0.035726
vt 0.849242 0.250000
vt 0.650758 0.250000
vt 0.875000 0.025758
vt 0.875000 0.224242
vt 0.625000 0.000000
vt 0.625000 0.250000
vt 0.875000 0.250000
vt 0.875000 0.000000
vt 0.375000 0.083845
vt 0.375000 0.166155
vt 0.337504 0.165339
vt 0.337504 0.084661
vt 0.162496 0.084661
vt 0.162496 0.165339
vt 0.125000 0.170750
vt 0.375000 0.579250
vt 0.125000 0.079250
vt 0.375000 0.670750
vt 0.412496 0.584661
vt 0.412496 0.665339
vt 0.587504 0.665339
vt 0.587504 0.584661
vt 0.625000 0.579250
vt 0.875000 0.170750
vt 0.625000 0.670750
vt 0.875000 0.079250
vt 0.875000 0.170750
vt 0.875000 0.079250
vt 0.837504 0.165339
vt 0.837504 0.084661
vt 0.662496 0.084661
vt 0.662496 0.165339
vt 0.625000 0.083845
vt 0.625000 0.166155
vt 0.625000 0.083845
vt 0.625000 0.166155
vt 0.587504 0.165339
vt 0.587504 0.084661
vt 0.412496 0.084661
vt 0.412496 0.165339
vt 0.375000 0.916492
vt 0.291492 -0.000000
vt 0.375000 0.833508
vt 0.208508 -0.000000
vt 0.412496 0.838415
vt 0.412496 0.911585
vt 0.587504 0.911585
vt 0.587504 0.838415
vt 0.708508 -0.000000
vt 0.625000 0.916492
vt 0.791492 -0.000000
vt 0.625000 0.833508
vt 0.708508 -0.000000
vt 0.791492 -0.000000
vt 0.786585 0.037496
vt 0.713415 0.037496
vt 0.786585 0.084661
vt 0.713415 0.084661
vt 0.713415 0.165339
vt 0.786585 0.165339
vt 0.713415 0.212504
vt 0.786585 0.212504
vt 0.708508 0.250000
vt 0.791492 0.250000
vt 0.625000 0.333508
vt 0.708508 0.250000
vt 0.625000 0.416492
vt 0.791492 0.250000
vt 0.587504 0.411585
vt 0.587504 0.338415
vt 0.412496 0.338415
vt 0.412496 0.411585
vt 0.291492 0.250000
vt 0.375000 0.333508
vt 0.208508 0.250000
vt 0.375000 0.416492
vt 0.213415 0.212504
vt 0.286585 0.212504
vt 0.213415 0.165339
vt 0.286585 0.165339
vt 0.286585 0.084661
vt 0.213415 0.084661
vt 0.286585 0.037496
vt 0.213415 0.037496
vn -0.326826 -0.944739 -0.025566
vn -0.988063 -0.154041 -0.001467
vn -0.988063 -0.154041 0.001467
vn -0.326826 -0.944739 0.025566
vn -0.989033 -0.147221 0.011851
vn -0.999660 -0.022100 0.013866
vn -0.999711 -0.024042 -0.000000
vn -0.419422 -0.153464 0.894726
vn -0.316525 -0.786848 0.529794
vn 0.260842 -0.802673 0.536355
vn 0.282242 -0.166913 0.944711
vn -0.330350 -0.942720 0.046342
vn 0.283731 -0.957759 0.046838
vn -0.999883 0.000207 0.015287
vn -0.998932 -0.015582 0.043498
vn -0.998906 0.000651 0.046767
vn -0.979368 -0.024901 0.200547
vn -0.509689 0.023055 0.860050
vn -0.979266 0.004937 0.202521
vn 0.999686 -0.021480 0.012889
vn 0.998099 -0.060904 0.009427
vn 0.997793 -0.066387 -0.001077
vn 0.999712 -0.024015 -0.000380
vn 0.942325 -0.334498 0.011628
vn 0.321680 -0.946447 -0.027582
vn 0.939344 -0.342843 -0.009529
vn 0.952302 -0.046553 0.301586
vn 0.944853 0.007677 0.327405
vn 0.331026 0.025396 0.943280
vn 0.999203 -0.013368 0.037608
vn 0.999898 0.000194 0.014309
vn 0.999251 0.000539 0.038684
vn -0.999660 0.022100 0.013866
vn -0.989033 0.147221 0.011851
vn -0.988063 0.154041 -0.001467
vn -0.999711 0.024042 -0.000000
vn -0.330350 0.942720 0.046342
vn -0.326826 0.944739 -0.025566
vn -0.316525 0.786848 0.529794
vn 0.260842 0.802673 0.536355
vn 0.283731 0.957759 0.046838
vn -0.419422 0.153464 0.894726
vn 0.282242 0.166913 0.944711
vn 0.942325 0.334498 0.011628
vn 0.939344 0.342843 -0.009529
vn 0.321680 0.946447 -0.027582
vn 0.998099 0.060904 0.009427
vn 0.999686 0.021480 0.012889
vn 0.999712 0.024015 -0.000380
vn 0.997793 0.066387 -0.001077
vn -0.999883 0.000207 -0.015287
vn -0.994897 0.002138 -0.100870
vn -0.994192 -0.019323 -0.105875
vn -0.999660 -0.022100 -0.013866
vn -0.509689 0.023055 -0.860050
vn -0.419422 -0.153464 -0.894726
vn -0.419422 0.153464 -0.894726
vn -0.316525 0.786848 -0.529794
vn 0.266593 0.801401 -0.535429
vn 0.275796 0.168192 -0.946387
vn -0.330350 0.942720 -0.046342
vn 0.295074 0.954337 -0.046609
vn 0.316690 0.025541 -0.948185
vn 0.939732 0.007979 -0.341818
vn 0.950095 -0.050295 -0.307879
vn 0.275796 -0.168192 -0.946387
vn 0.999269 0.000532 -0.038221
vn 0.999899 0.000193 -0.014245
vn 0.999683 -0.021633 -0.012879
vn 0.999221 -0.013005 -0.037263
vn -0.330350 -0.942720 -0.046342
vn -0.316525 -0.786848 -0.529794
vn 0.266593 -0.801401 -0.535430
vn 0.295074 -0.954337 -0.046609
vn 1.000000 0.000000 0.000000
vn -1.000000 -0.000000 0.000000
vn -0.987866 -0.131406 0.082781
vn 0.955953 -0.247279 0.158137
vn 0.997660 -0.057510 0.036987
vn -0.987866 0.131406 0.082781
vn -0.998932 0.015582 0.043498
vn -0.979368 0.024901 0.200547
vn 0.999203 0.013368 0.037608
vn 0.997660 0.057510 0.036987
vn 0.955953 0.247279 0.158137
vn 0.952302 0.046553 0.301586
vn -0.994192 0.019323 -0.105875
vn -0.987866 0.131406 -0.082781
vn -0.999660 0.022100 -0.013866
vn -0.989033 0.147221 -0.011851
vn 0.998019 0.062194 -0.009481
vn 0.999683 0.021633 -0.012879
vn 0.999221 0.013005 -0.037263
vn 0.997556 0.059327 -0.036910
vn 0.950095 0.050295 -0.307879
vn 0.958104 0.243348 -0.151060
vn 0.946820 0.321554 -0.011642
vn -0.989033 -0.147221 -0.011851
vn -0.987866 -0.131406 -0.082781
vn 0.998019 -0.062194 -0.009481
vn 0.997556 -0.059327 -0.036910
vn 0.946820 -0.321554 -0.011642
vn 0.958104 -0.243348 -0.151060
vn -0.000001 0.997312 0.073275
vn -0.000002 0.999500 0.031615
vn -0.000002 0.999500 0.031615
vn -0.000001 0.997312 0.073275
vn 0.000000 -0.027051 -0.999634
vn 0.000000 -0.027051 -0.999634
vn 0.000000 -0.073154 -0.997321
vn 0.000000 -0.073154 -0.997321
vn -0.000002 -0.999500 0.031615
vn -0.000002 -0.999500 0.031615
vn -0.000001 -0.997312 0.073275
vn -0.000001 -0.997312 0.073275
vn 0.000000 -0.073154 0.997321
vn 0.000000 -0.027051 0.999634
vn 0.000000 -0.027051 0.999634
vn 0.000000 -0.073154 0.997321
vn 0.000000 0.521625 -0.853175
vn 0.000000 0.840453 -0.541884
vn 0.000000 0.841705 -0.539937
vn 0.000000 0.521625 -0.853175
vn 0.000000 0.965106 -0.261859
vn 0.000000 0.965106 -0.261859
vn 0.000000 -0.965106 -0.261859
vn 0.000000 -0.840453 -0.541884
vn 0.000000 -0.841705 -0.539937
vn 0.000000 -0.965106 -0.261859
vn 0.000000 -0.521625 -0.853175
vn 0.000000 -0.521625 -0.853175
vn 0.000000 -0.557728 0.830024
vn 0.000000 -0.848566 0.529090
vn 0.000000 -0.849626 0.527385
vn 0.000000 -0.557728 0.830024
vn 0.000000 -0.966886 0.255210
vn 0.000000 -0.966886 0.255210
vn 0.000000 0.966886 0.255210
vn 0.000000 0.848566 0.529090
vn 0.000000 0.849626 0.527385
vn 0.000000 0.966886 0.255210
vn 0.000000 0.557728 0.830024
vn 0.000000 0.557728 0.830024
vn -0.999883 -0.000207 0.015287
vn -0.998906 -0.000651 0.046767
vn -1.000000 -0.000000 0.000000
vn -0.994897 -0.002138 -0.100870
vn -0.999883 -0.000207 -0.015287
vn -0.509689 -0.023055 -0.860050
vn 0.316690 -0.025541 -0.948185
vn 0.939732 -0.007979 -0.341818
vn 0.000000 0.027051 0.999634
vn 0.000000 0.027051 0.999634
vn 0.000000 0.073154 0.997321
vn 0.000000 0.073154 0.997321
vn 0.999899 -0.000193 -0.014245
vn 0.999269 -0.000532 -0.038221
vn 0.999898 -0.000194 0.014309
vn 1.000000 0.000000 0.000000
vn 0.999251 -0.000539 0.038684
vn 0.000000 0.073154 -0.997321
vn 0.000000 0.027051 -0.999634
vn 0.000000 0.027051 -0.999634
vn 0.000000 0.073154 -0.997321
vn 0.331026 -0.025396 0.943280
vn 0.944853 -0.007677 0.327405
vn -0.509689 -0.023055 0.860050
vn -0.979266 -0.004937 0.202521
vn 0.327254 -0.944544 0.027230
vn 0.941118 -0.337969 0.008595
vn -0.000002 0.999646 -0.026594
vn -0.000002 0.999646 -0.026594
vn -0.000001 0.997666 -0.068285
vn -0.000001 0.997666 -0.068285
vn 0.999710 -0.024079 0.000320
vn 0.997759 -0.066901 0.000913
vn 1.000000 -0.000000 -0.000000
vn 1.000000 -0.000000 -0.000000
vn 0.999710 0.024079 0.000320
vn 0.997759 0.066901 0.000913
vn -0.000001 -0.997666 -0.068285
vn -0.000002 -0.999646 -0.026594
vn -0.000002 -0.999646 -0.026594
vn -0.000001 -0.997666 -0.068285
vn 0.327254 0.944544 0.027230
vn 0.941118 0.337968 0.008595
vn -0.326826 0.944739 0.025566
vn -0.988063 0.154041 0.001467
vn -0.999711 0.024042 0.000000
vn -1.000000 0.000000 0.000000
vn -1.000000 0.000000 0.000000
vn -0.999711 -0.024042 0.000000
s 1
g Running_Wall
usemtl initialShadingGroup
f 140/176/109 137/171/110 138/173/111 139/175/112
f 41/76/113 46/72/114 171/213/115 137/172/110
f 44/52/116 43/77/117 50/84/118 49/66/119
f 43/78/117 42/51/120 51/53/121 50/83/118
f 112/142/122 46/72/114 45/79/123 109/139/124
f 45/79/125 44/52/116 135/169/126 109/139/127
s 4
f 93/54/128 94/127/129 145/183/130 148/186/131
s 1
f 47/81/132 51/53/121 141/177/133 143/180/134
f 49/66/119 48/82/135 131/165/136 134/168/137
s 4
f 97/130/138 93/54/128 127/161/139 129/163/140
s 1
f 53/73/141 52/85/142 163/203/143 166/208/144
f 52/86/142 57/67/145 161/201/146 163/204/143
f 57/67/145 56/88/147 60/91/148 59/68/149
f 56/88/147 55/55/150 61/56/151 60/91/148
f 59/68/149 58/89/152 157/195/153 160/200/154
s 4
f 100/132/155 98/57/156 153/191/157 155/193/158
s 1
f 113/143/159 116/147/160 76/106/161 75/58/162
f 116/148/160 118/150/163 77/64/164 76/105/161
f 68/69/165 67/97/166 71/100/167 70/70/168
f 67/97/166 66/59/169 72/60/170 71/100/167
f 119/151/171 122/155/172 84/112/173 83/65/174
s 4
f 124/158/175 126/160/176 96/62/177 104/133/178
s 1
f 79/71/179 78/107/180 82/110/181 81/63/182
f 78/107/180 77/64/164 83/65/174 82/110/181
f 44/52/116 49/66/119 134/168/137 135/169/126
f 57/67/145 59/68/149 160/200/154 161/201/146
f 118/150/163 119/151/171 83/65/174 77/64/164
f 140/176/109 141/177/133 51/53/121 42/51/120
s 4
f 93/54/128 148/186/131 150/188/183 127/161/139
s 1
f 169/211/184 171/213/115 46/72/114 112/142/122
f 45/79/123 46/72/114 41/76/113 85/114/185
f 41/75/113 42/51/120 43/78/117 85/113/185
f 43/77/117 44/52/116 45/79/125 85/114/185
f 50/83/118 51/53/121 47/81/132 86/116/186
s 4
f 94/127/129 93/54/128 97/130/138 105/135/187
s 1
f 48/82/135 49/66/119 50/84/118 86/115/186
f 56/88/147 57/67/145 52/86/142 87/117/188
f 52/85/142 53/73/141 54/87/189 87/117/188
f 54/87/190 55/55/150 56/88/147 87/117/188
s 4
f 99/129/191 98/57/156 100/132/155 106/136/192
s 1
f 58/89/152 59/68/149 60/91/148 88/118/193
f 60/91/148 61/56/151 62/92/194 88/118/193
f 67/97/166 68/69/165 63/94/195 89/120/196
f 63/93/195 64/74/197 65/96/198 89/119/196
f 65/95/198 66/59/169 67/97/166 89/120/196
s 4
f 102/131/199 101/61/200 103/134/201 107/137/202
s 1
f 69/98/203 70/70/168 71/100/167 90/121/204
f 71/100/167 72/60/170 73/102/205 90/121/204
f 78/107/180 79/71/179 74/104/206 91/124/207
f 74/103/206 75/58/162 76/106/161 91/123/207
f 76/105/161 77/64/164 78/107/180 91/124/207
s 4
f 104/133/178 96/62/177 95/128/208 108/138/209
s 1
f 80/108/210 81/63/182 82/110/181 92/125/211
f 82/110/181 83/65/174 84/112/173 92/125/211
s 13
f 47/80/212 143/179/213 145/183/214 94/127/215
s 14
f 129/163/216 131/165/217 48/82/218 97/130/219
s 15
f 155/193/220 157/196/221 58/90/222 100/132/223
s 16
f 84/111/224 122/156/225 124/158/226 104/133/227
s 17
f 48/82/228 86/115/229 105/135/230 97/130/231
f 86/115/229 47/80/232 94/127/233 105/135/230
s 18
f 58/90/234 88/118/235 106/136/236 100/132/237
f 88/118/235 62/92/238 99/129/239 106/136/236
s 19
f 69/99/240 90/122/241 107/137/242 103/134/243
f 90/122/241 73/101/244 102/131/245 107/137/242
s 20
f 80/109/246 92/126/247 108/138/248 95/128/249
f 92/126/247 84/111/250 104/133/251 108/138/248
s 1
f 111/141/252 110/140/253 54/87/189 53/73/141
f 166/208/144 168/210/254 111/141/252 53/73/141
f 64/74/197 63/93/195 115/145/255 114/144/256
f 63/94/195 68/69/165 117/149/257 115/146/255
f 68/69/165 70/70/168 120/152/258 117/149/257
f 70/70/168 69/98/203 121/153/259 120/152/258
s 16
f 123/157/260 121/154/261 69/99/262 103/134/263
s 4
f 103/134/201 101/61/200 125/159/264 123/157/265
f 128/162/266 151/189/267 153/191/157 98/57/156
f 130/164/268 128/162/266 98/57/156 99/129/191
s 14
f 62/92/269 132/166/270 130/164/271 99/129/272
s 1
f 133/167/273 132/166/274 62/92/194 61/56/151
f 136/170/275 133/167/273 61/56/151 55/55/150
f 135/169/126 134/168/137 133/167/273 136/170/275
f 134/168/137 131/165/136 132/166/274 133/167/273
s 14
f 130/164/271 132/166/270 131/165/217 129/163/216
s 4
f 129/163/140 127/161/139 128/162/266 130/164/268
f 127/161/139 150/188/183 151/189/267 128/162/266
f 123/157/265 125/159/264 126/160/176 124/158/175
s 16
f 124/158/226 122/156/225 121/154/261 123/157/260
s 1
f 120/152/258 121/153/259 122/155/172 119/151/171
f 117/149/257 120/152/258 119/151/171 118/150/163
f 115/146/255 117/149/257 118/150/163 116/148/160
f 114/144/256 115/145/255 116/147/160 113/143/159
f 168/210/254 169/211/184 112/142/122 111/141/252
f 112/142/122 109/139/124 110/140/253 111/141/252
f 110/140/276 136/170/275 55/55/150 54/87/190
f 109/139/127 135/169/126 136/170/275 110/140/276
f 139/175/112 138/173/111 74/104/206 79/71/179
f 79/71/179 81/63/182 142/178/277 139/175/112
f 144/182/278 142/178/277 81/63/182 80/108/210
s 13
f 146/184/279 144/181/280 80/109/281 95/128/282
s 4
f 147/185/283 146/184/284 95/128/208 96/62/177
f 149/187/285 147/185/283 96/62/177 126/160/176
f 152/190/286 149/187/285 126/160/176 125/159/264
f 154/192/287 152/190/286 125/159/264 101/61/200
f 156/194/288 154/192/287 101/61/200 102/131/199
s 15
f 73/101/289 158/198/290 156/194/291 102/131/292
s 1
f 159/199/293 158/197/294 73/102/205 72/60/170
f 162/202/295 159/199/293 72/60/170 66/59/169
f 164/206/296 162/202/295 66/59/169 65/95/198
f 165/207/297 164/205/296 65/96/198 64/74/197
f 114/144/256 167/209/298 165/207/297 64/74/197
f 113/143/159 170/212/299 167/209/298 114/144/256
f 75/58/162 172/214/300 170/212/299 113/143/159
f 170/212/299 172/214/300 171/213/115 169/211/184
f 167/209/298 170/212/299 169/211/184 168/210/254
f 165/207/297 167/209/298 168/210/254 166/208/144
f 166/208/144 163/203/143 164/205/296 165/207/297
f 163/204/143 161/201/146 162/202/295 164/206/296
f 161/201/146 160/200/154 159/199/293 162/202/295
f 160/200/154 157/195/153 158/197/294 159/199/293
s 15
f 156/194/291 158/198/290 157/196/221 155/193/220
s 4
f 155/193/158 153/191/157 154/192/287 156/194/288
f 153/191/157 151/189/267 152/190/286 154/192/287
f 151/189/267 150/188/183 149/187/285 152/190/286
f 150/188/183 148/186/131 147/185/283 149/187/285
f 148/186/131 145/183/130 146/184/284 147/185/283
s 13
f 145/183/214 143/179/213 144/181/280 146/184/279
s 1
f 143/180/134 141/177/133 142/178/277 144/182/278
f 139/175/112 142/178/277 141/177/133 140/176/109
f 140/176/109 42/51/120 41/75/113 137/171/110
f 138/174/111 172/214/300 75/58/162 74/103/206
f 137/172/110 171/213/115 172/214/300 138/174/111
