# This file uses centimeters as units for non-parametric coordinates.

mtllib Special Crystal.mtl
g default
v -0.080426 0.226437 0.279899
v 0.163699 0.158485 0.279899
v -0.179401 0.599367 0.181973
v 0.163699 0.454240 0.214457
v -0.091029 0.540002 -0.279899
v 0.117253 0.558579 -0.279899
v -0.120018 0.158485 -0.284850
v 0.121353 0.268076 -0.265709
v -0.049774 1.099994 0.039540
v 0.023125 1.061658 0.039540
v 0.023125 1.182483 -0.043833
v -0.023125 1.182483 -0.043833
v -0.021172 -0.414180 -0.036201
v 0.021172 -0.414180 -0.036201
v 0.021172 -0.442504 0.036201
v -0.021172 -0.442504 0.036201
v -0.118199 0.763746 0.111011
v -0.107556 0.888831 -0.167731
v 0.107556 0.772575 -0.185617
v 0.107556 0.724320 0.183902
v -0.086005 -0.049619 -0.132495
v -0.086005 -0.303725 0.118008
v 0.086005 -0.079548 0.130176
v 0.086005 -0.153687 -0.147054
v -0.163699 0.500000 -0.016580
v -0.200305 0.307231 -0.016580
v -0.086005 -0.153687 -0.008711
v -0.021172 -0.414180 -0.002144
v 0.021172 -0.414180 -0.002144
v 0.061766 -0.102387 -0.008711
v 0.163699 0.158485 -0.016580
v 0.200380 0.585101 -0.016580
v 0.107556 0.749877 -0.011802
v 0.023125 1.125649 -0.004616
v -0.035660 1.143682 -0.004616
v -0.112562 0.757079 -0.011802
v 0.030953 0.195435 0.279899
v -0.022866 0.554032 0.135438
v -0.015201 0.745758 0.144267
v -0.016515 1.082504 0.039540
v -0.008840 1.135454 -0.004616
v -0.002024 1.182483 -0.043833
v -0.009414 0.780056 -0.153069
v 0.007322 0.483520 -0.306508
v -0.014328 0.158485 -0.279899
v -0.007528 -0.089309 -0.126879
v -0.001853 -0.414180 -0.036201
v -0.001853 -0.414180 -0.002144
v -0.001853 -0.442504 0.036201
v -0.007528 -0.116935 0.186923
vt 0.510119 0.612159
vt 0.118494 0.421455
vt 0.108334 0.630345
vt 0.021388 0.655085
vt 0.688168 0.135074
vt 0.133105 0.919493
vt 0.142056 0.955644
vt 0.127961 0.960926
vt 0.838733 0.453330
vt 0.904534 0.540474
vt 0.927931 0.367327
vt 0.984594 0.371000
vt 0.039497 0.035795
vt 0.049783 0.034511
vt 0.052946 0.059888
vt 0.637311 0.982648
vt 0.188676 0.397183
vt 0.359617 0.390835
vt 0.344652 0.617627
vt 0.204471 0.558850
vt 0.690626 0.465287
vt 0.680431 0.569668
vt 0.126314 0.730441
vt 0.069383 0.746754
vt 0.336334 0.716705
vt 0.230788 0.696443
vt 0.904324 0.717517
vt 0.790251 0.261876
vt 0.699865 0.324516
vt 0.929386 0.211535
vt 0.972126 0.231631
vt 0.366790 0.241069
vt 0.135657 0.250369
vt 0.073857 0.250656
vt 0.592860 0.901452
vt 0.664118 0.823150
vt 0.893602 0.940403
vt 0.736965 0.092464
vt 0.158860 0.949340
vt 0.154181 0.907931
vt 0.062043 0.032981
vt 0.065233 0.058346
vt 0.047522 0.016382
vt 0.676546 0.968309
vt 0.445615 0.224398
vt 0.059780 0.014852
vt 0.849943 0.420282
vt 0.842662 0.578011
vt 0.840159 0.704736
vt 0.880052 0.939980
vt 0.150027 0.987737
vt 0.344218 0.954672
vt 0.163416 0.986081
vt 0.714131 0.112645
vt 0.904974 0.940753
vt 0.138816 0.989237
vt 0.323329 0.923801
vt 0.378862 0.072331
vt 0.359457 0.055336
vt 0.658422 0.968065
vt 0.042637 0.061185
vt 0.873566 0.185174
vt 0.397259 0.074050
vt 0.290240 0.249935
vt 0.017743 0.150969
vt 0.734944 0.770633
vt 0.037238 0.017665
vt 0.193868 0.709616
vt 0.299798 0.889030
vt 0.430333 0.731393
vt 0.960791 0.772287
vt 0.633999 0.316007
vt 0.115409 0.929168
vt 0.060076 0.443956
vt 0.199700 0.380101
vt 0.493705 0.458005
vt 0.823608 0.659043
vt 0.956557 0.574901
vt 0.491495 0.617381
vt 0.223277 0.542828
vt 0.585684 0.406189
vt 0.917571 0.031320
vt 0.905188 0.031916
vt 0.927958 0.030822
vn 0.142197 0.150490 0.978332
vn 0.063681 0.015463 0.997851
vn 0.214917 0.303445 0.928295
vn 0.195959 0.281344 0.939386
vn 0.264303 0.617451 0.740877
vn 0.252440 0.589736 0.767128
vn 0.194718 0.606742 0.770681
vn 0.204761 0.634738 0.745105
vn 0.133777 0.242937 -0.960773
vn 0.004082 0.104359 -0.994531
vn -0.100171 -0.247170 -0.963780
vn -0.100586 -0.240695 -0.965375
vn -0.000003 -0.931276 -0.364315
vn -0.000001 -0.931276 -0.364315
vn -0.000001 -0.804363 -0.594139
vn -0.000002 -0.804363 -0.594139
vn 0.990189 -0.136729 0.028842
vn 0.987910 -0.153243 0.023483
vn 0.981492 0.140495 0.130131
vn 0.996036 0.024471 0.085519
vn -0.991082 -0.003937 0.133192
vn -0.973190 -0.106711 0.203749
vn -0.972116 -0.118695 0.202246
vn -0.995923 0.045077 0.078140
vn -0.022770 0.205261 0.978442
vn -0.037739 0.211871 0.976569
vn 0.945892 0.288972 0.147591
vn 0.938981 0.301959 0.164730
vn 0.282487 0.352987 -0.891965
vn 0.318541 0.299018 -0.899511
vn -0.970031 0.215514 -0.112219
vn -0.969054 0.217928 -0.115936
vn -0.062775 -0.402674 -0.913189
vn -0.069196 -0.496995 -0.864991
vn 0.964392 -0.252955 -0.077218
vn 0.955278 -0.290147 -0.057079
vn -0.099012 -0.290340 0.951787
vn 0.095219 -0.385776 0.917666
vn -0.973626 -0.144056 0.176919
vn -0.982029 -0.170302 0.081338
vn -0.978968 0.190272 -0.073613
vn -0.978968 0.190272 -0.073613
vn 0.345251 0.256793 -0.902695
vn 0.345251 0.256793 -0.902695
vn 0.964865 0.246153 0.091898
vn 0.964865 0.246153 0.091898
vn -0.162934 0.265066 0.950365
vn -0.162934 0.265066 0.950365
vn -0.929359 -0.250753 -0.270953
vn -0.929359 -0.250753 -0.270953
vn 0.173869 -0.419706 0.890851
vn 0.173869 -0.419706 0.890852
vn 0.981087 -0.135366 -0.138364
vn 0.981087 -0.135366 -0.138364
vn -0.052854 -0.266409 -0.962410
vn -0.052854 -0.266409 -0.962410
vn -0.969290 -0.087805 -0.229710
vn -0.965821 -0.003286 -0.259188
vn -0.966461 0.100605 -0.236286
vn -0.968574 0.099166 -0.228104
vn -0.958069 -0.238982 -0.158084
vn -0.954155 -0.249479 -0.165373
vn -0.963284 -0.224150 -0.147787
vn -0.963284 -0.224150 -0.147787
vn -0.000003 -1.000000 0.000000
vn -0.000001 -1.000000 0.000000
vn 0.981348 -0.192209 -0.003478
vn 0.980304 -0.196446 -0.020340
vn 0.973418 -0.142540 0.179274
vn 0.973418 -0.142540 0.179274
vn 0.974601 -0.087730 -0.206050
vn 0.978271 -0.135622 -0.156822
vn 0.971554 0.067468 -0.227005
vn 0.972001 0.035560 -0.232272
vn 0.965555 0.253223 -0.059842
vn 0.963580 0.257806 -0.071067
vn 0.977810 0.196262 0.073272
vn 0.977810 0.196262 0.073272
vn 0.106441 0.620000 0.777348
vn 0.112679 0.656328 0.746014
vn -0.988698 0.146606 -0.031371
vn -0.988715 0.109140 -0.102618
vn -0.972418 0.211797 0.097697
vn -0.972418 0.211797 0.097697
vn -0.264379 0.120869 0.956815
vn -0.000572 0.061291 0.998120
vn 0.039600 -0.027107 0.998848
vn -0.166009 0.233655 0.958043
vn -0.255953 0.167219 0.952117
vn -0.297071 0.103652 0.949213
vn -0.142846 0.327022 0.934158
vn -0.142846 0.327022 0.934158
vn 0.245644 0.573858 0.781246
vn 0.198326 0.582348 0.788376
vn 0.102184 0.595206 0.797050
vn -0.170701 0.366302 -0.914704
vn -0.178168 0.344030 -0.921900
vn -0.201230 0.271725 -0.941101
vn -0.201230 0.271725 -0.941101
vn -0.022980 0.263069 -0.964503
vn 0.116286 0.072603 -0.990559
vn 0.096458 -0.297249 -0.949915
vn 0.167998 -0.164347 -0.971991
vn -0.023256 -0.361989 -0.931892
vn -0.110145 -0.341144 -0.933536
vn -0.312227 -0.280894 -0.907531
vn -0.312227 -0.280894 -0.907531
vn 0.000000 -1.000000 0.000000
vn 0.000000 -0.931276 -0.364315
vn 0.000000 -0.804362 -0.594139
vn 0.311627 -0.402961 0.860530
vn 0.352052 -0.388533 0.851529
vn 0.496510 -0.328246 0.803575
vn 0.496510 -0.328246 0.803575
s 1
g pCube2
usemtl initialShadingGroup
f 1/74/1 37/2/2 38/3/3 3/4/4
s 2
f 9/73/5 40/6/6 41/7/7 35/8/8
s 3
f 5/78/9 44/10/10 45/11/11 7/12/12
s 4
f 28/13/13 48/14/14 49/15/15 16/61/16
s 5
f 2/75/17 31/18/18 32/19/19 4/80/20
s 6
f 25/21/21 26/22/22 1/1/23 3/81/24
s 1
f 3/4/4 38/3/3 39/23/25 17/24/26
s 5
f 4/80/20 32/19/19 33/25/27 20/26/28
s 3
f 43/27/29 44/10/10 5/78/9 18/71/30
s 6
f 36/29/31 25/21/21 3/81/24 17/72/32
s 3
f 7/12/12 45/11/11 46/30/33 21/31/34
s 5
f 30/32/35 31/18/18 2/75/17 23/64/36
s 1
f 50/34/37 37/2/2 1/74/1 22/65/38
s 6
f 1/1/23 26/22/22 27/36/39 22/35/40
f 35/54/41 36/29/31 17/72/32 9/5/42
s 3
f 42/37/43 43/27/29 18/71/30 12/55/44
s 5
f 20/26/28 33/25/27 34/57/45 10/69/46
s 1
f 17/24/26 39/23/25 40/6/47 9/73/48
s 6
f 22/35/40 27/36/39 28/60/49 16/16/50
s 1
f 49/15/51 50/34/37 22/65/38 16/61/52
s 5
f 29/58/53 30/32/35 23/64/36 15/59/54
s 3
f 21/31/34 46/30/33 47/82/55 13/84/56
s 7
f 7/77/57 26/22/58 25/21/59 5/9/60
f 27/36/61 26/22/58 7/77/57 21/66/62
f 28/60/63 27/36/61 21/66/62 13/44/64
s 4
f 13/67/65 47/43/66 48/14/14 28/13/13
s 8
f 24/45/67 30/32/68 29/58/69 14/63/70
f 8/76/71 31/18/72 30/32/68 24/45/67
f 32/19/73 31/18/72 8/76/71 6/79/74
f 33/25/75 32/19/73 6/79/74 19/70/76
f 34/57/77 33/25/75 19/70/76 11/52/78
s 2
f 35/8/8 41/7/7 42/51/79 12/56/80
s 7
f 18/28/81 36/29/82 35/54/83 12/38/84
f 5/9/60 25/21/59 36/29/82 18/28/81
s 9
f 38/3/85 37/2/86 2/17/87 4/20/88
f 39/23/89 38/3/85 4/20/88 20/68/90
f 40/6/91 39/23/89 20/68/90 10/40/92
s 2
f 41/7/7 40/6/6 10/40/93 34/39/94
f 42/51/79 41/7/7 34/39/94 11/53/95
s 10
f 19/49/96 43/27/97 42/37/98 11/50/99
f 6/48/100 44/10/101 43/27/97 19/49/96
f 45/11/102 44/10/101 6/48/100 8/47/103
f 46/30/104 45/11/102 8/47/103 24/62/105
f 47/82/106 46/30/104 24/62/105 14/83/107
s 4
f 48/14/14 47/43/66 14/46/108 29/41/109
f 49/15/15 48/14/14 29/41/109 15/42/110
s 9
f 23/33/111 50/34/112 49/15/113 15/42/114
f 2/17/87 37/2/86 50/34/112 23/33/111
