# This file uses meters as units for non-parametric coordinates.

mtllib tree_02.mtl
g default
v 667.124084 -265.810547 31.309116
v 667.124084 -197.700317 78.261047
v 620.172180 -197.700317 31.309116
v 776.694275 -197.700317 31.309116
v 729.742371 -197.700317 78.261047
v 729.742371 -265.810547 31.309116
v 675.114014 284.956207 9.329084
v 689.104126 284.956207 23.319204
v 718.436218 328.470978 20.003000
v 707.762329 284.956207 23.319204
v 721.752441 284.956207 9.329084
v 675.114014 284.956207 -9.329073
v 678.430237 328.470978 -20.002993
v 689.104126 284.956207 -23.319195
v 707.762329 284.956207 -23.319195
v 718.436218 328.470978 -20.002993
v 721.752441 284.956207 -9.329073
v 620.172180 -197.700317 -31.309116
v 667.124146 -197.700317 -78.261047
v 667.124146 -265.810547 -31.309116
v 729.742371 -265.810547 -31.309116
v 729.742371 -197.700317 -78.261047
v 776.694275 -197.700317 -31.309116
v 475.310486 451.568176 -81.941040
v 486.233826 467.413940 -96.509109
v 475.310486 451.568176 -96.509109
v 486.233826 451.568176 -71.017715
v 500.801910 451.568176 -71.017715
v 500.801910 467.413940 -81.941040
v 500.801910 467.413940 -96.509109
v 535.875916 556.858521 -71.474922
v 779.588928 534.535095 138.069153
v 797.276855 508.876160 138.069153
v 797.276855 508.876160 114.479332
v 779.588928 534.535095 114.479332
v 779.588928 508.876160 155.757080
v 830.542908 507.835144 192.702301
v 840.674500 493.137787 192.702301
v 840.674500 493.137787 179.190109
v 830.542908 507.835144 179.190109
v 830.542908 493.137787 202.833923
v 858.208801 570.364380 215.874512
v 777.439575 530.668457 -146.137177
v 777.439575 552.415466 -131.145767
v 797.433167 552.415466 -131.145767
v 797.433167 530.668457 -146.137177
v 762.448120 530.668457 -131.145767
v 812.424683 530.668457 -131.145767
v 773.320435 633.227539 -140.284027
v 773.320435 646.148865 -131.376633
v 785.199951 646.148865 -131.376633
v 785.199951 633.227539 -140.284027
v 764.413025 633.227539 -131.376633
v 794.107422 633.227539 -131.376633
v 785.563843 683.446472 -120.245461
v 500.337738 362.987854 -89.240173
v 500.337738 362.987854 -109.659851
v 510.103668 397.261200 -115.204857
v 541.613403 397.261200 -115.204857
v 541.613403 397.261200 -83.695168
v 536.068359 362.987854 -73.929237
v 515.648682 362.987854 -73.929237
v 689.618530 266.359741 -12.130554
v 684.684143 258.091614 -0.599129
v 676.625061 269.814026 -5.428177
v 716.654480 264.233398 7.699303
v 704.700867 255.301010 5.965271
v 709.635254 263.569153 -5.566154
v 633.095154 309.715515 173.671173
v 637.861206 302.782990 176.527039
v 649.698975 301.132660 180.409180
v 656.768250 306.415192 181.434662
v 635.398804 321.933075 171.840439
v 642.468079 327.215607 172.865936
v 654.305847 325.565247 176.748077
v 659.071899 318.632721 179.603928
v 680.520386 290.472961 -8.523811
v 692.473999 299.405334 -6.789780
v 693.513794 287.018677 -15.226189
v 713.530579 284.228088 -8.661789
v 712.490723 296.614746 -0.225380
v 720.549805 284.892334 4.603668
v 625.256165 350.297241 229.722870
v 626.716125 358.040436 228.562592
v 628.276733 345.903595 231.532852
v 635.779236 344.857666 233.993240
v 640.259521 348.205566 234.643188
v 641.719543 355.948792 233.482910
v 631.196472 361.388367 229.212524
v 638.698914 360.342438 231.672913
v 624.568359 359.271973 261.414886
v 666.513123 309.716553 84.654839
v 660.000977 319.188904 80.752708
v 663.148560 335.882446 78.251266
v 672.807800 343.100311 79.652458
v 688.982361 340.845367 84.956856
v 695.494568 331.373016 88.858986
v 692.346924 314.679443 91.360428
v 682.687744 307.461609 89.959236
vt 0.449993 0.925007
vt 0.375000 0.925007
vt 0.375000 0.824992
vt 0.449993 -0.000000
vt 0.449993 0.016560
vt 0.625000 0.925007
vt 0.550007 0.925008
vt 0.625000 0.824992
vt 0.699992 0.016560
vt 0.375000 0.324992
vt 0.375000 0.425007
vt 0.449992 0.233440
vt 0.550007 0.233440
vt 0.625000 0.324992
vt 0.375000 0.516560
vt 0.375000 0.733440
vt 0.449993 0.425007
vt 0.550007 0.425007
vt 0.625000 0.516560
vt 0.625000 0.733440
vt 0.449992 0.733440
vt 0.550007 0.733440
vt 0.550008 0.824992
vt 0.550008 0.016560
vt 0.450001 0.327813
vt 0.550008 0.324992
vt 0.449993 0.516560
vt 0.550008 0.516560
vt 0.449993 0.824992
vt 0.800008 0.016560
vt 0.800008 0.233440
vt 0.199993 0.016560
vt 0.300008 0.016560
vt 0.300007 0.233440
vt 0.199992 0.233440
vt 0.550008 0.000000
vt 0.699992 0.233440
vt 0.625000 0.425007
vt 0.449993 0.425007
vt 0.375000 0.425007
vt 0.375000 0.324992
vt 0.449992 0.233440
vt 0.550007 0.233440
vt 0.550008 0.324992
vt 0.550007 0.425007
vt 0.300007 0.233440
vt 0.625000 0.324992
vt 0.625000 0.425007
vt 0.550007 0.425007
vt 0.550008 0.324992
vt 0.550007 0.233440
vt 0.699992 0.233440
vt 0.625000 0.324992
vt 0.625000 0.425007
vt 0.550007 0.425007
vt 0.550008 0.324992
vt 0.550007 0.233440
vt 0.699992 0.233440
vt 0.600002 0.327813
vt 0.449993 0.425007
vt 0.550007 0.425007
vt 0.550008 0.516560
vt 0.449993 0.516560
vt 0.375000 0.425007
vt 0.625000 0.425007
vt 0.449993 0.425007
vt 0.550007 0.425007
vt 0.550008 0.516560
vt 0.449993 0.516560
vt 0.375000 0.425007
vt 0.625000 0.425007
vt 0.500000 0.455525
vt 0.375000 0.324992
vt 0.300007 0.233440
vt 0.375000 0.425007
vt 0.449992 0.425007
vt 0.550007 0.425007
vt 0.550007 0.324992
vt 0.550007 0.233440
vt 0.449992 0.233440
vt 0.437494 0.937506
vt 0.375000 0.937506
vt 0.375000 0.812494
vt 0.437494 0.812494
vt 0.437494 0.017601
vt 0.437494 0.000000
vt 0.562506 0.000000
vt 0.562506 0.017601
vt 0.312506 0.017601
vt 0.437494 0.125580
vt 0.312506 0.125580
vt 0.625000 0.937506
vt 0.562506 0.937506
vt 0.562506 0.812494
vt 0.625000 0.812494
vt 0.687494 0.017601
vt 0.687494 0.125580
vt 0.562506 0.125580
vt 0.375000 0.624420
vt 0.437494 0.624420
vt 0.437494 0.732399
vt 0.375000 0.732399
vt 0.562506 0.624420
vt 0.625000 0.624420
vt 0.625000 0.732399
vt 0.562506 0.732399
vt 0.812506 0.017601
vt 0.812506 0.125580
vt 0.187494 0.017601
vt 0.187494 0.125580
vt 0.375000 0.437506
vt 0.375000 0.312494
vt 0.375000 0.312494
vt 0.375000 0.437506
vt 0.437494 0.232399
vt 0.562506 0.232399
vt 0.562506 0.232399
vt 0.437494 0.232399
vt 0.625000 0.312494
vt 0.625000 0.437506
vt 0.625000 0.437506
vt 0.625000 0.312494
vt 0.562506 0.517601
vt 0.437494 0.517601
vt 0.437494 0.517601
vt 0.562506 0.517601
vt 0.312506 0.232399
vt 0.312506 0.232399
vt 0.687494 0.232399
vt 0.687494 0.232399
vt 0.500000 0.354629
vt 0.187494 0.232399
vt 0.375000 0.517601
vt 0.625000 0.517601
vt 0.812506 0.232399
vn -0.823329 -0.567564 -0.000000
vn -0.823329 -0.567564 -0.000000
vn -0.823329 -0.567564 -0.000000
vn -0.823329 -0.567564 -0.000000
vn 0.000000 -0.567564 0.823329
vn 0.000000 -0.567564 0.823329
vn 0.000000 -0.567564 0.823329
vn 0.000000 -0.567564 0.823329
vn -0.702659 0.111984 0.702659
vn -0.702659 0.111984 0.702659
vn -0.702659 0.111984 0.702659
vn -0.702659 0.111984 0.702659
vn 0.823329 -0.567564 0.000000
vn 0.823329 -0.567564 0.000000
vn 0.823329 -0.567564 0.000000
vn 0.823329 -0.567564 0.000000
vn 0.702659 0.111984 0.702659
vn 0.702659 0.111984 0.702659
vn 0.702659 0.111984 0.702659
vn 0.702659 0.111984 0.702659
vn -0.702659 0.111984 -0.702659
vn -0.702659 0.111984 -0.702659
vn -0.702659 0.111984 -0.702659
vn -0.702659 0.111984 -0.702659
vn 0.702659 0.111984 -0.702659
vn 0.702659 0.111984 -0.702659
vn 0.702659 0.111984 -0.702659
vn 0.702659 0.111984 -0.702659
vn 0.000000 -0.567564 -0.823330
vn 0.000000 -0.567564 -0.823330
vn 0.000000 -0.567564 -0.823330
vn 0.000000 -0.567564 -0.823330
vn 0.000000 0.113101 0.993583
vn 0.000000 0.113101 0.993583
vn 0.000000 0.113101 0.993583
vn 0.000000 0.113101 0.993583
vn 0.000000 0.113102 -0.993583
vn 0.000000 0.113102 -0.993584
vn 0.000000 0.113102 -0.993584
vn 0.000000 0.113102 -0.993583
vn 0.000000 -1.000000 -0.000000
vn 0.000000 -1.000000 -0.000000
vn 0.000000 -1.000000 -0.000000
vn 0.000000 -1.000000 -0.000000
vn 0.993583 0.113102 0.000000
vn 0.993583 0.113102 0.000000
vn 0.993583 0.113102 0.000000
vn 0.993583 0.113102 0.000000
vn -0.993583 0.113102 0.000000
vn -0.993583 0.113102 0.000000
vn -0.993583 0.113102 0.000000
vn -0.993584 0.113102 0.000000
vn -0.635616 -0.438162 0.635615
vn -0.635616 -0.438162 0.635615
vn -0.635616 -0.438162 0.635615
vn 0.635615 -0.438163 0.635615
vn 0.635615 -0.438163 0.635615
vn 0.635615 -0.438163 0.635615
vn -0.635615 -0.438163 -0.635616
vn -0.635615 -0.438163 -0.635616
vn -0.635615 -0.438163 -0.635616
vn 0.635615 -0.438163 -0.635615
vn 0.635615 -0.438163 -0.635615
vn 0.635615 -0.438163 -0.635615
vn 0.396077 -0.250782 -0.883307
vn 0.396077 -0.250782 -0.883307
vn 0.353166 -0.235952 -0.905318
vn 0.213176 -0.185694 -0.959205
vn -0.407679 -0.913125 0.000000
vn -0.407679 -0.913125 0.000000
vn -0.592879 -0.805292 0.000000
vn -0.665740 -0.746184 0.000000
vn 0.000000 0.779957 0.625833
vn 0.000000 0.779957 0.625833
vn 0.000000 0.638772 0.769396
vn 0.000000 0.269921 0.962883
vn -0.409887 0.233739 0.881680
vn -0.409887 0.233739 0.881680
vn -0.172796 0.265734 0.948434
vn -0.365307 0.241168 0.899104
vn 0.362564 0.931959 0.000000
vn 0.362564 0.931959 0.000000
vn 0.509852 0.860262 0.000000
vn 0.465179 0.885217 0.000000
vn 0.000000 -0.810544 -0.585678
vn 0.000000 -0.810544 -0.585678
vn 0.000000 -0.266945 -0.963712
vn 0.000000 -0.717742 -0.696309
vn -0.581850 -0.568246 0.581849
vn -0.581850 -0.568246 0.581849
vn -0.621449 -0.477078 0.621448
vn -0.667805 -0.328744 0.667805
vn -0.765698 0.527837 -0.367552
vn -0.765698 0.527837 -0.367552
vn -0.765698 0.527837 -0.367552
vn -0.866823 0.498616 0.000000
vn -0.866823 0.498616 0.000000
vn -0.866823 0.498616 0.000000
vn 0.000000 0.004342 0.999991
vn 0.000000 0.004342 0.999991
vn 0.000000 0.004342 0.999991
vn 0.861026 -0.288641 -0.418712
vn 0.861026 -0.288641 -0.418712
vn 0.861026 -0.288641 -0.418712
vn 0.930981 -0.365067 0.000000
vn 0.930981 -0.365067 0.000000
vn 0.930981 -0.365067 0.000000
vn 0.000000 0.269526 -0.962993
vn 0.000000 0.269526 -0.962993
vn 0.000000 0.269526 -0.962993
vn -0.670189 0.318890 0.670191
vn -0.670189 0.318890 0.670190
vn -0.670189 0.318890 0.670191
vn 0.947555 -0.319594 0.000000
vn 0.947555 -0.319594 0.000000
vn 0.947555 -0.319594 0.000000
vn 0.947555 -0.319594 0.000000
vn 0.764981 0.135111 -0.629721
vn 0.764981 0.135111 -0.629721
vn 0.764981 0.135111 -0.629721
vn 0.764981 0.135111 -0.629721
vn -0.958675 0.284502 0.000000
vn -0.958675 0.284502 0.000000
vn -0.958675 0.284502 0.000000
vn -0.958675 0.284502 0.000000
vn -0.965120 0.200163 0.168754
vn -0.965120 0.200163 0.168754
vn -0.965120 0.200163 0.168754
vn -0.965120 0.200163 0.168754
vn 0.594213 -0.542053 0.594213
vn 0.594213 -0.542053 0.594213
vn 0.594213 -0.542053 0.594213
vn 0.594213 -0.542053 0.594213
vn -0.340928 -0.940089 0.000000
vn -0.340928 -0.940089 0.000000
vn -0.340928 -0.940089 0.000000
vn -0.340928 -0.940089 0.000000
vn 0.760683 0.524376 -0.382610
vn 0.760683 0.524376 -0.382610
vn 0.760683 0.524376 -0.382610
vn 0.760683 0.524376 -0.382610
vn 0.464141 0.885761 0.000000
vn 0.464141 0.885761 0.000000
vn 0.464141 0.885761 0.000000
vn 0.464141 0.885761 0.000000
vn -0.505187 0.489811 0.710543
vn -0.505187 0.489811 0.710543
vn -0.505187 0.489811 0.710543
vn -0.505187 0.489811 0.710543
vn -0.156560 -0.975181 -0.156559
vn -0.156560 -0.975181 -0.156559
vn -0.156560 -0.975181 -0.156559
vn -0.156560 -0.975181 -0.156559
vn 0.975180 -0.221414 0.000000
vn 0.975180 -0.221414 0.000000
vn 0.975180 -0.221414 0.000000
vn 0.438661 0.302390 -0.846249
vn 0.438661 0.302390 -0.846249
vn 0.438661 0.302390 -0.846249
vn -0.914488 0.404614 0.000000
vn -0.914487 0.404614 0.000000
vn -0.914488 0.404614 0.000000
vn -0.891916 0.256651 0.372311
vn -0.891916 0.256651 0.372311
vn -0.891916 0.256651 0.372311
vn 0.662580 -0.349249 0.662580
vn 0.662580 -0.349249 0.662580
vn 0.662580 -0.349249 0.662580
vn 0.000000 0.444557 0.895751
vn 0.000000 0.444557 0.895751
vn 0.000000 0.444557 0.895751
vn 0.000000 0.444557 0.895751
vn 0.000000 -0.447103 -0.894483
vn 0.000000 -0.447103 -0.894483
vn 0.000000 -0.447103 -0.894483
vn 0.000000 -0.447103 -0.894483
vn -0.923664 0.206298 -0.322935
vn -0.923664 0.206298 -0.322935
vn -0.923663 0.206298 -0.322935
vn -0.923663 0.206298 -0.322935
vn -0.703651 -0.098750 -0.703651
vn -0.703650 -0.098750 -0.703651
vn -0.703650 -0.098750 -0.703651
vn -0.703651 -0.098750 -0.703651
vn 0.443593 0.264494 0.856311
vn 0.443593 0.264494 0.856311
vn 0.443593 0.264494 0.856311
vn 0.443593 0.264494 0.856311
vn 0.603257 -0.521690 -0.603258
vn 0.603257 -0.521690 -0.603258
vn 0.603257 -0.521690 -0.603258
vn 0.603257 -0.521690 -0.603258
vn 0.000000 0.002463 0.999997
vn 0.000000 0.002463 0.999997
vn 0.000000 0.002463 0.999997
vn 0.000000 0.002463 0.999997
vn 0.000000 0.056978 -0.998375
vn 0.000000 0.056978 -0.998376
vn 0.000000 0.056978 -0.998376
vn 0.000000 0.056978 -0.998376
vn -0.003359 0.002315 0.999992
vn -0.003359 0.002315 0.999992
vn -0.003359 0.002315 0.999992
vn -0.003359 0.002315 0.999992
vn -0.707055 0.011955 -0.707057
vn -0.707055 0.011955 -0.707057
vn -0.707055 0.011955 -0.707057
vn -0.707055 0.011955 -0.707057
vn 0.004407 0.003038 0.999986
vn 0.004407 0.003038 0.999986
vn 0.004407 0.003038 0.999986
vn 0.004407 0.003038 0.999986
vn 0.701670 0.123741 -0.701675
vn 0.701670 0.123741 -0.701675
vn 0.701670 0.123741 -0.701675
vn 0.701670 0.123741 -0.701675
vn 0.000000 -0.285977 0.958237
vn 0.000000 -0.285977 0.958237
vn 0.000000 -0.285977 0.958237
vn 0.000000 0.370609 -0.928789
vn 0.000000 0.370609 -0.928789
vn 0.000000 0.370609 -0.928789
vn 0.583295 -0.402099 0.705750
vn 0.583295 -0.402099 0.705750
vn 0.583295 -0.402099 0.705750
vn -0.643724 0.413803 -0.643728
vn -0.643724 0.413803 -0.643728
vn -0.643724 0.413803 -0.643728
vn -0.378974 -0.261254 0.887764
vn -0.378974 -0.261253 0.887764
vn -0.378974 -0.261254 0.887765
vn 0.681437 0.266975 -0.681446
vn 0.681437 0.266975 -0.681446
vn 0.681437 0.266975 -0.681446
vn -0.962327 -0.271894 0.000000
vn -0.962327 -0.271894 0.000000
vn -0.395664 0.061955 -0.916303
vn -0.395664 0.061955 -0.916303
vn 0.000000 0.257512 -0.966275
vn 0.000000 0.257512 -0.966275
vn 0.864373 0.502851 0.000000
vn 0.864373 0.502851 0.000000
vn 0.579926 0.255208 0.773664
vn 0.579925 0.255208 0.773664
vn 0.000000 -0.032851 0.999460
vn 0.000000 -0.032851 0.999460
vn -0.684677 -0.249866 0.684678
vn -0.684677 -0.249866 0.684678
vn -0.467243 -0.044215 -0.883023
vn -0.467243 -0.044215 -0.883023
vn -0.467243 -0.044215 -0.883023
vn -0.467243 -0.044215 -0.883023
vn 0.069216 -0.824526 -0.561574
vn 0.069216 -0.824526 -0.561574
vn 0.069216 -0.824526 -0.561574
vn 0.069216 -0.824526 -0.561574
vn -0.841713 -0.522291 0.136866
vn -0.841713 -0.522291 0.136866
vn -0.815956 -0.576830 -0.038521
vn -0.816368 -0.576365 -0.036704
vn 0.864919 -0.229932 -0.446146
vn 0.864919 -0.229932 -0.446146
vn 0.864919 -0.229932 -0.446146
vn 0.864919 -0.229932 -0.446146
vn 0.445440 -0.703586 0.553670
vn 0.445440 -0.703586 0.553670
vn 0.512410 -0.762434 0.395133
vn 0.512763 -0.762713 0.394137
vn -0.541345 0.783613 -0.304787
vn -0.541388 0.783641 -0.304641
vn -0.479235 0.734576 -0.480345
vn -0.479235 0.734576 -0.480345
vn 0.791707 0.597232 0.128511
vn 0.791506 0.597359 0.129155
vn 0.833316 0.549993 -0.055607
vn 0.833316 0.549993 -0.055607
vn 0.328458 0.550374 -0.767596
vn 0.328458 0.550374 -0.767596
vn 0.328458 0.550374 -0.767596
vn 0.328458 0.550374 -0.767596
vn -0.268008 -0.848350 0.456589
vn -0.268008 -0.848350 0.456589
vn -0.208414 -0.950233 0.231561
vn -0.208615 -0.950017 0.232265
vn 0.183852 0.971826 -0.147485
vn 0.183626 0.971984 -0.146727
vn 0.251507 0.885609 -0.390438
vn 0.251507 0.885608 -0.390438
vn 0.281199 -0.193856 -0.939866
vn 0.281199 -0.193856 -0.939866
vn 0.281199 -0.193856 -0.939865
vn 0.281199 -0.193856 -0.939865
vn 0.930428 -0.123745 0.344951
vn 0.930428 -0.123745 0.344951
vn 0.928967 -0.122833 0.349188
vn 0.928954 -0.122826 0.349224
vn -0.954149 0.140286 -0.264425
vn -0.954148 0.140286 -0.264425
vn -0.954393 0.140478 -0.263438
vn -0.954391 0.140476 -0.263446
vn -0.487336 -0.597405 -0.636875
vn -0.487336 -0.597405 -0.636875
vn -0.487336 -0.597405 -0.636875
vn 0.600368 -0.749042 -0.280169
vn 0.600368 -0.749042 -0.280169
vn 0.600368 -0.749042 -0.280169
vn -0.275666 0.525197 -0.805094
vn -0.275666 0.525197 -0.805094
vn -0.275666 0.525197 -0.805094
vn 0.812038 0.373562 -0.448382
vn 0.812038 0.373562 -0.448382
vn 0.812038 0.373562 -0.448382
vn -0.960022 0.145151 -0.239349
vn -0.960022 0.145152 -0.239349
vn -0.960022 0.145152 -0.239349
vn -0.960022 0.145151 -0.239349
vn -0.291367 -0.776849 0.558221
vn -0.291367 -0.776849 0.558221
vn -0.291367 -0.776849 0.558221
vn -0.291367 -0.776849 0.558221
vn 0.918889 -0.116795 0.376831
vn 0.918889 -0.116795 0.376831
vn 0.918889 -0.116795 0.376831
vn 0.918889 -0.116795 0.376831
vn 0.268739 0.846484 -0.459613
vn 0.268739 0.846484 -0.459613
vn 0.268739 0.846484 -0.459613
vn 0.268739 0.846484 -0.459613
vn -0.843536 -0.484121 0.232539
vn -0.843535 -0.484121 0.232539
vn -0.843536 -0.484122 0.232539
vn -0.843536 -0.484121 0.232539
vn 0.398327 -0.657256 0.639805
vn 0.398327 -0.657256 0.639805
vn 0.398327 -0.657256 0.639805
vn 0.398327 -0.657256 0.639805
vn -0.458789 0.716075 -0.526070
vn -0.458789 0.716075 -0.526070
vn -0.458789 0.716075 -0.526070
vn -0.458789 0.716075 -0.526070
vn 0.838720 0.535199 -0.100550
vn 0.838720 0.535199 -0.100550
vn 0.838720 0.535199 -0.100550
vn 0.838720 0.535199 -0.100550
vn -0.982098 0.174577 -0.070750
vn -0.982098 0.174577 -0.070750
vn -0.982099 0.174577 -0.070750
vn -0.246265 -0.895732 0.370159
vn -0.246265 -0.895732 0.370159
vn -0.246265 -0.895732 0.370159
vn 0.845149 -0.080157 0.528487
vn 0.845149 -0.080157 0.528487
vn 0.845149 -0.080157 0.528487
vn 0.109320 0.990141 0.087580
vn 0.109320 0.990141 0.087580
vn 0.109320 0.990141 0.087580
vn -0.841270 -0.524672 0.130323
vn -0.841270 -0.524672 0.130323
vn -0.841270 -0.524672 0.130323
vn 0.446030 -0.704137 0.552493
vn 0.446030 -0.704137 0.552493
vn 0.446030 -0.704137 0.552493
vn -0.590741 0.803926 -0.068758
vn -0.590741 0.803926 -0.068758
vn -0.590741 0.803926 -0.068758
vn 0.696540 0.624449 0.353406
vn 0.696540 0.624449 0.353406
vn 0.696540 0.624449 0.353406
vn -0.735186 -0.619130 -0.276007
vn -0.735186 -0.619130 -0.276007
vn -0.954722 0.140737 -0.262104
vn -0.954722 0.140737 -0.262104
vn -0.592443 0.803672 -0.055875
vn -0.592443 0.803672 -0.055875
vn 0.073874 0.978835 0.190850
vn 0.073874 0.978835 0.190850
vn 0.690291 0.624841 0.364791
vn 0.690291 0.624841 0.364791
vn 0.926935 -0.121581 0.354978
vn 0.926935 -0.121581 0.354978
vn 0.576958 -0.802066 0.154306
vn 0.576958 -0.802066 0.154305
vn -0.102874 -0.988953 -0.106719
vn -0.102874 -0.988953 -0.106719
s off
g pCube4
usemtl initialShadingGroup
f 1/1/1 3/2/2 18/3/3 20/29/4
f 2/5/5 1/4/6 6/36/7 5/24/8
f 3/33/9 2/5/10 8/12/11 7/34/12
f 4/6/13 6/7/14 21/23/15 23/8/16
f 5/24/17 4/9/18 11/37/19 10/13/20
f 12/15/21 14/27/22 19/21/23 18/16/24
f 15/28/25 17/19/26 23/20/27 22/22/28
f 20/29/29 19/21/30 22/22/31 21/23/32
f 2/5/33 5/24/34 10/13/35 8/12/36
f 14/27/37 15/28/38 22/22/39 19/21/40
f 20/29/41 21/23/42 6/7/43 1/1/44
f 4/9/45 23/30/46 17/31/47 11/37/48
f 18/32/49 3/33/50 7/34/51 12/35/52
f 1/4/53 2/5/54 3/33/55
f 4/9/56 5/24/57 6/36/58
f 18/16/59 19/21/60 20/29/61
f 21/23/62 22/22/63 23/20/64
s 1
f 13/17/65 12/11/66 57/75/67 58/76/68
s 2
f 12/11/69 7/10/70 56/73/71 57/75/72
s 3
f 8/12/73 10/13/74 61/79/75 62/80/76
s 4
f 10/13/77 9/26/78 60/78/79 61/79/80
s 5
f 9/26/81 16/18/82 59/77/83 60/78/84
s 6
f 16/18/85 13/17/86 58/76/87 59/77/88
s 7
f 7/34/89 8/12/90 62/80/91 56/74/92
s off
f 25/39/93 26/40/94 31/25/95
f 26/40/96 24/41/97 31/25/98
f 27/42/99 28/43/100 31/25/101
f 28/43/102 29/44/103 31/25/104
f 29/44/105 30/45/106 31/25/107
f 30/45/108 25/39/109 31/25/110
f 24/46/111 27/42/112 31/25/113
f 11/14/114 17/38/115 34/48/116 33/47/117
f 17/38/118 16/18/119 35/49/120 34/48/121
f 16/18/122 9/26/123 32/50/124 35/49/125
f 9/26/126 10/13/127 36/51/128 32/50/129
f 10/13/130 11/37/131 33/52/132 36/51/133
f 33/47/134 34/48/135 39/54/136 38/53/137
f 34/48/138 35/49/139 40/55/140 39/54/141
f 35/49/142 32/50/143 37/56/144 40/55/145
f 32/50/146 36/51/147 41/57/148 37/56/149
f 36/51/150 33/52/151 38/58/152 41/57/153
f 38/53/154 39/54/155 42/59/156
f 39/54/157 40/55/158 42/59/159
f 40/55/160 37/56/161 42/59/162
f 37/56/163 41/57/164 42/59/165
f 41/57/166 38/58/167 42/59/168
f 13/17/169 16/18/170 45/61/171 44/60/172
f 15/28/173 14/27/174 43/63/175 46/62/176
f 12/11/177 13/17/178 44/60/179 47/64/180
f 14/27/181 12/11/182 47/64/183 43/63/184
f 16/18/185 17/38/186 48/65/187 45/61/188
f 17/38/189 15/28/190 46/62/191 48/65/192
f 44/60/193 45/61/194 51/67/195 50/66/196
f 46/62/197 43/63/198 49/69/199 52/68/200
f 47/64/201 44/60/202 50/66/203 53/70/204
f 43/63/205 47/64/206 53/70/207 49/69/208
f 45/61/209 48/65/210 54/71/211 51/67/212
f 48/65/213 46/62/214 52/68/215 54/71/216
f 50/66/217 51/67/218 55/72/219
f 52/68/220 49/69/221 55/72/222
f 53/70/223 50/66/224 55/72/225
f 49/69/226 53/70/227 55/72/228
f 51/67/229 54/71/230 55/72/231
f 54/71/232 52/68/233 55/72/234
s 2
f 57/75/72 56/73/71 24/41/235 26/40/236
s 1
f 58/76/68 57/75/67 26/40/237 25/39/238
s 6
f 59/77/88 58/76/87 25/39/239 30/45/240
s 5
f 60/78/84 59/77/83 30/45/241 29/44/242
s 4
f 61/79/80 60/78/79 29/44/243 28/43/244
s 3
f 62/80/76 61/79/75 28/43/245 27/42/246
s 7
f 56/74/92 62/80/91 27/42/247 24/46/248
s off
f 63/81/249 65/82/250 77/83/251 79/84/252
f 64/85/253 63/86/254 68/87/255 67/88/256
s 8
f 65/89/257 64/85/258 92/90/259 93/91/260
s off
f 66/92/261 68/93/262 80/94/263 82/95/264
s 9
f 67/88/265 66/96/266 98/97/267 99/98/268
s 10
f 94/99/269 95/100/270 78/101/271 77/102/272
s 11
f 96/103/273 97/104/274 82/105/275 81/106/276
s off
f 79/84/277 78/101/278 81/106/279 80/94/280
s 12
f 64/85/281 67/88/282 99/98/283 92/90/284
s 13
f 95/100/285 96/103/286 81/106/287 78/101/288
s off
f 79/84/289 80/94/290 68/93/291 63/81/292
s 14
f 66/96/293 82/107/294 97/108/295 98/97/296
s 15
f 77/109/297 65/89/298 93/91/299 94/110/300
s off
f 63/86/301 64/85/302 65/89/303
f 66/96/304 67/88/305 68/87/306
f 77/102/307 78/101/308 79/84/309
f 80/94/310 81/106/311 82/105/312
f 73/111/313 69/112/314 83/113/315 84/114/316
f 70/115/317 71/116/318 86/117/319 85/118/320
f 72/119/321 76/120/322 88/121/323 87/122/324
f 75/123/325 74/124/326 89/125/327 90/126/328
f 69/127/329 70/115/330 85/118/331 83/128/332
f 71/116/333 72/129/334 87/130/335 86/117/336
f 74/124/337 73/111/338 84/114/339 89/125/340
f 76/120/341 75/123/342 90/126/343 88/121/344
f 84/114/345 83/113/346 91/131/347
f 85/118/348 86/117/349 91/131/350
f 87/122/351 88/121/352 91/131/353
f 90/126/354 89/125/355 91/131/356
f 83/128/357 85/118/358 91/131/359
f 86/117/360 87/130/361 91/131/362
f 89/125/363 84/114/364 91/131/365
f 88/121/366 90/126/367 91/131/368
s 8
f 93/91/260 92/90/259 70/115/369 69/127/370
s 15
f 94/110/300 93/91/299 69/127/371 73/132/372
s 10
f 73/133/373 74/124/374 95/100/270 94/99/269
s 13
f 74/124/375 75/123/376 96/103/286 95/100/285
s 11
f 75/123/377 76/134/378 97/104/274 96/103/273
s 14
f 98/97/296 97/108/295 76/135/379 72/129/380
s 9
f 99/98/268 98/97/267 72/129/381 71/116/382
s 12
f 92/90/284 99/98/283 71/116/383 70/115/384
