# This file uses meters as units for non-parametric coordinates.

mtllib tree_01.mtl
g default
v -28.954395 -213.483201 28.954391
v -28.954395 -150.495509 72.375122
v -72.375130 -150.495509 28.954391
v 72.375122 -150.495509 28.954391
v 28.954390 -150.495509 72.375122
v 28.954390 -213.483201 28.954391
v -33.612823 284.956203 13.447149
v -13.447147 284.956203 33.612823
v 20.003000 328.470973 20.003000
v 13.447147 284.956203 33.612823
v 33.612820 284.956203 13.447149
v -33.612823 284.956203 -13.447141
v -20.003000 328.470973 -20.002993
v -13.447147 284.956203 -33.612812
v 13.447147 284.956203 -33.612812
v 20.003000 328.470973 -20.002993
v 33.612820 284.956203 -13.447142
v -72.375130 -150.495509 -28.954391
v -28.954374 -150.495497 -72.375122
v -28.954374 -213.483201 -28.954391
v 28.954411 -213.483201 -28.954391
v 28.954411 -150.495497 -72.375122
v 72.375145 -150.495497 -28.954391
v -229.908569 447.350042 17.791107
v -213.169632 471.632119 -4.533010
v -229.908569 447.350042 -4.533010
v -213.169632 447.350042 34.530010
v -190.845505 447.350042 34.530010
v -190.845505 471.632119 17.791107
v -190.845505 471.632119 -4.533010
v -272.743378 597.998945 14.463149
v 217.943954 548.843566 17.949438
v 235.631927 523.184622 17.949438
v 235.631927 523.184622 -5.640378
v 217.943954 548.843566 -5.640378
v 217.943954 523.184622 35.637375
v 367.308472 555.681032 16.688789
v 377.440063 540.983687 16.688789
v 377.440063 540.983687 3.176597
v 367.308472 555.681032 3.176597
v 367.308472 540.983687 26.820400
v 391.357330 580.425875 14.209857
v -11.980003 528.511400 -147.624191
v -11.980003 554.572563 -129.658752
v 11.980003 554.572563 -129.658752
v 11.980003 528.511400 -147.624191
v -29.945518 528.511400 -129.658752
v 29.945518 528.511400 -129.658752
v 47.109509 633.227536 -200.682602
v 47.109509 646.148854 -191.775208
v 58.989040 646.148854 -191.775208
v 58.989040 633.227536 -200.682602
v 38.202087 633.227536 -191.775208
v 67.896461 633.227536 -191.775208
v 31.747177 684.505978 -195.641846
vt 0.449993 0.925007
vt 0.375000 0.925007
vt 0.375000 0.824992
vt 0.449993 -0.000000
vt 0.449993 0.016560
vt 0.625000 0.925007
vt 0.550007 0.925008
vt 0.625000 0.824992
vt 0.699992 0.016560
vt 0.375000 0.324992
vt 0.375000 0.425007
vt 0.449992 0.233440
vt 0.550007 0.233440
vt 0.625000 0.324992
vt 0.375000 0.516560
vt 0.375000 0.733440
vt 0.449993 0.425007
vt 0.550007 0.425007
vt 0.625000 0.516560
vt 0.625000 0.733440
vt 0.449992 0.733440
vt 0.550007 0.733440
vt 0.550008 0.824992
vt 0.550008 0.016560
vt 0.450001 0.327813
vt 0.550008 0.324992
vt 0.449993 0.516560
vt 0.550008 0.516560
vt 0.449993 0.824992
vt 0.800008 0.016560
vt 0.800008 0.233440
vt 0.199993 0.016560
vt 0.300008 0.016560
vt 0.300007 0.233440
vt 0.199992 0.233440
vt 0.550008 0.000000
vt 0.699992 0.233440
vt 0.625000 0.425007
vt 0.449993 0.425007
vt 0.375000 0.425007
vt 0.375000 0.324992
vt 0.449992 0.233440
vt 0.550007 0.233440
vt 0.550008 0.324992
vt 0.550007 0.425007
vt 0.300007 0.233440
vt 0.625000 0.324992
vt 0.625000 0.425007
vt 0.550007 0.425007
vt 0.550008 0.324992
vt 0.550007 0.233440
vt 0.699992 0.233440
vt 0.625000 0.324992
vt 0.625000 0.425007
vt 0.550007 0.425007
vt 0.550008 0.324992
vt 0.550007 0.233440
vt 0.699992 0.233440
vt 0.600002 0.327813
vt 0.449993 0.425007
vt 0.550007 0.425007
vt 0.550008 0.516560
vt 0.449993 0.516560
vt 0.375000 0.425007
vt 0.625000 0.425007
vt 0.449993 0.425007
vt 0.550007 0.425007
vt 0.550008 0.516560
vt 0.449993 0.516560
vt 0.375000 0.425007
vt 0.625000 0.425007
vt 0.500000 0.455525
vn -0.823329 -0.567564 -0.000000
vn -0.823329 -0.567564 -0.000000
vn -0.823329 -0.567564 -0.000000
vn -0.823329 -0.567564 -0.000000
vn 0.000000 -0.567564 0.823329
vn 0.000000 -0.567564 0.823329
vn 0.000000 -0.567564 0.823329
vn 0.000000 -0.567564 0.823329
vn -0.704377 0.087785 0.704377
vn -0.704377 0.087785 0.704377
vn -0.704377 0.087785 0.704377
vn -0.704377 0.087785 0.704377
vn 0.823329 -0.567564 0.000000
vn 0.823329 -0.567564 0.000000
vn 0.823329 -0.567564 0.000000
vn 0.823329 -0.567564 0.000000
vn 0.704377 0.087785 0.704377
vn 0.704377 0.087785 0.704377
vn 0.704377 0.087785 0.704377
vn 0.704377 0.087785 0.704377
vn -0.704377 0.087785 -0.704377
vn -0.704377 0.087785 -0.704377
vn -0.704377 0.087785 -0.704377
vn -0.704377 0.087785 -0.704377
vn 0.704377 0.087785 -0.704377
vn 0.704377 0.087785 -0.704377
vn 0.704377 0.087785 -0.704377
vn 0.704377 0.087785 -0.704377
vn 0.000000 -0.567564 -0.823329
vn 0.000000 -0.567564 -0.823329
vn 0.000000 -0.567564 -0.823329
vn 0.000000 -0.567564 -0.823329
vn 0.000000 0.088666 0.996061
vn 0.000000 0.088666 0.996061
vn 0.000000 0.088666 0.996062
vn 0.000000 0.088666 0.996062
vn 0.000000 0.088666 -0.996062
vn 0.000000 0.088666 -0.996061
vn 0.000000 0.088666 -0.996062
vn 0.000000 0.088666 -0.996061
vn 0.000000 -1.000000 -0.000000
vn 0.000000 -1.000000 -0.000000
vn 0.000000 -1.000000 -0.000000
vn 0.000000 -1.000000 -0.000000
vn 0.996061 0.088666 0.000000
vn 0.996061 0.088666 0.000000
vn 0.996061 0.088666 0.000000
vn 0.996061 0.088666 0.000000
vn -0.996061 0.088666 0.000000
vn -0.996061 0.088666 0.000000
vn -0.996062 0.088666 0.000000
vn -0.996062 0.088666 0.000000
vn -0.635615 -0.438163 0.635615
vn -0.635615 -0.438163 0.635615
vn -0.635615 -0.438163 0.635615
vn 0.635615 -0.438163 0.635615
vn 0.635615 -0.438163 0.635615
vn 0.635615 -0.438163 0.635615
vn -0.635615 -0.438163 -0.635615
vn -0.635615 -0.438163 -0.635615
vn -0.635615 -0.438163 -0.635615
vn 0.635615 -0.438163 -0.635615
vn 0.635615 -0.438163 -0.635615
vn 0.635615 -0.438163 -0.635615
vn -0.101819 -0.050493 -0.993521
vn -0.101819 -0.050493 -0.993521
vn -0.101819 -0.050493 -0.993521
vn -0.101819 -0.050493 -0.993521
vn -0.637433 -0.770506 0.000000
vn -0.637433 -0.770506 0.000000
vn -0.637433 -0.770506 0.000000
vn -0.637433 -0.770506 0.000000
vn 0.000000 -0.005648 0.999984
vn 0.000000 -0.005648 0.999984
vn 0.000000 -0.005648 0.999984
vn 0.000000 -0.005648 0.999984
vn 0.270599 0.371412 0.888161
vn 0.270599 0.371412 0.888161
vn 0.270599 0.371412 0.888161
vn 0.270599 0.371412 0.888161
vn 0.561731 0.827320 0.000000
vn 0.561731 0.827320 0.000000
vn 0.561731 0.827320 0.000000
vn 0.561731 0.827320 0.000000
vn 0.000000 0.107435 -0.994212
vn 0.000000 0.107435 -0.994212
vn 0.000000 0.107435 -0.994212
vn 0.000000 0.107435 -0.994212
vn -0.532511 -0.657924 0.532511
vn -0.532511 -0.657924 0.532511
vn -0.532511 -0.657924 0.532511
vn -0.532511 -0.657924 0.532511
vn -0.127930 0.088189 -0.987854
vn -0.127930 0.088189 -0.987855
vn -0.127930 0.088189 -0.987854
vn -0.961874 -0.273495 0.000000
vn -0.961874 -0.273495 0.000000
vn -0.961874 -0.273495 0.000000
vn 0.000000 0.132037 0.991245
vn 0.000000 0.132037 0.991245
vn 0.000000 0.132037 0.991245
vn 0.644216 0.434098 0.629718
vn 0.644216 0.434098 0.629718
vn 0.644216 0.434098 0.629718
vn 0.839173 0.543864 0.000000
vn 0.839173 0.543864 0.000000
vn 0.839173 0.543864 0.000000
vn 0.000000 0.148656 -0.988889
vn 0.000000 0.148656 -0.988889
vn 0.000000 0.148656 -0.988889
vn -0.695254 -0.182327 0.695254
vn -0.695254 -0.182327 0.695254
vn -0.695254 -0.182327 0.695254
vn 0.762689 -0.646765 0.000000
vn 0.762689 -0.646765 0.000000
vn 0.762689 -0.646765 0.000000
vn 0.762689 -0.646765 0.000000
vn 0.107309 -0.045575 -0.993181
vn 0.107309 -0.045575 -0.993181
vn 0.107309 -0.045575 -0.993181
vn 0.107309 -0.045575 -0.993181
vn -0.743956 0.668229 0.000000
vn -0.743956 0.668229 0.000000
vn -0.743956 0.668229 0.000000
vn -0.743956 0.668229 0.000000
vn -0.458151 0.402093 0.792729
vn -0.458151 0.402093 0.792729
vn -0.458151 0.402093 0.792729
vn -0.458151 0.402093 0.792729
vn 0.602855 -0.522618 0.602857
vn 0.602855 -0.522618 0.602856
vn 0.602855 -0.522618 0.602856
vn 0.602855 -0.522618 0.602857
vn 0.124538 -0.992215 0.000000
vn 0.124538 -0.992215 0.000000
vn 0.124538 -0.992215 0.000000
vn 0.124538 -0.992215 0.000000
vn 0.057086 0.039353 -0.997593
vn 0.057086 0.039353 -0.997593
vn 0.057086 0.039353 -0.997593
vn 0.057086 0.039353 -0.997593
vn -0.045729 0.998954 0.000000
vn -0.045729 0.998954 0.000000
vn -0.045729 0.998954 0.000000
vn -0.045729 0.998954 0.000000
vn -0.019029 0.567460 0.823181
vn -0.019029 0.567460 0.823181
vn -0.019029 0.567459 0.823181
vn -0.019029 0.567459 0.823181
vn 0.124657 -0.984338 0.124659
vn 0.124657 -0.984338 0.124659
vn 0.124657 -0.984338 0.124659
vn 0.124657 -0.984338 0.124659
vn 0.943017 -0.332745 0.000000
vn 0.943017 -0.332745 0.000000
vn 0.943017 -0.332745 0.000000
vn 0.255188 0.175914 -0.950754
vn 0.255188 0.175914 -0.950754
vn 0.255188 0.175914 -0.950754
vn -0.717121 0.696949 0.000000
vn -0.717121 0.696949 0.000000
vn -0.717121 0.696949 0.000000
vn -0.446585 0.507823 0.736667
vn -0.446585 0.507823 0.736667
vn -0.446585 0.507823 0.736667
vn 0.692691 -0.200882 0.692695
vn 0.692691 -0.200882 0.692695
vn 0.692691 -0.200882 0.692695
vn 0.000000 0.436373 0.899766
vn 0.000000 0.436373 0.899766
vn 0.000000 0.436373 0.899766
vn 0.000000 0.436373 0.899766
vn 0.000000 -0.423961 -0.905680
vn 0.000000 -0.423961 -0.905680
vn 0.000000 -0.423961 -0.905680
vn 0.000000 -0.423961 -0.905680
vn -0.627191 0.350188 0.695701
vn -0.627191 0.350188 0.695701
vn -0.627191 0.350188 0.695701
vn -0.627191 0.350188 0.695701
vn -0.672136 -0.310588 -0.672137
vn -0.672136 -0.310588 -0.672137
vn -0.672136 -0.310588 -0.672137
vn -0.672136 -0.310588 -0.672137
vn 0.627191 0.350188 0.695701
vn 0.627191 0.350188 0.695701
vn 0.627191 0.350188 0.695701
vn 0.627191 0.350188 0.695701
vn 0.672136 -0.310588 -0.672137
vn 0.672136 -0.310588 -0.672137
vn 0.672136 -0.310588 -0.672137
vn 0.672136 -0.310588 -0.672137
vn 0.000000 0.561349 0.827579
vn 0.000000 0.561349 0.827579
vn 0.000000 0.561349 0.827579
vn 0.000000 0.561349 0.827579
vn 0.000000 -0.451980 -0.892028
vn 0.000000 -0.451980 -0.892028
vn 0.000000 -0.451980 -0.892028
vn 0.000000 -0.451980 -0.892028
vn -0.822149 0.566756 0.053462
vn -0.822149 0.566756 0.053462
vn -0.822149 0.566756 0.053462
vn -0.822149 0.566756 0.053462
vn -0.706519 0.040690 -0.706523
vn -0.706519 0.040690 -0.706523
vn -0.706519 0.040690 -0.706523
vn -0.706519 0.040690 -0.706523
vn 0.465290 0.320752 0.824999
vn 0.465290 0.320752 0.824999
vn 0.465290 0.320752 0.824999
vn 0.465290 0.320752 0.824999
vn 0.585888 -0.559880 -0.585892
vn 0.585888 -0.559880 -0.585892
vn 0.585888 -0.559880 -0.585892
vn 0.585888 -0.559880 -0.585892
vn 0.000000 0.100298 0.994958
vn 0.000000 0.100298 0.994957
vn 0.000000 0.100298 0.994957
vn 0.000000 0.097830 -0.995203
vn 0.000000 0.097830 -0.995203
vn 0.000000 0.097830 -0.995203
vn -0.091916 0.063363 0.993749
vn -0.091916 0.063363 0.993749
vn -0.091916 0.063363 0.993749
vn -0.700054 -0.140909 -0.700049
vn -0.700054 -0.140910 -0.700049
vn -0.700054 -0.140910 -0.700049
vn 0.811632 0.559506 -0.167949
vn 0.811632 0.559506 -0.167949
vn 0.811632 0.559506 -0.167949
vn 0.645989 0.406685 -0.645992
vn 0.645989 0.406685 -0.645992
vn 0.645989 0.406685 -0.645992
s off
g pCube1
usemtl initialShadingGroup
f 1/1/1 3/2/2 18/3/3 20/29/4
f 2/5/5 1/4/6 6/36/7 5/24/8
f 3/33/9 2/5/10 8/12/11 7/34/12
f 4/6/13 6/7/14 21/23/15 23/8/16
f 5/24/17 4/9/18 11/37/19 10/13/20
f 12/15/21 14/27/22 19/21/23 18/16/24
f 15/28/25 17/19/26 23/20/27 22/22/28
f 20/29/29 19/21/30 22/22/31 21/23/32
f 2/5/33 5/24/34 10/13/35 8/12/36
f 14/27/37 15/28/38 22/22/39 19/21/40
f 20/29/41 21/23/42 6/7/43 1/1/44
f 4/9/45 23/30/46 17/31/47 11/37/48
f 18/32/49 3/33/50 7/34/51 12/35/52
f 1/4/53 2/5/54 3/33/55
f 4/9/56 5/24/57 6/36/58
f 18/16/59 19/21/60 20/29/61
f 21/23/62 22/22/63 23/20/64
f 13/17/65 12/11/66 26/40/67 25/39/68
f 12/11/69 7/10/70 24/41/71 26/40/72
f 8/12/73 10/13/74 28/43/75 27/42/76
f 10/13/77 9/26/78 29/44/79 28/43/80
f 9/26/81 16/18/82 30/45/83 29/44/84
f 16/18/85 13/17/86 25/39/87 30/45/88
f 7/34/89 8/12/90 27/42/91 24/46/92
f 25/39/93 26/40/94 31/25/95
f 26/40/96 24/41/97 31/25/98
f 27/42/99 28/43/100 31/25/101
f 28/43/102 29/44/103 31/25/104
f 29/44/105 30/45/106 31/25/107
f 30/45/108 25/39/109 31/25/110
f 24/46/111 27/42/112 31/25/113
f 11/14/114 17/38/115 34/48/116 33/47/117
f 17/38/118 16/18/119 35/49/120 34/48/121
f 16/18/122 9/26/123 32/50/124 35/49/125
f 9/26/126 10/13/127 36/51/128 32/50/129
f 10/13/130 11/37/131 33/52/132 36/51/133
f 33/47/134 34/48/135 39/54/136 38/53/137
f 34/48/138 35/49/139 40/55/140 39/54/141
f 35/49/142 32/50/143 37/56/144 40/55/145
f 32/50/146 36/51/147 41/57/148 37/56/149
f 36/51/150 33/52/151 38/58/152 41/57/153
f 38/53/154 39/54/155 42/59/156
f 39/54/157 40/55/158 42/59/159
f 40/55/160 37/56/161 42/59/162
f 37/56/163 41/57/164 42/59/165
f 41/57/166 38/58/167 42/59/168
f 13/17/169 16/18/170 45/61/171 44/60/172
f 15/28/173 14/27/174 43/63/175 46/62/176
f 12/11/177 13/17/178 44/60/179 47/64/180
f 14/27/181 12/11/182 47/64/183 43/63/184
f 16/18/185 17/38/186 48/65/187 45/61/188
f 17/38/189 15/28/190 46/62/191 48/65/192
f 44/60/193 45/61/194 51/67/195 50/66/196
f 46/62/197 43/63/198 49/69/199 52/68/200
f 47/64/201 44/60/202 50/66/203 53/70/204
f 43/63/205 47/64/206 53/70/207 49/69/208
f 45/61/209 48/65/210 54/71/211 51/67/212
f 48/65/213 46/62/214 52/68/215 54/71/216
f 50/66/217 51/67/218 55/72/219
f 52/68/220 49/69/221 55/72/222
f 53/70/223 50/66/224 55/72/225
f 49/69/226 53/70/227 55/72/228
f 51/67/229 54/71/230 55/72/231
f 54/71/232 52/68/233 55/72/234
